<?xml version="1.0" encoding="UTF-8"?>
<svg xmlns="http://www.w3.org/2000/svg" xmlns:xlink="http://www.w3.org/1999/xlink" width="1546pt" height="936pt" viewBox="0 0 1546 936" version="1.1">
<defs>
<g>
<symbol overflow="visible" id="glyph0-0">
<path style="stroke:none;" d="M 2.625 0 L 2.625 -13.125 L 13.125 -13.125 L 13.125 0 Z M 2.953125 -0.328125 L 12.796875 -0.328125 L 12.796875 -12.796875 L 2.953125 -12.796875 Z M 2.953125 -0.328125 "/>
</symbol>
<symbol overflow="visible" id="glyph0-1">
<path style="stroke:none;" d="M 7.824219 0 L 5.976562 0 L 5.976562 -11.761719 C 5.53125 -11.335938 4.949219 -10.914062 4.230469 -10.488281 C 3.507812 -10.066406 2.859375 -9.75 2.285156 -9.535156 L 2.285156 -11.320312 C 3.320312 -11.804688 4.222656 -12.394531 4.992188 -13.085938 C 5.765625 -13.773438 6.3125 -14.445312 6.632812 -15.09375 L 7.824219 -15.09375 Z M 7.824219 0 "/>
</symbol>
<symbol overflow="visible" id="glyph0-2">
<path style="stroke:none;" d="M 10.570312 -1.773438 L 10.570312 0 L 0.636719 0 C 0.621094 -0.445312 0.695312 -0.871094 0.851562 -1.28125 C 1.105469 -1.957031 1.507812 -2.625 2.066406 -3.28125 C 2.625 -3.9375 3.429688 -4.695312 4.480469 -5.558594 C 6.113281 -6.898438 7.21875 -7.957031 7.792969 -8.742188 C 8.367188 -9.523438 8.65625 -10.265625 8.65625 -10.960938 C 8.65625 -11.691406 8.394531 -12.308594 7.871094 -12.8125 C 7.347656 -13.316406 6.664062 -13.566406 5.824219 -13.566406 C 4.9375 -13.566406 4.226562 -13.300781 3.691406 -12.765625 C 3.15625 -12.234375 2.886719 -11.496094 2.882812 -10.550781 L 0.984375 -10.746094 C 1.113281 -12.160156 1.601562 -13.238281 2.449219 -13.980469 C 3.296875 -14.722656 4.4375 -15.09375 5.867188 -15.09375 C 7.308594 -15.09375 8.449219 -14.695312 9.289062 -13.894531 C 10.128906 -13.09375 10.550781 -12.101562 10.550781 -10.921875 C 10.550781 -10.320312 10.429688 -9.726562 10.183594 -9.148438 C 9.9375 -8.566406 9.527344 -7.953125 8.957031 -7.3125 C 8.386719 -6.667969 7.4375 -5.785156 6.109375 -4.664062 C 5.003906 -3.734375 4.292969 -3.105469 3.976562 -2.773438 C 3.664062 -2.441406 3.40625 -2.109375 3.199219 -1.773438 Z M 10.570312 -1.773438 "/>
</symbol>
<symbol overflow="visible" id="glyph0-3">
<path style="stroke:none;" d="M 0.882812 -3.96875 L 2.726562 -4.214844 C 2.9375 -3.167969 3.300781 -2.414062 3.808594 -1.953125 C 4.320312 -1.492188 4.9375 -1.261719 5.671875 -1.261719 C 6.539062 -1.261719 7.273438 -1.5625 7.871094 -2.164062 C 8.46875 -2.765625 8.765625 -3.511719 8.765625 -4.398438 C 8.765625 -5.246094 8.492188 -5.945312 7.9375 -6.496094 C 7.382812 -7.046875 6.679688 -7.320312 5.824219 -7.320312 C 5.476562 -7.320312 5.042969 -7.253906 4.523438 -7.117188 L 4.726562 -8.734375 C 4.851562 -8.722656 4.949219 -8.714844 5.023438 -8.714844 C 5.808594 -8.714844 6.519531 -8.921875 7.148438 -9.332031 C 7.777344 -9.742188 8.089844 -10.375 8.089844 -11.226562 C 8.089844 -11.90625 7.859375 -12.464844 7.402344 -12.910156 C 6.945312 -13.355469 6.355469 -13.578125 5.628906 -13.578125 C 4.910156 -13.578125 4.3125 -13.351562 3.835938 -12.898438 C 3.355469 -12.449219 3.046875 -11.773438 2.914062 -10.867188 L 1.066406 -11.195312 C 1.292969 -12.433594 1.804688 -13.394531 2.605469 -14.074219 C 3.40625 -14.753906 4.398438 -15.09375 5.589844 -15.09375 C 6.410156 -15.09375 7.164062 -14.917969 7.855469 -14.566406 C 8.546875 -14.214844 9.074219 -13.734375 9.4375 -13.125 C 9.804688 -12.515625 9.988281 -11.871094 9.988281 -11.1875 C 9.988281 -10.539062 9.8125 -9.945312 9.464844 -9.414062 C 9.117188 -8.878906 8.601562 -8.457031 7.914062 -8.140625 C 8.804688 -7.9375 9.496094 -7.511719 9.988281 -6.863281 C 10.480469 -6.21875 10.726562 -5.410156 10.726562 -4.441406 C 10.726562 -3.128906 10.246094 -2.015625 9.289062 -1.101562 C 8.332031 -0.1875 7.125 0.265625 5.660156 0.265625 C 4.339844 0.265625 3.246094 -0.125 2.375 -0.914062 C 1.503906 -1.699219 1.003906 -2.71875 0.882812 -3.96875 Z M 0.882812 -3.96875 "/>
</symbol>
<symbol overflow="visible" id="glyph0-4">
<path style="stroke:none;" d="M 6.789062 0 L 6.789062 -3.597656 L 0.265625 -3.597656 L 0.265625 -5.289062 L 7.125 -15.03125 L 8.632812 -15.03125 L 8.632812 -5.289062 L 10.664062 -5.289062 L 10.664062 -3.597656 L 8.632812 -3.597656 L 8.632812 0 Z M 6.789062 -5.289062 L 6.789062 -12.070312 L 2.082031 -5.289062 Z M 6.789062 -5.289062 "/>
</symbol>
<symbol overflow="visible" id="glyph1-0">
<path style="stroke:none;" d="M -0.25 0 L -0.25 -17.613281 L 20.710938 -17.613281 L 20.710938 0 Z M 18.285156 -2.425781 L 18.285156 -15.1875 L 2.175781 -15.1875 L 2.175781 -2.425781 Z M 18.285156 -2.425781 "/>
</symbol>
<symbol overflow="visible" id="glyph1-1">
<path style="stroke:none;" d="M 5.496094 -11.996094 C 5.578125 -11.996094 5.632812 -11.972656 5.664062 -11.925781 C 5.695312 -11.875 5.707031 -11.820312 5.707031 -11.757812 C 5.699219 -11.671875 5.691406 -11.605469 5.683594 -11.5625 L 4.363281 -6.460938 L 4.652344 -7.027344 C 5.285156 -8.265625 6.027344 -9.398438 6.875 -10.421875 C 7.722656 -11.445312 8.53125 -11.957031 9.292969 -11.957031 C 9.707031 -11.957031 10.027344 -11.820312 10.25 -11.546875 C 10.472656 -11.277344 10.585938 -10.964844 10.585938 -10.613281 C 10.585938 -10.21875 10.472656 -9.890625 10.25 -9.628906 C 10.027344 -9.371094 9.714844 -9.242188 9.320312 -9.242188 C 9.046875 -9.242188 8.84375 -9.292969 8.703125 -9.398438 C 8.5625 -9.503906 8.449219 -9.628906 8.371094 -9.769531 L 8.214844 -10.058594 C 8.179688 -10.113281 8.136719 -10.152344 8.089844 -10.183594 C 8.039062 -10.214844 7.980469 -10.230469 7.910156 -10.230469 C 7.566406 -10.230469 7.074219 -9.75 6.425781 -8.792969 C 5.78125 -7.835938 5.203125 -6.796875 4.695312 -5.683594 C 4.386719 -5.007812 4.042969 -4.109375 3.664062 -2.992188 C 3.425781 -2.289062 3.109375 -1.292969 2.714844 0 L 0.6875 0 L 2.875 -7.9375 C 2.996094 -8.394531 3.097656 -8.800781 3.171875 -9.164062 C 3.246094 -9.523438 3.28125 -9.816406 3.28125 -10.046875 C 3.28125 -10.308594 3.21875 -10.511719 3.085938 -10.652344 C 2.953125 -10.792969 2.726562 -10.863281 2.398438 -10.863281 C 2.292969 -10.863281 2.164062 -10.855469 2.003906 -10.835938 C 1.84375 -10.820312 1.65625 -10.796875 1.4375 -10.769531 L 1.4375 -11.207031 L 1.964844 -11.3125 C 2.648438 -11.453125 3.398438 -11.601562 4.210938 -11.757812 C 5.023438 -11.917969 5.453125 -11.996094 5.496094 -11.996094 Z M 5.496094 -11.996094 "/>
</symbol>
<symbol overflow="visible" id="glyph1-2">
<path style="stroke:none;" d="M 4.679688 -6.75 C 4.679688 -6.203125 4.765625 -5.769531 4.929688 -5.445312 C 5.210938 -4.910156 5.71875 -4.640625 6.445312 -4.640625 C 7.238281 -4.640625 7.941406 -5.144531 8.5625 -6.148438 C 9.183594 -7.15625 9.492188 -8.265625 9.492188 -9.480469 C 9.492188 -10.058594 9.363281 -10.515625 9.109375 -10.84375 C 8.855469 -11.171875 8.472656 -11.335938 7.960938 -11.335938 C 6.976562 -11.335938 6.183594 -10.816406 5.582031 -9.769531 C 4.980469 -8.722656 4.679688 -7.71875 4.679688 -6.75 Z M 5.140625 5.007812 C 6.1875 5.007812 7.054688 4.757812 7.746094 4.257812 C 8.4375 3.757812 8.78125 3.160156 8.78125 2.464844 C 8.78125 1.9375 8.601562 1.492188 8.238281 1.132812 C 8.046875 0.941406 7.734375 0.734375 7.304688 0.515625 C 6.945312 0.339844 6.335938 0.0859375 5.476562 -0.242188 C 4.621094 -0.574219 4.125 -0.738281 3.996094 -0.738281 C 3.765625 -0.738281 3.320312 -0.433594 2.664062 0.179688 C 2.003906 0.789062 1.675781 1.480469 1.675781 2.253906 C 1.675781 3.421875 2.179688 4.226562 3.191406 4.667969 C 3.71875 4.894531 4.367188 5.007812 5.140625 5.007812 Z M 0.210938 2.597656 C 0.210938 1.9375 0.464844 1.3125 0.96875 0.71875 C 1.472656 0.125 2.277344 -0.464844 3.375 -1.054688 C 3.15625 -1.195312 2.976562 -1.34375 2.835938 -1.496094 C 2.695312 -1.648438 2.625 -1.855469 2.625 -2.109375 C 2.625 -2.46875 2.875 -2.882812 3.375 -3.347656 C 3.65625 -3.613281 4.113281 -3.960938 4.746094 -4.390625 C 4.183594 -4.601562 3.699219 -4.898438 3.296875 -5.285156 C 2.804688 -5.804688 2.558594 -6.476562 2.558594 -7.304688 C 2.558594 -8.632812 3.078125 -9.734375 4.113281 -10.613281 C 5.148438 -11.492188 6.433594 -11.929688 7.960938 -11.929688 C 8.761719 -11.929688 9.4375 -11.804688 9.992188 -11.554688 C 10.546875 -11.304688 10.871094 -11.097656 10.96875 -10.929688 L 12.75 -10.929688 L 12.75 -9.875 L 11.402344 -9.875 C 11.457031 -9.679688 11.496094 -9.503906 11.523438 -9.347656 C 11.550781 -9.1875 11.5625 -8.964844 11.5625 -8.675781 C 11.5625 -7.25 11.011719 -6.128906 9.90625 -5.3125 C 8.804688 -4.496094 7.617188 -4.085938 6.339844 -4.085938 C 6.210938 -4.085938 6.085938 -4.09375 5.972656 -4.105469 C 5.859375 -4.121094 5.71875 -4.144531 5.550781 -4.179688 C 5.417969 -4.179688 5.238281 -4.050781 5.007812 -3.796875 C 4.773438 -3.542969 4.652344 -3.3125 4.652344 -3.109375 C 4.652344 -2.8125 5.621094 -2.304688 7.554688 -1.582031 C 9.480469 -0.851562 10.441406 0.214844 10.441406 1.621094 C 10.441406 2.675781 9.957031 3.601562 8.992188 4.398438 C 8.023438 5.191406 6.566406 5.589844 4.613281 5.589844 C 3.261719 5.589844 2.1875 5.300781 1.398438 4.71875 C 0.605469 4.140625 0.210938 3.433594 0.210938 2.597656 Z M 0.210938 2.597656 "/>
</symbol>
<symbol overflow="visible" id="glyph1-3">
<path style="stroke:none;" d="M 0.488281 0 L 2.769531 -8.148438 C 2.960938 -8.832031 3.074219 -9.25 3.105469 -9.394531 C 3.136719 -9.539062 3.152344 -9.695312 3.152344 -9.859375 C 3.152344 -10.117188 3.078125 -10.316406 2.933594 -10.460938 C 2.789062 -10.605469 2.503906 -10.679688 2.082031 -10.679688 C 1.976562 -10.679688 1.875 -10.671875 1.773438 -10.660156 C 1.671875 -10.644531 1.558594 -10.628906 1.4375 -10.613281 L 1.4375 -11.0625 C 2.007812 -11.148438 2.414062 -11.214844 2.65625 -11.257812 C 2.898438 -11.300781 3.160156 -11.355469 3.441406 -11.417969 L 5.800781 -11.929688 C 5.851562 -11.894531 5.890625 -11.855469 5.90625 -11.8125 L 4.152344 -6.144531 C 5.226562 -7.789062 6.121094 -9.007812 6.84375 -9.808594 C 8.109375 -11.222656 9.242188 -11.929688 10.242188 -11.929688 C 10.628906 -11.929688 10.964844 -11.855469 11.246094 -11.707031 C 11.78125 -11.417969 12.050781 -10.894531 12.050781 -10.136719 C 12.050781 -9.925781 12.027344 -9.707031 11.984375 -9.480469 C 11.941406 -9.25 11.882812 -9.003906 11.8125 -8.742188 L 10.085938 -2.425781 C 10.050781 -2.292969 10.011719 -2.132812 9.96875 -1.945312 C 9.921875 -1.757812 9.902344 -1.621094 9.902344 -1.542969 C 9.902344 -1.410156 9.929688 -1.292969 9.992188 -1.1875 C 10.054688 -1.082031 10.15625 -1.027344 10.296875 -1.027344 C 10.523438 -1.027344 10.789062 -1.164062 11.085938 -1.429688 C 11.386719 -1.699219 11.875 -2.273438 12.550781 -3.152344 L 12.933594 -2.808594 C 12.210938 -1.832031 11.640625 -1.148438 11.21875 -0.75 C 10.5 -0.0546875 9.808594 0.289062 9.148438 0.289062 C 8.851562 0.289062 8.5625 0.191406 8.285156 -0.0078125 C 8.007812 -0.203125 7.871094 -0.5625 7.871094 -1.082031 C 7.871094 -1.230469 7.882812 -1.390625 7.902344 -1.554688 C 7.925781 -1.722656 7.953125 -1.867188 7.988281 -1.992188 L 9.648438 -8.398438 C 9.738281 -8.75 9.796875 -9.039062 9.828125 -9.261719 C 9.859375 -9.484375 9.875 -9.644531 9.875 -9.742188 C 9.875 -9.953125 9.824219 -10.136719 9.722656 -10.289062 C 9.621094 -10.445312 9.445312 -10.519531 9.1875 -10.519531 C 8.53125 -10.519531 7.699219 -9.921875 6.695312 -8.726562 C 6.109375 -8.015625 5.511719 -7.167969 4.90625 -6.183594 C 4.4375 -5.417969 4.070312 -4.671875 3.804688 -3.949219 C 3.535156 -3.222656 3.109375 -1.90625 2.53125 0 Z M 0.488281 0 "/>
</symbol>
<symbol overflow="visible" id="glyph2-0">
<path style="stroke:none;" d="M 1.6875 0 L 1.6875 -21.59375 L 11.8125 -21.59375 L 11.8125 0 Z M 3.375 -1.6875 L 10.125 -1.6875 L 10.125 -19.90625 L 3.375 -19.90625 Z M 3.375 -1.6875 "/>
</symbol>
<symbol overflow="visible" id="glyph2-1">
<path style="stroke:none;" d="M 8.015625 5.667969 L 6.316406 5.667969 C 5.613281 4.773438 4.972656 3.824219 4.398438 2.828125 C 3.820312 1.832031 3.328125 0.796875 2.914062 -0.277344 C 2.5 -1.347656 2.183594 -2.449219 1.957031 -3.574219 C 1.734375 -4.699219 1.621094 -5.835938 1.621094 -6.988281 C 1.621094 -8.15625 1.734375 -9.300781 1.964844 -10.421875 C 2.191406 -11.542969 2.515625 -12.632812 2.925781 -13.699219 C 3.339844 -14.761719 3.835938 -15.792969 4.410156 -16.789062 C 4.984375 -17.785156 5.621094 -18.742188 6.316406 -19.65625 L 8.015625 -19.65625 C 7.390625 -18.636719 6.832031 -17.632812 6.339844 -16.644531 C 5.847656 -15.65625 5.4375 -14.648438 5.101562 -13.625 C 4.769531 -12.601562 4.511719 -11.546875 4.335938 -10.460938 C 4.160156 -9.375 4.074219 -8.226562 4.074219 -7.015625 C 4.074219 -5.890625 4.167969 -4.773438 4.355469 -3.664062 C 4.546875 -2.558594 4.8125 -1.46875 5.15625 -0.402344 C 5.5 0.664062 5.910156 1.707031 6.394531 2.722656 C 6.878906 3.738281 7.417969 4.71875 8.015625 5.667969 Z M 8.015625 5.667969 "/>
</symbol>
<symbol overflow="visible" id="glyph2-2">
<path style="stroke:none;" d="M 7.371094 -6.988281 C 7.371094 -5.828125 7.253906 -4.6875 7.027344 -3.566406 C 6.796875 -2.445312 6.476562 -1.351562 6.0625 -0.289062 C 5.652344 0.773438 5.15625 1.804688 4.582031 2.800781 C 4.007812 3.796875 3.371094 4.753906 2.675781 5.667969 L 0.976562 5.667969 C 1.589844 4.667969 2.144531 3.667969 2.636719 2.675781 C 3.128906 1.683594 3.542969 0.671875 3.875 -0.355469 C 4.210938 -1.382812 4.46875 -2.445312 4.648438 -3.53125 C 4.828125 -4.621094 4.917969 -5.765625 4.917969 -6.960938 C 4.917969 -8.085938 4.824219 -9.203125 4.632812 -10.308594 C 4.445312 -11.417969 4.179688 -12.503906 3.835938 -13.574219 C 3.492188 -14.640625 3.078125 -15.683594 2.589844 -16.703125 C 2.101562 -17.722656 1.5625 -18.707031 0.976562 -19.65625 L 2.675781 -19.65625 C 3.378906 -18.761719 4.019531 -17.8125 4.601562 -16.816406 C 5.179688 -15.820312 5.675781 -14.78125 6.085938 -13.703125 C 6.492188 -12.628906 6.808594 -11.523438 7.035156 -10.394531 C 7.257812 -9.265625 7.371094 -8.128906 7.371094 -6.988281 Z M 7.371094 -6.988281 "/>
</symbol>
<symbol overflow="visible" id="glyph3-0">
<path style="stroke:none;" d="M 2.4375 0 L 2.4375 -12.1875 L 12.1875 -12.1875 L 12.1875 0 Z M 2.742188 -0.304688 L 11.882812 -0.304688 L 11.882812 -11.882812 L 2.742188 -11.882812 Z M 2.742188 -0.304688 "/>
</symbol>
<symbol overflow="visible" id="glyph3-1">
<path style="stroke:none;" d="M 0.808594 -6.882812 C 0.808594 -8.535156 0.980469 -9.863281 1.320312 -10.867188 C 1.660156 -11.875 2.164062 -12.652344 2.832031 -13.195312 C 3.503906 -13.742188 4.34375 -14.015625 5.359375 -14.015625 C 6.109375 -14.015625 6.765625 -13.863281 7.332031 -13.5625 C 7.898438 -13.261719 8.363281 -12.828125 8.730469 -12.257812 C 9.097656 -11.691406 9.386719 -11 9.597656 -10.183594 C 9.808594 -9.367188 9.910156 -8.269531 9.910156 -6.882812 C 9.910156 -5.246094 9.742188 -3.925781 9.40625 -2.917969 C 9.070312 -1.914062 8.566406 -1.132812 7.898438 -0.585938 C 7.226562 -0.0351562 6.382812 0.238281 5.359375 0.238281 C 4.015625 0.238281 2.957031 -0.246094 2.191406 -1.210938 C 1.269531 -2.371094 0.808594 -4.261719 0.808594 -6.882812 Z M 2.570312 -6.882812 C 2.570312 -4.59375 2.839844 -3.066406 3.375 -2.308594 C 3.910156 -1.550781 4.574219 -1.171875 5.359375 -1.171875 C 6.148438 -1.171875 6.808594 -1.550781 7.347656 -2.3125 C 7.882812 -3.074219 8.148438 -4.597656 8.148438 -6.882812 C 8.148438 -9.179688 7.882812 -10.707031 7.347656 -11.464844 C 6.808594 -12.21875 6.140625 -12.597656 5.339844 -12.597656 C 4.554688 -12.597656 3.925781 -12.265625 3.457031 -11.597656 C 2.867188 -10.746094 2.570312 -9.175781 2.570312 -6.882812 Z M 2.570312 -6.882812 "/>
</symbol>
<symbol overflow="visible" id="glyph3-2">
<path style="stroke:none;" d="M 7.265625 0 L 5.550781 0 L 5.550781 -10.921875 C 5.136719 -10.527344 4.597656 -10.132812 3.925781 -9.742188 C 3.257812 -9.347656 2.65625 -9.050781 2.125 -8.855469 L 2.125 -10.511719 C 3.082031 -10.960938 3.917969 -11.507812 4.636719 -12.148438 C 5.355469 -12.789062 5.863281 -13.414062 6.160156 -14.015625 L 7.265625 -14.015625 Z M 7.265625 0 "/>
</symbol>
<symbol overflow="visible" id="glyph3-3">
<path style="stroke:none;" d="M 9.816406 -1.648438 L 9.816406 0 L 0.589844 0 C 0.578125 -0.414062 0.644531 -0.808594 0.789062 -1.191406 C 1.023438 -1.820312 1.402344 -2.4375 1.917969 -3.046875 C 2.4375 -3.65625 3.183594 -4.359375 4.160156 -5.160156 C 5.679688 -6.40625 6.703125 -7.390625 7.234375 -8.117188 C 7.769531 -8.84375 8.035156 -9.53125 8.035156 -10.179688 C 8.035156 -10.859375 7.792969 -11.429688 7.308594 -11.898438 C 6.824219 -12.363281 6.1875 -12.597656 5.40625 -12.597656 C 4.582031 -12.597656 3.921875 -12.347656 3.429688 -11.855469 C 2.933594 -11.359375 2.683594 -10.671875 2.675781 -9.796875 L 0.914062 -9.976562 C 1.035156 -11.292969 1.488281 -12.292969 2.277344 -12.984375 C 3.0625 -13.671875 4.121094 -14.015625 5.445312 -14.015625 C 6.785156 -14.015625 7.84375 -13.644531 8.625 -12.902344 C 9.40625 -12.160156 9.796875 -11.238281 9.796875 -10.140625 C 9.796875 -9.582031 9.683594 -9.03125 9.453125 -8.492188 C 9.226562 -7.953125 8.847656 -7.386719 8.316406 -6.789062 C 7.785156 -6.191406 6.90625 -5.375 5.675781 -4.332031 C 4.648438 -3.46875 3.984375 -2.882812 3.695312 -2.574219 C 3.402344 -2.265625 3.160156 -1.957031 2.96875 -1.648438 Z M 9.816406 -1.648438 "/>
</symbol>
<symbol overflow="visible" id="glyph3-4">
<path style="stroke:none;" d="M 0.820312 -3.683594 L 2.53125 -3.914062 C 2.730469 -2.941406 3.0625 -2.242188 3.539062 -1.8125 C 4.011719 -1.386719 4.585938 -1.171875 5.265625 -1.171875 C 6.070312 -1.171875 6.753906 -1.449219 7.308594 -2.007812 C 7.863281 -2.566406 8.140625 -3.257812 8.140625 -4.085938 C 8.140625 -4.871094 7.882812 -5.519531 7.371094 -6.03125 C 6.855469 -6.542969 6.203125 -6.796875 5.40625 -6.796875 C 5.082031 -6.796875 4.679688 -6.734375 4.199219 -6.609375 L 4.390625 -8.113281 C 4.503906 -8.101562 4.59375 -8.09375 4.664062 -8.09375 C 5.394531 -8.09375 6.050781 -8.285156 6.636719 -8.664062 C 7.21875 -9.046875 7.511719 -9.632812 7.511719 -10.425781 C 7.511719 -11.054688 7.300781 -11.574219 6.875 -11.988281 C 6.449219 -12.398438 5.898438 -12.605469 5.226562 -12.605469 C 4.5625 -12.605469 4.003906 -12.398438 3.5625 -11.976562 C 3.117188 -11.558594 2.832031 -10.929688 2.703125 -10.09375 L 0.992188 -10.398438 C 1.199219 -11.546875 1.675781 -12.4375 2.417969 -13.066406 C 3.160156 -13.699219 4.085938 -14.015625 5.1875 -14.015625 C 5.949219 -14.015625 6.652344 -13.851562 7.292969 -13.523438 C 7.933594 -13.199219 8.425781 -12.753906 8.765625 -12.1875 C 9.105469 -11.621094 9.273438 -11.023438 9.273438 -10.386719 C 9.273438 -9.785156 9.113281 -9.234375 8.789062 -8.742188 C 8.464844 -8.246094 7.984375 -7.851562 7.351562 -7.558594 C 8.175781 -7.367188 8.816406 -6.972656 9.273438 -6.375 C 9.730469 -5.773438 9.960938 -5.023438 9.960938 -4.121094 C 9.960938 -2.902344 9.515625 -1.871094 8.625 -1.023438 C 7.738281 -0.175781 6.613281 0.246094 5.257812 0.246094 C 4.03125 0.246094 3.011719 -0.117188 2.203125 -0.847656 C 1.394531 -1.578125 0.933594 -2.523438 0.820312 -3.683594 Z M 0.820312 -3.683594 "/>
</symbol>
<symbol overflow="visible" id="glyph3-5">
<path style="stroke:none;" d="M 6.304688 0 L 6.304688 -3.34375 L 0.246094 -3.34375 L 0.246094 -4.914062 L 6.617188 -13.957031 L 8.015625 -13.957031 L 8.015625 -4.914062 L 9.902344 -4.914062 L 9.902344 -3.34375 L 8.015625 -3.34375 L 8.015625 0 Z M 6.304688 -4.914062 L 6.304688 -11.207031 L 1.933594 -4.914062 Z M 6.304688 -4.914062 "/>
</symbol>
<symbol overflow="visible" id="glyph3-6">
<path style="stroke:none;" d="M 0.808594 -3.65625 L 2.609375 -3.808594 C 2.742188 -2.933594 3.050781 -2.273438 3.539062 -1.832031 C 4.023438 -1.390625 4.609375 -1.171875 5.292969 -1.171875 C 6.117188 -1.171875 6.816406 -1.480469 7.390625 -2.105469 C 7.960938 -2.726562 8.246094 -3.550781 8.246094 -4.578125 C 8.246094 -5.558594 7.972656 -6.328125 7.421875 -6.894531 C 6.871094 -7.457031 6.152344 -7.742188 5.265625 -7.742188 C 4.714844 -7.742188 4.214844 -7.617188 3.769531 -7.363281 C 3.324219 -7.113281 2.976562 -6.789062 2.722656 -6.390625 L 1.113281 -6.597656 L 2.464844 -13.769531 L 9.40625 -13.769531 L 9.40625 -12.128906 L 3.835938 -12.128906 L 3.085938 -8.378906 C 3.921875 -8.960938 4.800781 -9.253906 5.722656 -9.253906 C 6.941406 -9.253906 7.96875 -8.832031 8.808594 -7.988281 C 9.644531 -7.144531 10.0625 -6.058594 10.0625 -4.730469 C 10.0625 -3.46875 9.695312 -2.378906 8.960938 -1.457031 C 8.066406 -0.328125 6.84375 0.238281 5.292969 0.238281 C 4.023438 0.238281 2.988281 -0.117188 2.183594 -0.828125 C 1.382812 -1.539062 0.921875 -2.480469 0.808594 -3.65625 Z M 0.808594 -3.65625 "/>
</symbol>
<symbol overflow="visible" id="glyph3-7">
<path style="stroke:none;" d="M 9.703125 -10.539062 L 8 -10.40625 C 7.847656 -11.078125 7.628906 -11.570312 7.351562 -11.875 C 6.886719 -12.363281 6.316406 -12.605469 5.636719 -12.605469 C 5.089844 -12.605469 4.613281 -12.453125 4.199219 -12.148438 C 3.660156 -11.753906 3.234375 -11.179688 2.921875 -10.425781 C 2.613281 -9.671875 2.449219 -8.59375 2.4375 -7.199219 C 2.851562 -7.828125 3.355469 -8.292969 3.953125 -8.597656 C 4.546875 -8.902344 5.171875 -9.054688 5.828125 -9.054688 C 6.96875 -9.054688 7.941406 -8.632812 8.746094 -7.792969 C 9.546875 -6.953125 9.949219 -5.867188 9.949219 -4.53125 C 9.949219 -3.65625 9.761719 -2.84375 9.382812 -2.089844 C 9.003906 -1.335938 8.488281 -0.761719 7.828125 -0.363281 C 7.167969 0.0390625 6.417969 0.238281 5.578125 0.238281 C 4.152344 0.238281 2.988281 -0.289062 2.085938 -1.335938 C 1.183594 -2.386719 0.734375 -4.121094 0.734375 -6.53125 C 0.734375 -9.230469 1.230469 -11.191406 2.226562 -12.414062 C 3.097656 -13.480469 4.269531 -14.015625 5.742188 -14.015625 C 6.839844 -14.015625 7.738281 -13.707031 8.441406 -13.09375 C 9.140625 -12.476562 9.5625 -11.625 9.703125 -10.539062 Z M 2.703125 -4.523438 C 2.703125 -3.933594 2.828125 -3.367188 3.082031 -2.828125 C 3.332031 -2.289062 3.679688 -1.878906 4.132812 -1.59375 C 4.582031 -1.3125 5.054688 -1.171875 5.550781 -1.171875 C 6.273438 -1.171875 6.898438 -1.464844 7.417969 -2.046875 C 7.9375 -2.632812 8.199219 -3.425781 8.199219 -4.425781 C 8.199219 -5.390625 7.941406 -6.152344 7.425781 -6.707031 C 6.914062 -7.261719 6.265625 -7.539062 5.484375 -7.539062 C 4.710938 -7.539062 4.054688 -7.261719 3.511719 -6.707031 C 2.972656 -6.152344 2.703125 -5.425781 2.703125 -4.523438 Z M 2.703125 -4.523438 "/>
</symbol>
</g>
<clipPath id="clip1">
  <path d="M 1487.039062 376 L 1517 376 L 1517 382 L 1487.039062 382 Z M 1487.039062 376 "/>
</clipPath>
<clipPath id="clip2">
  <path d="M 1487.039062 412 L 1517 412 L 1517 417 L 1487.039062 417 Z M 1487.039062 412 "/>
</clipPath>
<clipPath id="clip3">
  <path d="M 1487.039062 447 L 1517 447 L 1517 452 L 1487.039062 452 Z M 1487.039062 447 "/>
</clipPath>
<clipPath id="clip4">
  <path d="M 1487.039062 482 L 1517 482 L 1517 487 L 1487.039062 487 Z M 1487.039062 482 "/>
</clipPath>
<clipPath id="clip5">
  <path d="M 1487.039062 517 L 1517 517 L 1517 522 L 1487.039062 522 Z M 1487.039062 517 "/>
</clipPath>
<clipPath id="clip6">
  <path d="M 1487.039062 552 L 1517 552 L 1517 557 L 1487.039062 557 Z M 1487.039062 552 "/>
</clipPath>
<clipPath id="clip7">
  <path d="M 1487.039062 587 L 1517 587 L 1517 592 L 1487.039062 592 Z M 1487.039062 587 "/>
</clipPath>
</defs>
<g id="surface36">
<path style="fill:none;stroke-width:3;stroke-linecap:square;stroke-linejoin:miter;stroke:rgb(36.841382%,50.678264%,70.980392%);stroke-opacity:1;stroke-miterlimit:3.25;" d="M 128.703125 842.65625 L 129.128906 842.351562 L 129.554688 842.148438 L 129.980469 842.074219 L 130.40625 841.925781 L 132.109375 841.085938 L 135.519531 839.28125 L 142.339844 835.605469 L 155.980469 828.230469 L 185.550781 812.238281 L 213.164062 797.304688 L 240.234375 782.664062 L 269.597656 766.78125 L 297.003906 751.960938 L 326.703125 735.898438 L 355.859375 720.128906 L 383.058594 705.417969 L 412.550781 689.464844 L 440.082031 674.574219 L 467.074219 659.976562 L 496.359375 644.140625 L 523.6875 629.359375 L 553.308594 613.339844 L 582.386719 597.613281 L 609.503906 582.945312 L 638.917969 567.039062 L 666.371094 552.1875 L 696.121094 536.101562 L 725.328125 520.304688 L 752.574219 505.566406 L 782.117188 489.589844 L 809.699219 474.671875 L 836.738281 460.046875 L 866.070312 444.183594 L 893.445312 429.378906 L 923.117188 413.332031 L 952.242188 397.578125 L 979.410156 382.882812 L 1008.875 366.949219 L 1036.378906 352.074219 L 1063.339844 337.492188 L 1092.59375 321.671875 L 1119.890625 306.910156 L 1149.480469 290.90625 L 1177.109375 275.960938 L 1204.199219 261.308594 L 1233.582031 245.417969 L 1261.007812 230.585938 L 1290.722656 214.511719 L 1319.902344 198.734375 L 1347.117188 184.011719 L 1376.628906 168.054688 L 1404.179688 153.152344 L 1431.191406 138.542969 L 1460.496094 122.695312 L 1487.839844 107.90625 L 1489.746094 106.875 L 1491.65625 105.84375 L 1495.472656 103.777344 L 1503.101562 99.652344 L 1504.054688 99.136719 L 1505.011719 98.617188 L 1506.917969 97.585938 L 1510.734375 95.523438 L 1512.640625 94.492188 L 1514.550781 93.460938 L 1517.410156 91.914062 L 1517.886719 91.652344 L 1518.363281 91.394531 " transform="matrix(1,0,0,1,-99,-7.5)"/>
<path style="fill:none;stroke-width:3;stroke-linecap:square;stroke-linejoin:miter;stroke:rgb(88.072023%,61.104753%,14.204623%);stroke-opacity:1;stroke-miterlimit:3.25;" d="M 128.703125 842.328125 L 129.128906 842.511719 L 129.554688 842.207031 L 129.980469 841.914062 L 130.40625 841.613281 L 131.257812 840.980469 L 132.109375 840.351562 L 132.539062 840.03125 L 132.964844 839.707031 L 133.816406 839.0625 L 135.519531 837.761719 L 142.339844 832.5625 L 155.980469 822.203125 L 185.550781 800.226562 L 213.164062 780.738281 L 240.234375 763.046875 L 269.597656 745.898438 L 270.023438 745.664062 L 270.453125 745.433594 L 271.308594 744.972656 L 273.023438 744.054688 L 276.449219 742.246094 L 283.300781 738.738281 L 297.003906 732.175781 L 297.464844 731.964844 L 298.859375 731.332031 L 300.714844 730.503906 L 304.425781 728.878906 L 311.851562 725.769531 L 312.78125 725.394531 L 313.707031 725.023438 L 315.5625 724.289062 L 319.277344 722.855469 L 326.703125 720.136719 L 327.15625 719.976562 L 327.613281 719.816406 L 328.523438 719.5 L 330.347656 718.878906 L 333.992188 717.664062 L 341.28125 715.390625 L 341.734375 715.257812 L 342.191406 715.121094 L 343.101562 714.855469 L 344.925781 714.328125 L 348.570312 713.316406 L 355.859375 711.445312 L 356.710938 711.242188 L 357.558594 711.039062 L 359.257812 710.644531 L 362.660156 709.882812 L 363.085938 709.792969 L 363.507812 709.703125 L 364.359375 709.523438 L 366.058594 709.171875 L 369.457031 708.503906 L 369.882812 708.421875 L 370.308594 708.34375 L 371.160156 708.183594 L 372.859375 707.878906 L 376.257812 707.300781 L 376.683594 707.230469 L 377.109375 707.164062 L 377.957031 707.027344 L 379.65625 706.765625 L 383.058594 706.28125 L 383.980469 706.15625 L 384.902344 706.035156 L 386.746094 705.800781 L 387.207031 705.746094 L 387.664062 705.691406 L 388.585938 705.582031 L 390.890625 705.328125 L 392.273438 705.1875 L 394.117188 705.007812 L 395.039062 704.921875 L 395.960938 704.84375 L 397.804688 704.691406 L 399.648438 704.550781 L 401.492188 704.425781 L 402.414062 704.371094 L 403.332031 704.316406 L 405.175781 704.214844 L 405.636719 704.195312 L 406.097656 704.171875 L 407.941406 704.09375 L 408.863281 704.058594 L 409.785156 704.027344 L 410.246094 704.015625 L 410.707031 704 L 412.550781 703.953125 L 413.839844 703.929688 L 414.269531 703.925781 L 414.703125 703.917969 L 416.851562 703.898438 L 419.003906 703.898438 L 420.722656 703.914062 L 421.15625 703.917969 L 421.585938 703.921875 L 423.734375 703.960938 L 424.164062 703.972656 L 424.597656 703.984375 L 426.316406 704.03125 L 427.175781 704.0625 L 428.039062 704.09375 L 428.46875 704.109375 L 430.617188 704.207031 L 431.480469 704.25 L 433.199219 704.34375 L 434.058594 704.398438 L 434.921875 704.453125 L 436.640625 704.570312 L 437.070312 704.601562 L 437.503906 704.632812 L 438.363281 704.699219 L 440.082031 704.839844 L 440.925781 704.910156 L 441.769531 704.984375 L 443.457031 705.144531 L 446.832031 705.492188 L 447.675781 705.585938 L 448.519531 705.683594 L 450.203125 705.886719 L 453.578125 706.320312 L 454 706.375 L 455.265625 706.550781 L 456.953125 706.792969 L 460.328125 707.308594 L 467.074219 708.464844 L 467.988281 708.636719 L 468.90625 708.808594 L 470.734375 709.160156 L 474.394531 709.902344 L 481.71875 711.523438 L 482.175781 711.628906 L 483.546875 711.957031 L 485.378906 712.398438 L 489.039062 713.324219 L 496.359375 715.300781 L 496.789062 715.421875 L 498.066406 715.785156 L 499.777344 716.28125 L 503.191406 717.300781 L 510.023438 719.445312 L 523.6875 724.144531 L 524.148438 724.316406 L 524.613281 724.484375 L 525.539062 724.824219 L 527.390625 725.511719 L 531.089844 726.914062 L 538.496094 729.828125 L 553.308594 736.070312 L 582.386719 749.726562 L 609.503906 763.785156 L 638.917969 780.003906 L 666.371094 795.597656 L 696.121094 812.484375 L 725.328125 828.5625 L 752.574219 842.703125 L 782.117188 856.699219 L 809.699219 868.191406 L 810.542969 868.519531 L 811.386719 868.839844 L 813.078125 869.484375 L 816.457031 870.75 L 823.21875 873.195312 L 824.90625 873.789062 L 826.597656 874.375 L 829.976562 875.527344 L 836.738281 877.746094 L 837.195312 877.890625 L 837.652344 878.039062 L 838.570312 878.328125 L 840.40625 878.902344 L 844.070312 880.019531 L 851.40625 882.15625 L 851.863281 882.285156 L 852.320312 882.410156 L 853.238281 882.664062 L 855.070312 883.167969 L 858.738281 884.144531 L 866.070312 885.992188 L 866.5 886.09375 L 866.925781 886.199219 L 867.78125 886.402344 L 869.492188 886.804688 L 872.914062 887.582031 L 879.757812 889.042969 L 880.1875 889.132812 L 880.613281 889.21875 L 881.46875 889.390625 L 883.179688 889.726562 L 886.601562 890.378906 L 893.445312 891.578125 L 893.910156 891.65625 L 894.375 891.730469 L 895.300781 891.882812 L 897.15625 892.175781 L 900.863281 892.734375 L 901.328125 892.800781 L 901.792969 892.871094 L 902.71875 893 L 904.574219 893.257812 L 908.28125 893.738281 L 908.746094 893.796875 L 909.207031 893.851562 L 910.136719 893.964844 L 911.988281 894.183594 L 915.699219 894.585938 L 916.164062 894.636719 L 916.625 894.683594 L 917.554688 894.777344 L 919.40625 894.957031 L 923.117188 895.285156 L 923.570312 895.324219 L 924.027344 895.359375 L 924.9375 895.433594 L 926.757812 895.570312 L 927.210938 895.605469 L 927.667969 895.636719 L 928.578125 895.703125 L 930.398438 895.824219 L 930.851562 895.851562 L 931.308594 895.878906 L 932.21875 895.933594 L 934.039062 896.035156 L 934.496094 896.0625 L 934.949219 896.085938 L 937.679688 896.214844 L 938.136719 896.234375 L 938.589844 896.253906 L 939.5 896.289062 L 939.957031 896.308594 L 940.410156 896.324219 L 941.320312 896.355469 L 941.777344 896.371094 L 942.230469 896.386719 L 943.140625 896.414062 L 943.597656 896.429688 L 944.050781 896.441406 L 944.960938 896.464844 L 945.417969 896.476562 L 945.871094 896.484375 L 946.328125 896.496094 L 946.78125 896.503906 L 947.238281 896.511719 L 947.691406 896.519531 L 948.601562 896.535156 L 949.058594 896.542969 L 949.511719 896.546875 L 949.96875 896.554688 L 950.421875 896.558594 L 950.878906 896.5625 L 951.332031 896.566406 L 951.789062 896.570312 L 952.242188 896.570312 L 952.667969 896.574219 L 953.515625 896.574219 L 953.941406 896.578125 L 954.789062 896.578125 L 955.214844 896.574219 L 956.0625 896.574219 L 956.914062 896.566406 L 957.335938 896.5625 L 958.613281 896.550781 L 959.035156 896.546875 L 959.460938 896.539062 L 959.886719 896.535156 L 960.308594 896.527344 L 960.734375 896.519531 L 961.160156 896.515625 L 961.582031 896.507812 L 962.433594 896.488281 L 962.855469 896.480469 L 963.28125 896.46875 L 964.128906 896.449219 L 965.828125 896.402344 L 966.253906 896.390625 L 966.675781 896.375 L 967.527344 896.347656 L 969.222656 896.285156 L 969.648438 896.269531 L 970.074219 896.25 L 970.921875 896.214844 L 972.621094 896.140625 L 973.042969 896.121094 L 973.46875 896.097656 L 974.316406 896.054688 L 976.015625 895.964844 L 979.410156 895.761719 L 979.871094 895.734375 L 981.253906 895.640625 L 983.09375 895.511719 L 986.777344 895.226562 L 987.238281 895.191406 L 987.699219 895.152344 L 988.617188 895.074219 L 990.460938 894.910156 L 994.144531 894.5625 L 994.601562 894.519531 L 995.984375 894.378906 L 997.824219 894.183594 L 1001.507812 893.773438 L 1008.875 892.863281 L 1009.304688 892.804688 L 1009.734375 892.75 L 1012.3125 892.398438 L 1015.75 891.90625 L 1022.625 890.855469 L 1026.0625 890.292969 L 1029.5 889.707031 L 1036.378906 888.46875 L 1036.796875 888.386719 L 1037.21875 888.308594 L 1038.0625 888.148438 L 1039.746094 887.828125 L 1043.117188 887.167969 L 1049.859375 885.789062 L 1063.339844 882.8125 L 1063.796875 882.707031 L 1064.253906 882.597656 L 1065.167969 882.386719 L 1066.996094 881.957031 L 1070.652344 881.082031 L 1077.964844 879.277344 L 1092.59375 875.472656 L 1119.890625 867.804688 L 1149.480469 858.957031 L 1177.109375 850.527344 L 1204.199219 842.410156 L 1233.582031 834.089844 L 1261.007812 827.042969 L 1261.472656 826.933594 L 1261.933594 826.820312 L 1262.863281 826.597656 L 1264.722656 826.15625 L 1268.4375 825.285156 L 1275.867188 823.597656 L 1290.722656 820.453125 L 1291.179688 820.359375 L 1291.636719 820.269531 L 1292.546875 820.089844 L 1294.371094 819.730469 L 1298.019531 819.027344 L 1305.3125 817.679688 L 1305.769531 817.601562 L 1306.222656 817.519531 L 1307.136719 817.359375 L 1308.960938 817.039062 L 1312.605469 816.421875 L 1319.902344 815.246094 L 1320.328125 815.179688 L 1320.75 815.113281 L 1323.304688 814.726562 L 1326.707031 814.230469 L 1333.507812 813.292969 L 1333.933594 813.234375 L 1335.210938 813.070312 L 1336.910156 812.851562 L 1340.3125 812.433594 L 1347.117188 811.652344 L 1347.578125 811.605469 L 1348.039062 811.554688 L 1348.960938 811.457031 L 1350.808594 811.265625 L 1354.496094 810.902344 L 1356.339844 810.730469 L 1358.183594 810.5625 L 1361.875 810.246094 L 1362.335938 810.210938 L 1362.796875 810.171875 L 1363.71875 810.097656 L 1365.5625 809.957031 L 1369.25 809.6875 L 1370.171875 809.625 L 1371.097656 809.5625 L 1372.941406 809.445312 L 1376.628906 809.226562 L 1377.488281 809.179688 L 1378.351562 809.132812 L 1380.074219 809.046875 L 1380.503906 809.023438 L 1380.933594 809.003906 L 1381.796875 808.964844 L 1383.515625 808.886719 L 1383.949219 808.867188 L 1384.378906 808.847656 L 1385.238281 808.8125 L 1386.960938 808.746094 L 1387.820312 808.714844 L 1388.683594 808.683594 L 1390.40625 808.628906 L 1390.835938 808.617188 L 1391.265625 808.601562 L 1392.125 808.578125 L 1392.558594 808.566406 L 1393.847656 808.53125 L 1394.28125 808.523438 L 1394.710938 808.511719 L 1395.570312 808.492188 L 1397.292969 808.457031 L 1398.152344 808.441406 L 1399.015625 808.425781 L 1399.445312 808.421875 L 1399.875 808.414062 L 1400.738281 808.402344 L 1401.167969 808.398438 L 1401.597656 808.390625 L 1402.457031 808.382812 L 1402.890625 808.378906 L 1404.179688 808.367188 L 1404.601562 808.367188 L 1405.023438 808.363281 L 1405.445312 808.363281 L 1405.867188 808.359375 L 1406.289062 808.359375 L 1406.714844 808.355469 L 1409.246094 808.355469 L 1409.667969 808.359375 L 1410.089844 808.359375 L 1410.511719 808.363281 L 1410.933594 808.363281 L 1411.355469 808.367188 L 1411.777344 808.367188 L 1414.730469 808.394531 L 1415.152344 808.402344 L 1415.996094 808.410156 L 1416.839844 808.425781 L 1417.6875 808.4375 L 1420.21875 808.484375 L 1421.0625 808.503906 L 1421.484375 808.515625 L 1421.90625 808.523438 L 1422.75 808.542969 L 1425.28125 808.613281 L 1427.8125 808.695312 L 1431.191406 808.820312 L 1431.648438 808.839844 L 1432.105469 808.855469 L 1433.023438 808.894531 L 1434.855469 808.976562 L 1438.515625 809.15625 L 1438.976562 809.179688 L 1439.433594 809.203125 L 1440.347656 809.253906 L 1442.179688 809.355469 L 1445.84375 809.578125 L 1446.300781 809.609375 L 1446.757812 809.636719 L 1447.675781 809.699219 L 1449.507812 809.824219 L 1453.167969 810.085938 L 1460.496094 810.679688 L 1460.921875 810.714844 L 1461.347656 810.753906 L 1462.203125 810.828125 L 1463.914062 810.984375 L 1467.332031 811.304688 L 1474.167969 812 L 1474.59375 812.042969 L 1475.023438 812.089844 L 1475.875 812.183594 L 1477.585938 812.371094 L 1481.003906 812.757812 L 1487.839844 813.582031 L 1488.792969 813.699219 L 1489.746094 813.820312 L 1491.65625 814.066406 L 1495.472656 814.570312 L 1503.101562 815.636719 L 1503.578125 815.703125 L 1504.054688 815.773438 L 1505.011719 815.910156 L 1506.917969 816.191406 L 1510.734375 816.765625 L 1511.6875 816.914062 L 1512.640625 817.058594 L 1514.550781 817.355469 L 1515.027344 817.433594 L 1515.503906 817.507812 L 1516.457031 817.660156 L 1517.410156 817.808594 L 1518.363281 817.964844 " transform="matrix(1,0,0,1,-99,-7.5)"/>
<path style="fill:none;stroke-width:3;stroke-linecap:square;stroke-linejoin:miter;stroke:rgb(56.017395%,69.156939%,19.488823%);stroke-opacity:1;stroke-miterlimit:3.25;" d="M 128.703125 842.003906 L 129.128906 842.371094 L 129.554688 842.035156 L 129.980469 841.683594 L 130.40625 841.3125 L 130.832031 840.921875 L 132.109375 839.761719 L 132.539062 839.371094 L 132.964844 838.976562 L 133.816406 838.183594 L 135.519531 836.589844 L 142.339844 830.222656 L 155.980469 817.5625 L 185.550781 790.902344 L 213.164062 767.636719 L 240.234375 746.996094 L 241.148438 746.339844 L 242.066406 745.6875 L 243.902344 744.390625 L 247.574219 741.832031 L 254.914062 736.871094 L 269.597656 727.578125 L 270.023438 727.320312 L 270.453125 727.0625 L 271.308594 726.546875 L 273.023438 725.53125 L 276.449219 723.535156 L 283.300781 719.691406 L 283.726562 719.457031 L 284.15625 719.222656 L 285.011719 718.757812 L 286.726562 717.839844 L 290.152344 716.039062 L 297.003906 712.589844 L 297.464844 712.363281 L 297.929688 712.136719 L 298.859375 711.691406 L 300.714844 710.804688 L 304.425781 709.078125 L 311.851562 705.800781 L 312.316406 705.601562 L 312.78125 705.40625 L 313.707031 705.019531 L 315.5625 704.25 L 319.277344 702.761719 L 326.703125 699.957031 L 327.15625 699.792969 L 327.613281 699.628906 L 328.523438 699.304688 L 330.347656 698.667969 L 333.992188 697.433594 L 341.28125 695.136719 L 341.734375 695.003906 L 342.191406 694.867188 L 343.101562 694.597656 L 344.925781 694.074219 L 348.570312 693.0625 L 355.859375 691.210938 L 356.710938 691.007812 L 357.558594 690.808594 L 359.257812 690.417969 L 362.660156 689.675781 L 363.085938 689.585938 L 363.507812 689.496094 L 364.359375 689.320312 L 366.058594 688.976562 L 369.457031 688.324219 L 370.308594 688.167969 L 371.160156 688.015625 L 372.859375 687.71875 L 376.257812 687.15625 L 377.109375 687.023438 L 377.957031 686.890625 L 379.65625 686.636719 L 383.058594 686.164062 L 383.519531 686.105469 L 383.980469 686.042969 L 384.902344 685.925781 L 386.746094 685.699219 L 387.207031 685.644531 L 387.664062 685.59375 L 388.585938 685.488281 L 390.429688 685.285156 L 392.273438 685.097656 L 394.117188 684.921875 L 397.804688 684.605469 L 398.265625 684.570312 L 398.726562 684.53125 L 399.648438 684.464844 L 401.492188 684.335938 L 401.953125 684.304688 L 402.414062 684.277344 L 403.332031 684.21875 L 405.175781 684.113281 L 406.097656 684.066406 L 407.019531 684.023438 L 407.480469 684 L 409.785156 683.902344 L 411.628906 683.839844 L 412.550781 683.8125 L 412.980469 683.796875 L 413.410156 683.785156 L 413.839844 683.777344 L 414.269531 683.765625 L 414.703125 683.753906 L 416.851562 683.714844 L 417.28125 683.710938 L 417.710938 683.703125 L 418.144531 683.699219 L 419.863281 683.683594 L 420.722656 683.683594 L 421.15625 683.679688 L 422.445312 683.679688 L 422.875 683.683594 L 423.304688 683.683594 L 424.164062 683.691406 L 424.597656 683.695312 L 425.457031 683.703125 L 425.886719 683.710938 L 426.316406 683.714844 L 427.605469 683.738281 L 428.039062 683.746094 L 428.898438 683.761719 L 429.757812 683.78125 L 430.617188 683.804688 L 431.480469 683.832031 L 433.199219 683.886719 L 434.058594 683.917969 L 434.921875 683.953125 L 436.640625 684.023438 L 437.070312 684.042969 L 437.503906 684.0625 L 438.363281 684.105469 L 440.082031 684.195312 L 440.925781 684.242188 L 441.769531 684.292969 L 443.457031 684.398438 L 445.144531 684.507812 L 446.832031 684.628906 L 447.675781 684.691406 L 448.519531 684.757812 L 450.203125 684.890625 L 453.578125 685.183594 L 455.265625 685.339844 L 456.953125 685.503906 L 460.328125 685.855469 L 467.074219 686.632812 L 467.988281 686.75 L 468.90625 686.863281 L 470.734375 687.101562 L 474.394531 687.597656 L 481.71875 688.679688 L 482.175781 688.753906 L 482.632812 688.824219 L 483.546875 688.96875 L 485.378906 689.261719 L 489.039062 689.871094 L 496.359375 691.164062 L 496.789062 691.242188 L 497.214844 691.320312 L 498.066406 691.480469 L 499.777344 691.800781 L 503.191406 692.453125 L 510.023438 693.824219 L 523.6875 696.769531 L 553.308594 703.945312 L 582.386719 711.726562 L 609.503906 719.359375 L 638.917969 727.785156 L 666.371094 735.59375 L 696.121094 743.824219 L 725.328125 751.542969 L 752.574219 758.332031 L 782.117188 765.191406 L 809.699219 771.082031 L 836.738281 776.367188 L 866.070312 781.542969 L 893.445312 785.855469 L 923.117188 789.980469 L 952.242188 793.488281 L 979.410156 796.296875 L 980.332031 796.382812 L 981.253906 796.472656 L 983.09375 796.644531 L 986.777344 796.984375 L 994.144531 797.636719 L 1008.875 798.855469 L 1009.304688 798.886719 L 1009.734375 798.921875 L 1012.3125 799.121094 L 1015.75 799.382812 L 1022.625 799.878906 L 1023.484375 799.941406 L 1024.34375 800 L 1026.0625 800.121094 L 1029.5 800.355469 L 1036.378906 800.800781 L 1036.796875 800.828125 L 1038.0625 800.910156 L 1039.746094 801.011719 L 1043.117188 801.21875 L 1049.859375 801.605469 L 1050.277344 801.628906 L 1051.542969 801.699219 L 1053.226562 801.792969 L 1056.597656 801.972656 L 1063.339844 802.316406 L 1063.796875 802.335938 L 1064.253906 802.359375 L 1065.167969 802.402344 L 1066.996094 802.492188 L 1070.652344 802.660156 L 1077.964844 802.976562 L 1078.421875 802.992188 L 1079.792969 803.050781 L 1081.621094 803.121094 L 1085.28125 803.261719 L 1092.59375 803.523438 L 1093.445312 803.554688 L 1094.300781 803.582031 L 1096.003906 803.636719 L 1099.417969 803.742188 L 1099.84375 803.753906 L 1100.269531 803.769531 L 1101.125 803.792969 L 1102.828125 803.84375 L 1106.242188 803.9375 L 1107.09375 803.960938 L 1107.949219 803.984375 L 1109.652344 804.027344 L 1113.066406 804.109375 L 1113.492188 804.121094 L 1113.917969 804.128906 L 1114.773438 804.148438 L 1116.476562 804.1875 L 1119.890625 804.257812 L 1120.351562 804.265625 L 1120.8125 804.277344 L 1121.738281 804.292969 L 1123.589844 804.328125 L 1124.511719 804.34375 L 1125.4375 804.359375 L 1127.285156 804.390625 L 1127.75 804.398438 L 1128.210938 804.40625 L 1129.136719 804.421875 L 1130.984375 804.449219 L 1134.683594 804.496094 L 1135.148438 804.503906 L 1135.609375 804.507812 L 1136.535156 804.519531 L 1138.382812 804.539062 L 1138.847656 804.546875 L 1139.308594 804.550781 L 1140.234375 804.558594 L 1142.082031 804.578125 L 1142.542969 804.582031 L 1143.007812 804.585938 L 1143.929688 804.589844 L 1144.394531 804.59375 L 1144.855469 804.597656 L 1145.78125 804.605469 L 1146.242188 804.609375 L 1146.707031 804.613281 L 1147.628906 804.617188 L 1149.480469 804.628906 L 1149.910156 804.628906 L 1150.34375 804.632812 L 1151.207031 804.636719 L 1151.636719 804.636719 L 1152.070312 804.640625 L 1152.933594 804.640625 L 1153.367188 804.644531 L 1154.230469 804.644531 L 1154.660156 804.648438 L 1155.957031 804.648438 L 1156.386719 804.652344 L 1162.863281 804.652344 L 1163.296875 804.648438 L 1164.589844 804.648438 L 1165.023438 804.644531 L 1165.886719 804.644531 L 1166.75 804.640625 L 1167.179688 804.640625 L 1167.613281 804.636719 L 1168.476562 804.632812 L 1168.90625 804.632812 L 1169.339844 804.628906 L 1170.203125 804.625 L 1170.632812 804.621094 L 1171.066406 804.621094 L 1171.929688 804.617188 L 1172.363281 804.613281 L 1172.792969 804.609375 L 1173.65625 804.605469 L 1174.089844 804.601562 L 1174.519531 804.597656 L 1175.382812 804.589844 L 1177.109375 804.578125 L 1177.535156 804.574219 L 1177.957031 804.570312 L 1178.804688 804.5625 L 1180.496094 804.542969 L 1180.917969 804.539062 L 1181.34375 804.535156 L 1182.191406 804.523438 L 1183.882812 804.503906 L 1184.304688 804.5 L 1184.730469 804.496094 L 1185.574219 804.484375 L 1187.269531 804.460938 L 1190.65625 804.410156 L 1191.078125 804.402344 L 1191.5 804.398438 L 1192.347656 804.382812 L 1194.039062 804.355469 L 1197.425781 804.292969 L 1197.851562 804.285156 L 1198.273438 804.277344 L 1199.121094 804.257812 L 1200.8125 804.222656 L 1204.199219 804.152344 L 1204.660156 804.140625 L 1205.117188 804.128906 L 1206.035156 804.109375 L 1207.871094 804.0625 L 1211.546875 803.96875 L 1212.003906 803.957031 L 1212.464844 803.945312 L 1213.382812 803.921875 L 1215.21875 803.871094 L 1218.890625 803.761719 L 1219.351562 803.746094 L 1219.808594 803.734375 L 1220.726562 803.703125 L 1222.5625 803.644531 L 1226.238281 803.523438 L 1233.582031 803.257812 L 1234.441406 803.226562 L 1235.296875 803.191406 L 1237.011719 803.125 L 1240.4375 802.984375 L 1247.292969 802.683594 L 1248.152344 802.644531 L 1249.007812 802.605469 L 1254.152344 802.359375 L 1261.007812 802.003906 L 1261.472656 801.980469 L 1261.933594 801.957031 L 1264.722656 801.804688 L 1268.4375 801.59375 L 1275.867188 801.148438 L 1276.328125 801.121094 L 1276.792969 801.09375 L 1277.722656 801.035156 L 1279.582031 800.914062 L 1283.296875 800.671875 L 1290.722656 800.164062 L 1291.179688 800.132812 L 1291.636719 800.097656 L 1292.546875 800.035156 L 1294.371094 799.902344 L 1298.019531 799.632812 L 1305.3125 799.066406 L 1319.902344 797.828125 L 1320.328125 797.792969 L 1320.75 797.753906 L 1321.601562 797.675781 L 1323.304688 797.523438 L 1326.707031 797.207031 L 1333.507812 796.550781 L 1347.117188 795.136719 L 1347.578125 795.089844 L 1348.960938 794.9375 L 1350.808594 794.734375 L 1354.496094 794.316406 L 1361.875 793.453125 L 1376.628906 791.597656 L 1377.058594 791.542969 L 1377.488281 791.484375 L 1378.351562 791.371094 L 1380.074219 791.140625 L 1383.515625 790.671875 L 1390.40625 789.703125 L 1404.179688 787.636719 L 1431.191406 783.058594 L 1460.496094 777.1875 L 1487.839844 770.722656 L 1488.792969 770.480469 L 1489.746094 770.234375 L 1491.65625 769.738281 L 1495.472656 768.726562 L 1503.101562 766.640625 L 1504.054688 766.375 L 1505.011719 766.105469 L 1506.917969 765.5625 L 1510.734375 764.460938 L 1512.640625 763.898438 L 1514.550781 763.332031 L 1515.027344 763.1875 L 1515.503906 763.046875 L 1517.886719 762.324219 L 1518.363281 762.175781 " transform="matrix(1,0,0,1,-99,-7.5)"/>
<path style="fill:none;stroke-width:3;stroke-linecap:square;stroke-linejoin:miter;stroke:rgb(92.252995%,38.5626%,20.918593%);stroke-opacity:1;stroke-miterlimit:3.25;" d="M 128.703125 841.675781 L 129.128906 842.179688 L 129.554688 841.878906 L 129.980469 841.480469 L 130.40625 841.054688 L 130.832031 840.601562 L 131.257812 840.160156 L 132.109375 839.265625 L 132.539062 838.8125 L 133.816406 837.441406 L 135.519531 835.601562 L 135.945312 835.144531 L 136.375 834.683594 L 137.226562 833.765625 L 138.929688 831.925781 L 142.339844 828.253906 L 155.980469 813.648438 L 185.550781 783.007812 L 213.164062 756.484375 L 240.234375 733.203125 L 240.691406 732.832031 L 241.148438 732.464844 L 242.066406 731.734375 L 243.902344 730.285156 L 247.574219 727.425781 L 254.914062 721.898438 L 269.597656 711.605469 L 270.023438 711.320312 L 270.453125 711.035156 L 271.308594 710.472656 L 273.023438 709.351562 L 276.449219 707.15625 L 283.300781 702.941406 L 283.726562 702.683594 L 284.15625 702.429688 L 285.011719 701.921875 L 286.726562 700.917969 L 290.152344 698.957031 L 297.003906 695.203125 L 297.464844 694.960938 L 297.929688 694.714844 L 298.859375 694.226562 L 300.714844 693.269531 L 304.425781 691.402344 L 311.851562 687.871094 L 312.78125 687.449219 L 313.707031 687.03125 L 315.5625 686.207031 L 319.277344 684.609375 L 326.703125 681.617188 L 327.15625 681.441406 L 327.613281 681.269531 L 328.523438 680.921875 L 330.347656 680.246094 L 333.992188 678.9375 L 341.28125 676.503906 L 341.734375 676.359375 L 342.191406 676.21875 L 343.101562 675.933594 L 344.925781 675.378906 L 348.570312 674.316406 L 355.859375 672.367188 L 356.710938 672.15625 L 357.558594 671.949219 L 359.257812 671.539062 L 362.660156 670.761719 L 363.085938 670.667969 L 363.507812 670.574219 L 364.359375 670.390625 L 366.058594 670.03125 L 369.457031 669.351562 L 369.882812 669.269531 L 370.308594 669.191406 L 371.160156 669.03125 L 372.859375 668.71875 L 376.257812 668.136719 L 377.109375 667.996094 L 377.957031 667.859375 L 379.65625 667.597656 L 383.058594 667.105469 L 383.519531 667.039062 L 383.980469 666.976562 L 384.902344 666.855469 L 387.207031 666.5625 L 387.664062 666.507812 L 388.585938 666.398438 L 390.429688 666.1875 L 390.890625 666.140625 L 391.351562 666.089844 L 392.273438 665.992188 L 394.117188 665.808594 L 397.804688 665.476562 L 398.265625 665.441406 L 398.726562 665.402344 L 399.648438 665.332031 L 401.492188 665.195312 L 402.414062 665.132812 L 403.332031 665.074219 L 405.175781 664.960938 L 405.636719 664.9375 L 406.097656 664.910156 L 407.941406 664.816406 L 408.863281 664.773438 L 409.785156 664.734375 L 410.707031 664.699219 L 411.167969 664.679688 L 412.550781 664.632812 L 412.980469 664.621094 L 413.410156 664.605469 L 414.269531 664.582031 L 414.703125 664.570312 L 415.132812 664.5625 L 415.992188 664.542969 L 416.421875 664.53125 L 417.28125 664.515625 L 417.710938 664.511719 L 418.144531 664.503906 L 418.574219 664.496094 L 420.722656 664.476562 L 421.15625 664.476562 L 421.585938 664.472656 L 424.164062 664.472656 L 424.597656 664.476562 L 427.175781 664.5 L 427.605469 664.507812 L 428.039062 664.515625 L 430.1875 664.554688 L 430.617188 664.566406 L 431.480469 664.585938 L 432.339844 664.609375 L 433.199219 664.636719 L 433.628906 664.648438 L 434.058594 664.664062 L 434.921875 664.695312 L 436.640625 664.761719 L 437.070312 664.777344 L 437.503906 664.796875 L 438.363281 664.835938 L 440.082031 664.917969 L 440.503906 664.9375 L 440.925781 664.960938 L 441.769531 665.003906 L 443.457031 665.101562 L 443.878906 665.125 L 444.300781 665.152344 L 445.144531 665.203125 L 446.832031 665.316406 L 447.253906 665.34375 L 447.675781 665.375 L 448.519531 665.433594 L 450.203125 665.558594 L 453.578125 665.832031 L 454.421875 665.902344 L 455.265625 665.976562 L 456.953125 666.128906 L 460.328125 666.457031 L 467.074219 667.1875 L 467.53125 667.238281 L 467.988281 667.292969 L 468.90625 667.402344 L 470.734375 667.625 L 474.394531 668.089844 L 481.71875 669.101562 L 483.546875 669.367188 L 485.378906 669.644531 L 489.039062 670.210938 L 496.359375 671.414062 L 496.789062 671.488281 L 498.066406 671.710938 L 499.777344 672.007812 L 503.191406 672.617188 L 510.023438 673.890625 L 523.6875 676.621094 L 553.308594 683.238281 L 582.386719 690.386719 L 609.503906 697.386719 L 638.917969 705.132812 L 666.371094 712.355469 L 696.121094 720.039062 L 725.328125 727.34375 L 752.574219 733.890625 L 782.117188 740.648438 L 809.699219 746.625 L 836.738281 752.160156 L 866.070312 757.796875 L 893.445312 762.722656 L 923.117188 767.703125 L 952.242188 772.253906 L 979.410156 776.203125 L 1008.875 780.183594 L 1036.378906 783.636719 L 1063.339844 786.792969 L 1092.59375 789.972656 L 1119.890625 792.726562 L 1149.480469 795.5 L 1177.109375 797.90625 L 1204.199219 800.101562 L 1233.582031 802.316406 L 1261.007812 804.242188 L 1290.722656 806.1875 L 1319.902344 807.957031 L 1347.117188 809.5 L 1376.628906 811.0625 L 1404.179688 812.425781 L 1431.191406 813.679688 L 1460.496094 814.957031 L 1487.839844 816.074219 L 1488.316406 816.089844 L 1489.746094 816.148438 L 1491.65625 816.222656 L 1495.472656 816.371094 L 1503.101562 816.667969 L 1503.578125 816.683594 L 1504.054688 816.703125 L 1505.011719 816.738281 L 1506.917969 816.8125 L 1510.734375 816.957031 L 1511.210938 816.976562 L 1511.6875 816.992188 L 1512.640625 817.027344 L 1514.550781 817.101562 L 1515.027344 817.117188 L 1515.503906 817.136719 L 1516.457031 817.171875 L 1516.933594 817.1875 L 1517.410156 817.207031 L 1517.886719 817.222656 L 1518.363281 817.242188 " transform="matrix(1,0,0,1,-99,-7.5)"/>
<path style="fill:none;stroke-width:3;stroke-linecap:square;stroke-linejoin:miter;stroke:rgb(52.848096%,47.061875%,70.135042%);stroke-opacity:1;stroke-miterlimit:3.25;" d="M 128.703125 841.347656 L 129.128906 841.945312 L 129.554688 841.726562 L 129.980469 841.300781 L 130.40625 840.824219 L 130.832031 840.320312 L 131.257812 839.828125 L 132.109375 838.828125 L 132.539062 838.320312 L 133.816406 836.785156 L 135.519531 834.730469 L 135.945312 834.21875 L 136.375 833.703125 L 138.929688 830.621094 L 142.339844 826.515625 L 155.980469 810.199219 L 185.550781 776.035156 L 213.164062 746.601562 L 240.234375 720.933594 L 241.148438 720.128906 L 242.066406 719.324219 L 243.902344 717.730469 L 247.574219 714.597656 L 254.914062 708.546875 L 269.597656 697.3125 L 270.023438 697.003906 L 270.453125 696.695312 L 271.308594 696.082031 L 273.023438 694.863281 L 276.449219 692.480469 L 283.300781 687.90625 L 283.726562 687.628906 L 284.15625 687.351562 L 285.011719 686.804688 L 286.726562 685.714844 L 290.152344 683.59375 L 297.003906 679.542969 L 297.464844 679.277344 L 297.929688 679.015625 L 298.859375 678.488281 L 300.714844 677.457031 L 304.425781 675.445312 L 311.851562 671.652344 L 312.78125 671.199219 L 313.707031 670.753906 L 315.5625 669.871094 L 319.277344 668.160156 L 326.703125 664.960938 L 327.15625 664.773438 L 327.613281 664.585938 L 328.523438 664.21875 L 330.347656 663.496094 L 333.992188 662.101562 L 341.28125 659.511719 L 341.734375 659.359375 L 342.191406 659.207031 L 343.101562 658.90625 L 344.925781 658.320312 L 348.570312 657.191406 L 355.859375 655.125 L 356.285156 655.015625 L 356.710938 654.902344 L 357.558594 654.683594 L 359.257812 654.25 L 362.660156 653.425781 L 363.085938 653.328125 L 363.507812 653.230469 L 364.359375 653.035156 L 366.058594 652.65625 L 369.457031 651.941406 L 370.308594 651.769531 L 371.160156 651.601562 L 372.859375 651.273438 L 376.257812 650.65625 L 376.683594 650.582031 L 377.109375 650.511719 L 377.957031 650.367188 L 379.65625 650.089844 L 383.058594 649.570312 L 383.980469 649.4375 L 384.902344 649.308594 L 386.746094 649.0625 L 387.207031 649 L 387.664062 648.941406 L 388.585938 648.828125 L 390.429688 648.605469 L 390.890625 648.554688 L 391.351562 648.5 L 392.273438 648.398438 L 394.117188 648.207031 L 397.804688 647.855469 L 398.726562 647.777344 L 399.648438 647.703125 L 401.492188 647.558594 L 401.953125 647.523438 L 402.414062 647.492188 L 403.332031 647.429688 L 405.175781 647.3125 L 406.097656 647.257812 L 407.019531 647.207031 L 407.480469 647.179688 L 407.941406 647.15625 L 408.863281 647.113281 L 409.324219 647.089844 L 410.707031 647.03125 L 412.550781 646.960938 L 413.410156 646.929688 L 414.269531 646.90625 L 414.703125 646.890625 L 415.132812 646.878906 L 415.992188 646.859375 L 416.421875 646.851562 L 416.851562 646.839844 L 417.710938 646.824219 L 418.144531 646.816406 L 418.574219 646.808594 L 419.003906 646.804688 L 419.433594 646.796875 L 420.722656 646.785156 L 421.15625 646.78125 L 421.585938 646.78125 L 422.015625 646.777344 L 424.597656 646.777344 L 425.886719 646.789062 L 426.316406 646.789062 L 426.746094 646.796875 L 427.605469 646.804688 L 428.039062 646.8125 L 428.46875 646.820312 L 428.898438 646.824219 L 429.757812 646.84375 L 430.617188 646.859375 L 431.480469 646.882812 L 431.910156 646.890625 L 432.339844 646.902344 L 433.199219 646.929688 L 433.628906 646.941406 L 434.058594 646.957031 L 434.921875 646.984375 L 436.640625 647.050781 L 437.070312 647.066406 L 437.503906 647.085938 L 440.082031 647.203125 L 440.503906 647.226562 L 440.925781 647.246094 L 443.457031 647.386719 L 443.878906 647.414062 L 444.300781 647.4375 L 447.253906 647.628906 L 447.675781 647.660156 L 448.519531 647.71875 L 450.203125 647.84375 L 453.578125 648.117188 L 454.421875 648.1875 L 455.265625 648.261719 L 456.953125 648.417969 L 460.328125 648.742188 L 467.074219 649.476562 L 467.53125 649.527344 L 467.988281 649.582031 L 468.90625 649.691406 L 470.734375 649.914062 L 474.394531 650.378906 L 481.71875 651.394531 L 483.546875 651.660156 L 485.378906 651.9375 L 489.039062 652.503906 L 496.359375 653.710938 L 496.789062 653.785156 L 497.214844 653.859375 L 498.066406 654.003906 L 499.777344 654.304688 L 503.191406 654.914062 L 510.023438 656.183594 L 523.6875 658.910156 L 553.308594 665.507812 L 582.386719 672.617188 L 609.503906 679.582031 L 638.917969 687.289062 L 666.371094 694.480469 L 696.121094 702.160156 L 725.328125 709.488281 L 752.574219 716.089844 L 782.117188 722.941406 L 809.699219 729.039062 L 836.738281 734.726562 L 866.070312 740.5625 L 893.445312 745.707031 L 923.117188 750.953125 L 952.242188 755.789062 L 979.410156 760.03125 L 1008.875 764.347656 L 1036.378906 768.132812 L 1063.339844 771.621094 L 1092.59375 775.175781 L 1119.890625 778.289062 L 1149.480469 781.457031 L 1177.109375 784.234375 L 1204.199219 786.792969 L 1233.582031 789.40625 L 1261.007812 791.699219 L 1290.722656 794.035156 L 1319.902344 796.191406 L 1347.117188 798.085938 L 1376.628906 800.023438 L 1404.179688 801.726562 L 1431.191406 803.308594 L 1460.496094 804.929688 L 1487.839844 806.359375 L 1489.746094 806.453125 L 1491.65625 806.550781 L 1495.472656 806.742188 L 1503.101562 807.125 L 1504.054688 807.171875 L 1505.011719 807.21875 L 1506.917969 807.3125 L 1510.734375 807.496094 L 1512.640625 807.589844 L 1514.550781 807.683594 L 1515.027344 807.707031 L 1515.503906 807.726562 L 1518.363281 807.867188 " transform="matrix(1,0,0,1,-99,-7.5)"/>
<path style="fill:none;stroke-width:3;stroke-linecap:square;stroke-linejoin:miter;stroke:rgb(77.207599%,43.155566%,10.238804%);stroke-opacity:1;stroke-miterlimit:3.25;" d="M 128.703125 841.019531 L 129.128906 841.75 L 129.554688 841.578125 L 129.980469 841.128906 L 130.40625 840.613281 L 130.832031 840.066406 L 131.257812 839.527344 L 132.109375 838.429688 L 132.539062 837.875 L 132.964844 837.316406 L 133.816406 836.195312 L 135.945312 833.382812 L 136.375 832.820312 L 137.226562 831.695312 L 138.929688 829.441406 L 142.339844 824.945312 L 155.980469 807.078125 L 185.550781 769.722656 L 213.164062 737.644531 L 240.234375 709.78125 L 241.148438 708.90625 L 242.066406 708.039062 L 243.902344 706.316406 L 247.574219 702.925781 L 254.914062 696.386719 L 269.597656 684.28125 L 270.023438 683.945312 L 270.453125 683.613281 L 271.308594 682.953125 L 273.023438 681.644531 L 276.449219 679.078125 L 283.300781 674.167969 L 283.726562 673.871094 L 284.15625 673.574219 L 285.011719 672.984375 L 286.726562 671.820312 L 290.152344 669.542969 L 297.003906 665.207031 L 297.464844 664.921875 L 298.859375 664.078125 L 300.714844 662.976562 L 304.425781 660.828125 L 311.851562 656.777344 L 312.78125 656.292969 L 313.707031 655.816406 L 315.5625 654.875 L 319.277344 653.054688 L 326.703125 649.652344 L 327.15625 649.453125 L 327.613281 649.253906 L 328.523438 648.863281 L 330.347656 648.09375 L 333.992188 646.613281 L 341.28125 643.867188 L 341.734375 643.703125 L 342.191406 643.542969 L 343.101562 643.226562 L 344.925781 642.601562 L 348.570312 641.40625 L 355.859375 639.222656 L 356.710938 638.988281 L 357.558594 638.753906 L 359.257812 638.296875 L 362.660156 637.429688 L 363.085938 637.324219 L 363.507812 637.21875 L 364.359375 637.015625 L 366.058594 636.617188 L 369.457031 635.859375 L 369.882812 635.765625 L 370.308594 635.675781 L 371.160156 635.5 L 372.859375 635.15625 L 376.257812 634.503906 L 376.683594 634.425781 L 377.109375 634.351562 L 377.957031 634.199219 L 379.65625 633.90625 L 383.058594 633.359375 L 383.980469 633.21875 L 384.902344 633.082031 L 386.746094 632.824219 L 387.207031 632.757812 L 387.664062 632.699219 L 388.585938 632.574219 L 390.429688 632.34375 L 392.273438 632.125 L 394.117188 631.921875 L 397.804688 631.554688 L 398.726562 631.46875 L 399.648438 631.390625 L 401.492188 631.238281 L 402.414062 631.167969 L 403.332031 631.101562 L 405.175781 630.976562 L 405.636719 630.949219 L 406.097656 630.917969 L 407.019531 630.863281 L 407.480469 630.839844 L 407.941406 630.8125 L 409.785156 630.71875 L 410.707031 630.679688 L 412.550781 630.605469 L 413.410156 630.574219 L 414.269531 630.546875 L 414.703125 630.53125 L 416.421875 630.484375 L 417.28125 630.46875 L 417.710938 630.457031 L 418.144531 630.449219 L 418.574219 630.441406 L 419.003906 630.4375 L 419.433594 630.429688 L 419.863281 630.425781 L 420.292969 630.417969 L 420.722656 630.414062 L 421.15625 630.410156 L 421.585938 630.410156 L 422.015625 630.40625 L 422.445312 630.40625 L 422.875 630.402344 L 424.164062 630.402344 L 424.597656 630.40625 L 425.027344 630.40625 L 425.886719 630.414062 L 426.316406 630.414062 L 426.746094 630.421875 L 427.605469 630.429688 L 428.039062 630.4375 L 428.46875 630.441406 L 429.757812 630.464844 L 430.1875 630.476562 L 430.617188 630.484375 L 431.480469 630.503906 L 432.339844 630.527344 L 433.199219 630.554688 L 433.628906 630.566406 L 434.058594 630.582031 L 434.921875 630.609375 L 435.78125 630.640625 L 436.640625 630.675781 L 437.070312 630.691406 L 437.503906 630.710938 L 438.363281 630.75 L 440.082031 630.832031 L 440.503906 630.855469 L 440.925781 630.875 L 441.769531 630.921875 L 443.457031 631.019531 L 443.878906 631.042969 L 445.144531 631.125 L 446.832031 631.238281 L 447.253906 631.265625 L 448.519531 631.359375 L 450.203125 631.484375 L 454 631.800781 L 454.421875 631.839844 L 455.265625 631.914062 L 456.953125 632.070312 L 460.328125 632.40625 L 467.074219 633.15625 L 467.988281 633.265625 L 468.90625 633.375 L 470.734375 633.605469 L 474.394531 634.082031 L 481.71875 635.121094 L 482.175781 635.1875 L 482.632812 635.257812 L 483.546875 635.394531 L 485.378906 635.675781 L 489.039062 636.257812 L 496.359375 637.492188 L 496.789062 637.566406 L 497.214844 637.644531 L 498.066406 637.792969 L 499.777344 638.097656 L 503.191406 638.722656 L 510.023438 640.023438 L 523.6875 642.808594 L 553.308594 649.542969 L 582.386719 656.800781 L 609.503906 663.898438 L 638.917969 671.757812 L 666.371094 679.101562 L 696.121094 686.949219 L 725.328125 694.453125 L 752.574219 701.226562 L 782.117188 708.28125 L 809.699219 714.574219 L 836.738281 720.460938 L 866.070312 726.523438 L 893.445312 731.886719 L 923.117188 737.382812 L 952.242188 742.464844 L 979.410156 746.941406 L 1008.875 751.519531 L 1036.378906 755.550781 L 1063.339844 759.28125 L 1092.59375 763.097656 L 1119.890625 766.457031 L 1149.480469 769.890625 L 1177.109375 772.914062 L 1204.199219 775.714844 L 1233.582031 778.582031 L 1261.007812 781.113281 L 1290.722656 783.699219 L 1319.902344 786.097656 L 1347.117188 788.214844 L 1376.628906 790.390625 L 1404.179688 792.3125 L 1431.191406 794.101562 L 1460.496094 795.945312 L 1487.839844 797.574219 L 1488.316406 797.605469 L 1489.746094 797.6875 L 1491.65625 797.796875 L 1495.472656 798.015625 L 1503.101562 798.453125 L 1504.054688 798.507812 L 1505.011719 798.558594 L 1506.917969 798.667969 L 1510.734375 798.882812 L 1511.210938 798.90625 L 1512.640625 798.988281 L 1514.550781 799.09375 L 1515.027344 799.121094 L 1515.503906 799.144531 L 1516.933594 799.226562 L 1517.410156 799.25 L 1518.363281 799.304688 " transform="matrix(1,0,0,1,-99,-7.5)"/>
<path style="fill:none;stroke-width:3;stroke-linecap:square;stroke-linejoin:miter;stroke:rgb(36.389715%,61.849393%,78.234531%);stroke-opacity:1;stroke-miterlimit:3.25;" d="M 128.703125 840.691406 L 129.128906 841.59375 L 129.554688 841.425781 L 129.980469 840.964844 L 130.40625 840.414062 L 130.832031 839.828125 L 131.257812 839.246094 L 132.109375 838.0625 L 132.539062 837.464844 L 133.816406 835.648438 L 135.519531 833.21875 L 135.945312 832.613281 L 136.375 832.003906 L 137.226562 830.789062 L 138.929688 828.355469 L 142.339844 823.5 L 155.980469 804.210938 L 185.550781 763.914062 L 213.164062 729.386719 L 240.234375 699.488281 L 241.148438 698.550781 L 242.066406 697.621094 L 243.902344 695.777344 L 247.574219 692.148438 L 254.914062 685.15625 L 269.597656 672.222656 L 270.023438 671.867188 L 270.453125 671.515625 L 271.308594 670.808594 L 273.023438 669.414062 L 276.449219 666.679688 L 283.300781 661.449219 L 283.726562 661.132812 L 284.15625 660.816406 L 285.011719 660.1875 L 286.726562 658.949219 L 290.152344 656.527344 L 297.003906 651.917969 L 297.464844 651.617188 L 297.929688 651.316406 L 298.859375 650.722656 L 300.714844 649.546875 L 304.425781 647.265625 L 311.851562 642.972656 L 312.316406 642.714844 L 312.78125 642.460938 L 313.707031 641.953125 L 315.5625 640.957031 L 319.277344 639.027344 L 326.703125 635.425781 L 327.15625 635.214844 L 327.613281 635.007812 L 328.523438 634.59375 L 330.347656 633.78125 L 333.992188 632.214844 L 341.28125 629.316406 L 341.734375 629.144531 L 342.191406 628.972656 L 343.101562 628.636719 L 344.925781 627.980469 L 348.570312 626.71875 L 355.859375 624.417969 L 356.710938 624.167969 L 357.558594 623.921875 L 359.257812 623.441406 L 362.660156 622.527344 L 363.085938 622.417969 L 363.507812 622.308594 L 364.359375 622.09375 L 366.058594 621.671875 L 369.457031 620.875 L 369.882812 620.777344 L 371.160156 620.496094 L 372.859375 620.132812 L 376.257812 619.449219 L 376.683594 619.367188 L 377.109375 619.289062 L 377.957031 619.128906 L 379.65625 618.820312 L 383.058594 618.246094 L 383.519531 618.171875 L 383.980469 618.101562 L 384.902344 617.957031 L 386.746094 617.683594 L 387.207031 617.617188 L 387.664062 617.550781 L 388.585938 617.421875 L 390.429688 617.179688 L 391.351562 617.0625 L 392.273438 616.949219 L 394.117188 616.734375 L 397.804688 616.347656 L 399.648438 616.175781 L 401.492188 616.015625 L 402.414062 615.945312 L 403.332031 615.871094 L 405.175781 615.742188 L 406.097656 615.679688 L 407.941406 615.570312 L 408.863281 615.519531 L 410.707031 615.425781 L 412.550781 615.347656 L 414.269531 615.285156 L 414.703125 615.273438 L 415.132812 615.257812 L 416.851562 615.210938 L 417.28125 615.203125 L 417.710938 615.191406 L 418.144531 615.183594 L 419.003906 615.167969 L 419.433594 615.164062 L 419.863281 615.15625 L 420.722656 615.148438 L 421.15625 615.144531 L 422.445312 615.132812 L 424.597656 615.132812 L 425.027344 615.136719 L 425.457031 615.136719 L 427.605469 615.15625 L 428.039062 615.164062 L 428.46875 615.171875 L 428.898438 615.175781 L 429.757812 615.195312 L 430.617188 615.210938 L 431.480469 615.234375 L 433.199219 615.28125 L 433.628906 615.296875 L 434.058594 615.308594 L 434.921875 615.339844 L 435.78125 615.371094 L 436.640625 615.40625 L 437.070312 615.425781 L 437.503906 615.445312 L 438.363281 615.484375 L 440.082031 615.570312 L 440.503906 615.589844 L 441.769531 615.660156 L 443.457031 615.761719 L 443.878906 615.789062 L 444.300781 615.8125 L 445.144531 615.871094 L 446.832031 615.984375 L 448.519531 616.109375 L 450.203125 616.242188 L 453.578125 616.527344 L 455.265625 616.683594 L 456.953125 616.847656 L 460.328125 617.191406 L 467.074219 617.964844 L 467.53125 618.019531 L 467.988281 618.078125 L 468.90625 618.191406 L 470.734375 618.429688 L 474.394531 618.921875 L 481.71875 619.992188 L 482.632812 620.132812 L 483.546875 620.277344 L 485.378906 620.566406 L 489.039062 621.167969 L 496.359375 622.441406 L 496.789062 622.519531 L 497.214844 622.59375 L 498.066406 622.75 L 499.777344 623.066406 L 503.191406 623.710938 L 510.023438 625.050781 L 523.6875 627.921875 L 553.308594 634.859375 L 582.386719 642.328125 L 609.503906 649.632812 L 638.917969 657.71875 L 666.371094 665.28125 L 696.121094 673.367188 L 725.328125 681.109375 L 752.574219 688.101562 L 782.117188 695.398438 L 809.699219 701.921875 L 836.738281 708.03125 L 866.070312 714.339844 L 893.445312 719.929688 L 923.117188 725.671875 L 952.242188 730.996094 L 979.410156 735.695312 L 1008.875 740.511719 L 1036.378906 744.761719 L 1063.339844 748.707031 L 1092.59375 752.753906 L 1119.890625 756.320312 L 1149.480469 759.980469 L 1177.109375 763.207031 L 1204.199219 766.207031 L 1233.582031 769.285156 L 1261.007812 772.007812 L 1290.722656 774.796875 L 1319.902344 777.390625 L 1347.117188 779.6875 L 1376.628906 782.046875 L 1404.179688 784.140625 L 1431.191406 786.09375 L 1460.496094 788.109375 L 1487.839844 789.902344 L 1488.316406 789.929688 L 1489.746094 790.023438 L 1491.65625 790.144531 L 1495.472656 790.386719 L 1503.101562 790.863281 L 1503.578125 790.894531 L 1504.054688 790.921875 L 1505.011719 790.980469 L 1506.917969 791.101562 L 1510.734375 791.335938 L 1511.210938 791.363281 L 1511.6875 791.394531 L 1512.640625 791.453125 L 1514.550781 791.570312 L 1515.503906 791.625 L 1516.457031 791.683594 L 1516.933594 791.714844 L 1517.410156 791.742188 L 1517.886719 791.773438 L 1518.363281 791.800781 " transform="matrix(1,0,0,1,-99,-7.5)"/>
<path style="fill:none;stroke-width:0.3;stroke-linecap:butt;stroke-linejoin:miter;stroke:rgb(0%,0%,0%);stroke-opacity:1;stroke-miterlimit:3.25;" d="M 128.703125 842.984375 L 128.703125 838.984375 " transform="matrix(1,0,0,1,-99,-7.5)"/>
<path style="fill:none;stroke-width:0.3;stroke-linecap:butt;stroke-linejoin:miter;stroke:rgb(0%,0%,0%);stroke-opacity:1;stroke-miterlimit:3.25;" d="M 198.367188 842.984375 L 198.367188 840.585938 " transform="matrix(1,0,0,1,-99,-7.5)"/>
<path style="fill:none;stroke-width:0.3;stroke-linecap:butt;stroke-linejoin:miter;stroke:rgb(0%,0%,0%);stroke-opacity:1;stroke-miterlimit:3.25;" d="M 268.035156 842.984375 L 268.035156 840.585938 " transform="matrix(1,0,0,1,-99,-7.5)"/>
<path style="fill:none;stroke-width:0.3;stroke-linecap:butt;stroke-linejoin:miter;stroke:rgb(0%,0%,0%);stroke-opacity:1;stroke-miterlimit:3.25;" d="M 337.703125 842.984375 L 337.703125 840.585938 " transform="matrix(1,0,0,1,-99,-7.5)"/>
<path style="fill:none;stroke-width:0.3;stroke-linecap:butt;stroke-linejoin:miter;stroke:rgb(0%,0%,0%);stroke-opacity:1;stroke-miterlimit:3.25;" d="M 407.371094 842.984375 L 407.371094 840.585938 " transform="matrix(1,0,0,1,-99,-7.5)"/>
<path style="fill:none;stroke-width:0.3;stroke-linecap:butt;stroke-linejoin:miter;stroke:rgb(0%,0%,0%);stroke-opacity:1;stroke-miterlimit:3.25;" d="M 477.039062 842.984375 L 477.039062 838.984375 " transform="matrix(1,0,0,1,-99,-7.5)"/>
<g style="fill:rgb(0%,0%,0%);fill-opacity:1;">
  <use xlink:href="#glyph0-1" x="372.198653" y="858.994844"/>
</g>
<path style="fill:none;stroke-width:0.3;stroke-linecap:butt;stroke-linejoin:miter;stroke:rgb(0%,0%,0%);stroke-opacity:1;stroke-miterlimit:3.25;" d="M 546.707031 842.984375 L 546.707031 840.585938 " transform="matrix(1,0,0,1,-99,-7.5)"/>
<path style="fill:none;stroke-width:0.3;stroke-linecap:butt;stroke-linejoin:miter;stroke:rgb(0%,0%,0%);stroke-opacity:1;stroke-miterlimit:3.25;" d="M 616.371094 842.984375 L 616.371094 840.585938 " transform="matrix(1,0,0,1,-99,-7.5)"/>
<path style="fill:none;stroke-width:0.3;stroke-linecap:butt;stroke-linejoin:miter;stroke:rgb(0%,0%,0%);stroke-opacity:1;stroke-miterlimit:3.25;" d="M 686.039062 842.984375 L 686.039062 840.585938 " transform="matrix(1,0,0,1,-99,-7.5)"/>
<path style="fill:none;stroke-width:0.3;stroke-linecap:butt;stroke-linejoin:miter;stroke:rgb(0%,0%,0%);stroke-opacity:1;stroke-miterlimit:3.25;" d="M 755.707031 842.984375 L 755.707031 840.585938 " transform="matrix(1,0,0,1,-99,-7.5)"/>
<path style="fill:none;stroke-width:0.3;stroke-linecap:butt;stroke-linejoin:miter;stroke:rgb(0%,0%,0%);stroke-opacity:1;stroke-miterlimit:3.25;" d="M 825.375 842.984375 L 825.375 838.984375 " transform="matrix(1,0,0,1,-99,-7.5)"/>
<g style="fill:rgb(0%,0%,0%);fill-opacity:1;">
  <use xlink:href="#glyph0-2" x="720.535588" y="858.994844"/>
</g>
<path style="fill:none;stroke-width:0.3;stroke-linecap:butt;stroke-linejoin:miter;stroke:rgb(0%,0%,0%);stroke-opacity:1;stroke-miterlimit:3.25;" d="M 895.042969 842.984375 L 895.042969 840.585938 " transform="matrix(1,0,0,1,-99,-7.5)"/>
<path style="fill:none;stroke-width:0.3;stroke-linecap:butt;stroke-linejoin:miter;stroke:rgb(0%,0%,0%);stroke-opacity:1;stroke-miterlimit:3.25;" d="M 964.710938 842.984375 L 964.710938 840.585938 " transform="matrix(1,0,0,1,-99,-7.5)"/>
<path style="fill:none;stroke-width:0.3;stroke-linecap:butt;stroke-linejoin:miter;stroke:rgb(0%,0%,0%);stroke-opacity:1;stroke-miterlimit:3.25;" d="M 1034.378906 842.984375 L 1034.378906 840.585938 " transform="matrix(1,0,0,1,-99,-7.5)"/>
<path style="fill:none;stroke-width:0.3;stroke-linecap:butt;stroke-linejoin:miter;stroke:rgb(0%,0%,0%);stroke-opacity:1;stroke-miterlimit:3.25;" d="M 1104.042969 842.984375 L 1104.042969 840.585938 " transform="matrix(1,0,0,1,-99,-7.5)"/>
<path style="fill:none;stroke-width:0.3;stroke-linecap:butt;stroke-linejoin:miter;stroke:rgb(0%,0%,0%);stroke-opacity:1;stroke-miterlimit:3.25;" d="M 1173.710938 842.984375 L 1173.710938 838.984375 " transform="matrix(1,0,0,1,-99,-7.5)"/>
<g style="fill:rgb(0%,0%,0%);fill-opacity:1;">
  <use xlink:href="#glyph0-3" x="1068.872522" y="858.994844"/>
</g>
<path style="fill:none;stroke-width:0.3;stroke-linecap:butt;stroke-linejoin:miter;stroke:rgb(0%,0%,0%);stroke-opacity:1;stroke-miterlimit:3.25;" d="M 1243.378906 842.984375 L 1243.378906 840.585938 " transform="matrix(1,0,0,1,-99,-7.5)"/>
<path style="fill:none;stroke-width:0.3;stroke-linecap:butt;stroke-linejoin:miter;stroke:rgb(0%,0%,0%);stroke-opacity:1;stroke-miterlimit:3.25;" d="M 1313.046875 842.984375 L 1313.046875 840.585938 " transform="matrix(1,0,0,1,-99,-7.5)"/>
<path style="fill:none;stroke-width:0.3;stroke-linecap:butt;stroke-linejoin:miter;stroke:rgb(0%,0%,0%);stroke-opacity:1;stroke-miterlimit:3.25;" d="M 1382.714844 842.984375 L 1382.714844 840.585938 " transform="matrix(1,0,0,1,-99,-7.5)"/>
<path style="fill:none;stroke-width:0.3;stroke-linecap:butt;stroke-linejoin:miter;stroke:rgb(0%,0%,0%);stroke-opacity:1;stroke-miterlimit:3.25;" d="M 1452.382812 842.984375 L 1452.382812 840.585938 " transform="matrix(1,0,0,1,-99,-7.5)"/>
<path style="fill:none;stroke-width:0.3;stroke-linecap:butt;stroke-linejoin:miter;stroke:rgb(0%,0%,0%);stroke-opacity:1;stroke-miterlimit:3.25;" d="M 1522.050781 842.984375 L 1522.050781 838.984375 " transform="matrix(1,0,0,1,-99,-7.5)"/>
<g style="fill:rgb(0%,0%,0%);fill-opacity:1;">
  <use xlink:href="#glyph0-4" x="1417.209456" y="858.994844"/>
</g>
<path style="fill:none;stroke-width:0.3;stroke-linecap:square;stroke-linejoin:miter;stroke:rgb(40%,40%,40%);stroke-opacity:1;stroke-miterlimit:3.25;" d="M 99.75 842.984375 L 1547.316406 842.984375 " transform="matrix(1,0,0,1,-99,-7.5)"/>
<g style="fill:rgb(0%,0%,0%);fill-opacity:1;">
  <use xlink:href="#glyph1-1" x="1460.315918" y="844.330293"/>
</g>
<path style="fill:none;stroke-width:0.3;stroke-linecap:butt;stroke-linejoin:miter;stroke:rgb(0%,0%,0%);stroke-opacity:1;stroke-miterlimit:3.25;" d="M 128.703125 938.644531 L 131.101562 938.644531 " transform="matrix(1,0,0,1,-99,-7.5)"/>
<path style="fill:none;stroke-width:0.3;stroke-linecap:butt;stroke-linejoin:miter;stroke:rgb(0%,0%,0%);stroke-opacity:1;stroke-miterlimit:3.25;" d="M 128.703125 906.757812 L 131.101562 906.757812 " transform="matrix(1,0,0,1,-99,-7.5)"/>
<path style="fill:none;stroke-width:0.3;stroke-linecap:butt;stroke-linejoin:miter;stroke:rgb(0%,0%,0%);stroke-opacity:1;stroke-miterlimit:3.25;" d="M 128.703125 874.871094 L 131.101562 874.871094 " transform="matrix(1,0,0,1,-99,-7.5)"/>
<path style="fill:none;stroke-width:0.3;stroke-linecap:butt;stroke-linejoin:miter;stroke:rgb(0%,0%,0%);stroke-opacity:1;stroke-miterlimit:3.25;" d="M 128.703125 842.984375 L 132.703125 842.984375 " transform="matrix(1,0,0,1,-99,-7.5)"/>
<path style="fill:none;stroke-width:0.3;stroke-linecap:butt;stroke-linejoin:miter;stroke:rgb(0%,0%,0%);stroke-opacity:1;stroke-miterlimit:3.25;" d="M 128.703125 811.097656 L 131.101562 811.097656 " transform="matrix(1,0,0,1,-99,-7.5)"/>
<path style="fill:none;stroke-width:0.3;stroke-linecap:butt;stroke-linejoin:miter;stroke:rgb(0%,0%,0%);stroke-opacity:1;stroke-miterlimit:3.25;" d="M 128.703125 779.210938 L 131.101562 779.210938 " transform="matrix(1,0,0,1,-99,-7.5)"/>
<path style="fill:none;stroke-width:0.3;stroke-linecap:butt;stroke-linejoin:miter;stroke:rgb(0%,0%,0%);stroke-opacity:1;stroke-miterlimit:3.25;" d="M 128.703125 747.324219 L 131.101562 747.324219 " transform="matrix(1,0,0,1,-99,-7.5)"/>
<path style="fill:none;stroke-width:0.3;stroke-linecap:butt;stroke-linejoin:miter;stroke:rgb(0%,0%,0%);stroke-opacity:1;stroke-miterlimit:3.25;" d="M 128.703125 715.433594 L 131.101562 715.433594 " transform="matrix(1,0,0,1,-99,-7.5)"/>
<path style="fill:none;stroke-width:0.3;stroke-linecap:butt;stroke-linejoin:miter;stroke:rgb(0%,0%,0%);stroke-opacity:1;stroke-miterlimit:3.25;" d="M 128.703125 683.546875 L 132.703125 683.546875 " transform="matrix(1,0,0,1,-99,-7.5)"/>
<g style="fill:rgb(0%,0%,0%);fill-opacity:1;">
  <use xlink:href="#glyph0-1" x="13.522119" y="683.328524"/>
</g>
<path style="fill:none;stroke-width:0.3;stroke-linecap:butt;stroke-linejoin:miter;stroke:rgb(0%,0%,0%);stroke-opacity:1;stroke-miterlimit:3.25;" d="M 128.703125 651.660156 L 131.101562 651.660156 " transform="matrix(1,0,0,1,-99,-7.5)"/>
<path style="fill:none;stroke-width:0.3;stroke-linecap:butt;stroke-linejoin:miter;stroke:rgb(0%,0%,0%);stroke-opacity:1;stroke-miterlimit:3.25;" d="M 128.703125 619.773438 L 131.101562 619.773438 " transform="matrix(1,0,0,1,-99,-7.5)"/>
<path style="fill:none;stroke-width:0.3;stroke-linecap:butt;stroke-linejoin:miter;stroke:rgb(0%,0%,0%);stroke-opacity:1;stroke-miterlimit:3.25;" d="M 128.703125 587.886719 L 131.101562 587.886719 " transform="matrix(1,0,0,1,-99,-7.5)"/>
<path style="fill:none;stroke-width:0.3;stroke-linecap:butt;stroke-linejoin:miter;stroke:rgb(0%,0%,0%);stroke-opacity:1;stroke-miterlimit:3.25;" d="M 128.703125 556 L 131.101562 556 " transform="matrix(1,0,0,1,-99,-7.5)"/>
<path style="fill:none;stroke-width:0.3;stroke-linecap:butt;stroke-linejoin:miter;stroke:rgb(0%,0%,0%);stroke-opacity:1;stroke-miterlimit:3.25;" d="M 128.703125 524.113281 L 132.703125 524.113281 " transform="matrix(1,0,0,1,-99,-7.5)"/>
<g style="fill:rgb(0%,0%,0%);fill-opacity:1;">
  <use xlink:href="#glyph0-2" x="13.522119" y="523.892674"/>
</g>
<path style="fill:none;stroke-width:0.3;stroke-linecap:butt;stroke-linejoin:miter;stroke:rgb(0%,0%,0%);stroke-opacity:1;stroke-miterlimit:3.25;" d="M 128.703125 492.226562 L 131.101562 492.226562 " transform="matrix(1,0,0,1,-99,-7.5)"/>
<path style="fill:none;stroke-width:0.3;stroke-linecap:butt;stroke-linejoin:miter;stroke:rgb(0%,0%,0%);stroke-opacity:1;stroke-miterlimit:3.25;" d="M 128.703125 460.339844 L 131.101562 460.339844 " transform="matrix(1,0,0,1,-99,-7.5)"/>
<path style="fill:none;stroke-width:0.3;stroke-linecap:butt;stroke-linejoin:miter;stroke:rgb(0%,0%,0%);stroke-opacity:1;stroke-miterlimit:3.25;" d="M 128.703125 428.449219 L 131.101562 428.449219 " transform="matrix(1,0,0,1,-99,-7.5)"/>
<path style="fill:none;stroke-width:0.3;stroke-linecap:butt;stroke-linejoin:miter;stroke:rgb(0%,0%,0%);stroke-opacity:1;stroke-miterlimit:3.25;" d="M 128.703125 396.5625 L 131.101562 396.5625 " transform="matrix(1,0,0,1,-99,-7.5)"/>
<path style="fill:none;stroke-width:0.3;stroke-linecap:butt;stroke-linejoin:miter;stroke:rgb(0%,0%,0%);stroke-opacity:1;stroke-miterlimit:3.25;" d="M 128.703125 364.675781 L 132.703125 364.675781 " transform="matrix(1,0,0,1,-99,-7.5)"/>
<g style="fill:rgb(0%,0%,0%);fill-opacity:1;">
  <use xlink:href="#glyph0-3" x="13.522119" y="364.456823"/>
</g>
<path style="fill:none;stroke-width:0.3;stroke-linecap:butt;stroke-linejoin:miter;stroke:rgb(0%,0%,0%);stroke-opacity:1;stroke-miterlimit:3.25;" d="M 128.703125 332.789062 L 131.101562 332.789062 " transform="matrix(1,0,0,1,-99,-7.5)"/>
<path style="fill:none;stroke-width:0.3;stroke-linecap:butt;stroke-linejoin:miter;stroke:rgb(0%,0%,0%);stroke-opacity:1;stroke-miterlimit:3.25;" d="M 128.703125 300.902344 L 131.101562 300.902344 " transform="matrix(1,0,0,1,-99,-7.5)"/>
<path style="fill:none;stroke-width:0.3;stroke-linecap:butt;stroke-linejoin:miter;stroke:rgb(0%,0%,0%);stroke-opacity:1;stroke-miterlimit:3.25;" d="M 128.703125 269.015625 L 131.101562 269.015625 " transform="matrix(1,0,0,1,-99,-7.5)"/>
<path style="fill:none;stroke-width:0.3;stroke-linecap:butt;stroke-linejoin:miter;stroke:rgb(0%,0%,0%);stroke-opacity:1;stroke-miterlimit:3.25;" d="M 128.703125 237.128906 L 131.101562 237.128906 " transform="matrix(1,0,0,1,-99,-7.5)"/>
<path style="fill:none;stroke-width:0.3;stroke-linecap:butt;stroke-linejoin:miter;stroke:rgb(0%,0%,0%);stroke-opacity:1;stroke-miterlimit:3.25;" d="M 128.703125 205.242188 L 132.703125 205.242188 " transform="matrix(1,0,0,1,-99,-7.5)"/>
<g style="fill:rgb(0%,0%,0%);fill-opacity:1;">
  <use xlink:href="#glyph0-4" x="13.522119" y="205.020973"/>
</g>
<path style="fill:none;stroke-width:0.3;stroke-linecap:butt;stroke-linejoin:miter;stroke:rgb(0%,0%,0%);stroke-opacity:1;stroke-miterlimit:3.25;" d="M 128.703125 173.355469 L 131.101562 173.355469 " transform="matrix(1,0,0,1,-99,-7.5)"/>
<path style="fill:none;stroke-width:0.3;stroke-linecap:butt;stroke-linejoin:miter;stroke:rgb(0%,0%,0%);stroke-opacity:1;stroke-miterlimit:3.25;" d="M 128.703125 141.464844 L 131.101562 141.464844 " transform="matrix(1,0,0,1,-99,-7.5)"/>
<path style="fill:none;stroke-width:0.3;stroke-linecap:butt;stroke-linejoin:miter;stroke:rgb(0%,0%,0%);stroke-opacity:1;stroke-miterlimit:3.25;" d="M 128.703125 109.578125 L 131.101562 109.578125 " transform="matrix(1,0,0,1,-99,-7.5)"/>
<path style="fill:none;stroke-width:0.3;stroke-linecap:butt;stroke-linejoin:miter;stroke:rgb(0%,0%,0%);stroke-opacity:1;stroke-miterlimit:3.25;" d="M 128.703125 77.691406 L 131.101562 77.691406 " transform="matrix(1,0,0,1,-99,-7.5)"/>
<path style="fill:none;stroke-width:0.3;stroke-linecap:square;stroke-linejoin:miter;stroke:rgb(40%,40%,40%);stroke-opacity:1;stroke-miterlimit:3.25;" d="M 128.703125 941.308594 L 128.703125 46.664062 " transform="matrix(1,0,0,1,-99,-7.5)"/>
<g style="fill:rgb(0%,0%,0%);fill-opacity:1;">
  <use xlink:href="#glyph1-2" x="8.666895" y="24.442383"/>
</g>
<g style="fill:rgb(0%,0%,0%);fill-opacity:1;">
  <use xlink:href="#glyph2-1" x="22.166895" y="24.442383"/>
</g>
<g style="fill:rgb(0%,0%,0%);fill-opacity:1;">
  <use xlink:href="#glyph1-1" x="31.158105" y="24.442383"/>
</g>
<g style="fill:rgb(0%,0%,0%);fill-opacity:1;">
  <use xlink:href="#glyph2-2" x="41.744531" y="24.442383"/>
</g>
<g style="fill:rgb(0%,0%,0%);fill-opacity:1;">
  <use xlink:href="#glyph1-3" x="1505.749829" y="355.653841"/>
</g>
<g clip-path="url(#clip1)" clip-rule="nonzero">
<path style="fill:none;stroke-width:3;stroke-linecap:square;stroke-linejoin:miter;stroke:rgb(36.841382%,50.678264%,70.980392%);stroke-opacity:1;stroke-miterlimit:3.25;" d="M 1587.703125 386.578125 L 1613.703125 386.578125 " transform="matrix(1,0,0,1,-99,-7.5)"/>
</g>
<g style="fill:rgb(0%,0%,0%);fill-opacity:1;">
  <use xlink:href="#glyph3-1" x="1526.952344" y="385.578841"/>
</g>
<g clip-path="url(#clip2)" clip-rule="nonzero">
<path style="fill:none;stroke-width:3;stroke-linecap:square;stroke-linejoin:miter;stroke:rgb(88.072023%,61.104753%,14.204623%);stroke-opacity:1;stroke-miterlimit:3.25;" d="M 1587.703125 421.65625 L 1613.703125 421.65625 " transform="matrix(1,0,0,1,-99,-7.5)"/>
</g>
<g style="fill:rgb(0%,0%,0%);fill-opacity:1;">
  <use xlink:href="#glyph3-2" x="1526.952344" y="420.657601"/>
</g>
<g clip-path="url(#clip3)" clip-rule="nonzero">
<path style="fill:none;stroke-width:3;stroke-linecap:square;stroke-linejoin:miter;stroke:rgb(56.017395%,69.156939%,19.488823%);stroke-opacity:1;stroke-miterlimit:3.25;" d="M 1587.703125 456.738281 L 1613.703125 456.738281 " transform="matrix(1,0,0,1,-99,-7.5)"/>
</g>
<g style="fill:rgb(0%,0%,0%);fill-opacity:1;">
  <use xlink:href="#glyph3-3" x="1526.952344" y="455.736361"/>
</g>
<g clip-path="url(#clip4)" clip-rule="nonzero">
<path style="fill:none;stroke-width:3;stroke-linecap:square;stroke-linejoin:miter;stroke:rgb(92.252995%,38.5626%,20.918593%);stroke-opacity:1;stroke-miterlimit:3.25;" d="M 1587.703125 491.816406 L 1613.703125 491.816406 " transform="matrix(1,0,0,1,-99,-7.5)"/>
</g>
<g style="fill:rgb(0%,0%,0%);fill-opacity:1;">
  <use xlink:href="#glyph3-4" x="1526.952344" y="490.81512"/>
</g>
<g clip-path="url(#clip5)" clip-rule="nonzero">
<path style="fill:none;stroke-width:3;stroke-linecap:square;stroke-linejoin:miter;stroke:rgb(52.848096%,47.061875%,70.135042%);stroke-opacity:1;stroke-miterlimit:3.25;" d="M 1587.703125 526.894531 L 1613.703125 526.894531 " transform="matrix(1,0,0,1,-99,-7.5)"/>
</g>
<g style="fill:rgb(0%,0%,0%);fill-opacity:1;">
  <use xlink:href="#glyph3-5" x="1526.952344" y="525.89388"/>
</g>
<g clip-path="url(#clip6)" clip-rule="nonzero">
<path style="fill:none;stroke-width:3;stroke-linecap:square;stroke-linejoin:miter;stroke:rgb(77.207599%,43.155566%,10.238804%);stroke-opacity:1;stroke-miterlimit:3.25;" d="M 1587.703125 561.972656 L 1613.703125 561.972656 " transform="matrix(1,0,0,1,-99,-7.5)"/>
</g>
<g style="fill:rgb(0%,0%,0%);fill-opacity:1;">
  <use xlink:href="#glyph3-6" x="1526.952344" y="560.97264"/>
</g>
<g clip-path="url(#clip7)" clip-rule="nonzero">
<path style="fill:none;stroke-width:3;stroke-linecap:square;stroke-linejoin:miter;stroke:rgb(36.389715%,61.849393%,78.234531%);stroke-opacity:1;stroke-miterlimit:3.25;" d="M 1587.703125 597.050781 L 1613.703125 597.050781 " transform="matrix(1,0,0,1,-99,-7.5)"/>
</g>
<g style="fill:rgb(0%,0%,0%);fill-opacity:1;">
  <use xlink:href="#glyph3-7" x="1526.952344" y="596.0514"/>
</g>
</g>
</svg>
