<?xml version="1.0" encoding="UTF-8"?>
<svg xmlns="http://www.w3.org/2000/svg" xmlns:xlink="http://www.w3.org/1999/xlink" width="1548pt" height="935pt" viewBox="0 0 1548 935" version="1.1">
<defs>
<g>
<symbol overflow="visible" id="glyph0-0">
<path style="stroke:none;" d="M 2.625 0 L 2.625 -13.125 L 13.125 -13.125 L 13.125 0 Z M 2.953125 -0.328125 L 12.796875 -0.328125 L 12.796875 -12.796875 L 2.953125 -12.796875 Z M 2.953125 -0.328125 "/>
</symbol>
<symbol overflow="visible" id="glyph0-1">
<path style="stroke:none;" d="M 10.570312 -1.773438 L 10.570312 0 L 0.636719 0 C 0.621094 -0.445312 0.695312 -0.871094 0.851562 -1.28125 C 1.105469 -1.957031 1.507812 -2.625 2.066406 -3.28125 C 2.625 -3.9375 3.429688 -4.695312 4.480469 -5.558594 C 6.113281 -6.898438 7.21875 -7.957031 7.792969 -8.742188 C 8.367188 -9.523438 8.65625 -10.265625 8.65625 -10.960938 C 8.65625 -11.691406 8.394531 -12.308594 7.871094 -12.8125 C 7.347656 -13.316406 6.664062 -13.566406 5.824219 -13.566406 C 4.9375 -13.566406 4.226562 -13.300781 3.691406 -12.765625 C 3.15625 -12.234375 2.886719 -11.496094 2.882812 -10.550781 L 0.984375 -10.746094 C 1.113281 -12.160156 1.601562 -13.238281 2.449219 -13.980469 C 3.296875 -14.722656 4.4375 -15.09375 5.867188 -15.09375 C 7.308594 -15.09375 8.449219 -14.695312 9.289062 -13.894531 C 10.128906 -13.09375 10.550781 -12.101562 10.550781 -10.921875 C 10.550781 -10.320312 10.429688 -9.726562 10.183594 -9.148438 C 9.9375 -8.566406 9.527344 -7.953125 8.957031 -7.3125 C 8.386719 -6.667969 7.4375 -5.785156 6.109375 -4.664062 C 5.003906 -3.734375 4.292969 -3.105469 3.976562 -2.773438 C 3.664062 -2.441406 3.40625 -2.109375 3.199219 -1.773438 Z M 10.570312 -1.773438 "/>
</symbol>
<symbol overflow="visible" id="glyph0-2">
<path style="stroke:none;" d="M 6.789062 0 L 6.789062 -3.597656 L 0.265625 -3.597656 L 0.265625 -5.289062 L 7.125 -15.03125 L 8.632812 -15.03125 L 8.632812 -5.289062 L 10.664062 -5.289062 L 10.664062 -3.597656 L 8.632812 -3.597656 L 8.632812 0 Z M 6.789062 -5.289062 L 6.789062 -12.070312 L 2.082031 -5.289062 Z M 6.789062 -5.289062 "/>
</symbol>
<symbol overflow="visible" id="glyph0-3">
<path style="stroke:none;" d="M 10.449219 -11.351562 L 8.613281 -11.207031 C 8.449219 -11.933594 8.21875 -12.457031 7.914062 -12.785156 C 7.417969 -13.3125 6.800781 -13.578125 6.070312 -13.578125 C 5.484375 -13.578125 4.964844 -13.414062 4.523438 -13.085938 C 3.941406 -12.660156 3.484375 -12.042969 3.148438 -11.226562 C 2.8125 -10.414062 2.640625 -9.257812 2.625 -7.75 C 3.070312 -8.429688 3.613281 -8.929688 4.253906 -9.257812 C 4.898438 -9.585938 5.570312 -9.75 6.273438 -9.75 C 7.503906 -9.75 8.554688 -9.296875 9.417969 -8.394531 C 10.28125 -7.488281 10.714844 -6.316406 10.714844 -4.882812 C 10.714844 -3.9375 10.511719 -3.0625 10.105469 -2.25 C 9.699219 -1.441406 9.140625 -0.820312 8.429688 -0.390625 C 7.71875 0.0390625 6.910156 0.257812 6.007812 0.257812 C 4.46875 0.257812 3.214844 -0.308594 2.246094 -1.441406 C 1.273438 -2.570312 0.789062 -4.4375 0.789062 -7.035156 C 0.789062 -9.941406 1.328125 -12.050781 2.398438 -13.371094 C 3.335938 -14.519531 4.597656 -15.09375 6.183594 -15.09375 C 7.367188 -15.09375 8.335938 -14.761719 9.089844 -14.097656 C 9.84375 -13.4375 10.296875 -12.519531 10.449219 -11.351562 Z M 2.914062 -4.871094 C 2.914062 -4.234375 3.046875 -3.625 3.316406 -3.046875 C 3.585938 -2.464844 3.964844 -2.023438 4.449219 -1.71875 C 4.933594 -1.414062 5.445312 -1.261719 5.976562 -1.261719 C 6.757812 -1.261719 7.425781 -1.574219 7.988281 -2.203125 C 8.546875 -2.832031 8.828125 -3.6875 8.828125 -4.769531 C 8.828125 -5.808594 8.550781 -6.625 8 -7.222656 C 7.445312 -7.820312 6.746094 -8.121094 5.90625 -8.121094 C 5.070312 -8.121094 4.363281 -7.820312 3.785156 -7.222656 C 3.203125 -6.625 2.914062 -5.839844 2.914062 -4.871094 Z M 2.914062 -4.871094 "/>
</symbol>
<symbol overflow="visible" id="glyph0-4">
<path style="stroke:none;" d="M 3.710938 -8.152344 C 2.945312 -8.433594 2.378906 -8.832031 2.007812 -9.351562 C 1.640625 -9.871094 1.457031 -10.492188 1.457031 -11.21875 C 1.457031 -12.3125 1.847656 -13.230469 2.636719 -13.976562 C 3.421875 -14.722656 4.46875 -15.09375 5.773438 -15.09375 C 7.085938 -15.09375 8.140625 -14.710938 8.941406 -13.949219 C 9.742188 -13.1875 10.140625 -12.261719 10.140625 -11.167969 C 10.140625 -10.46875 9.957031 -9.863281 9.59375 -9.347656 C 9.226562 -8.832031 8.671875 -8.433594 7.925781 -8.152344 C 8.847656 -7.851562 9.550781 -7.367188 10.035156 -6.695312 C 10.515625 -6.027344 10.757812 -5.226562 10.757812 -4.296875 C 10.757812 -3.011719 10.300781 -1.929688 9.390625 -1.054688 C 8.484375 -0.179688 7.289062 0.257812 5.804688 0.257812 C 4.320312 0.257812 3.125 -0.183594 2.214844 -1.0625 C 1.304688 -1.941406 0.851562 -3.035156 0.851562 -4.347656 C 0.851562 -5.324219 1.097656 -6.144531 1.59375 -6.804688 C 2.089844 -7.464844 2.796875 -7.914062 3.710938 -8.152344 Z M 3.34375 -11.28125 C 3.34375 -10.570312 3.570312 -9.988281 4.03125 -9.535156 C 4.488281 -9.085938 5.082031 -8.859375 5.8125 -8.859375 C 6.523438 -8.859375 7.109375 -9.082031 7.5625 -9.53125 C 8.015625 -9.980469 8.242188 -10.527344 8.242188 -11.175781 C 8.242188 -11.851562 8.011719 -12.421875 7.542969 -12.882812 C 7.074219 -13.34375 6.492188 -13.578125 5.792969 -13.578125 C 5.089844 -13.578125 4.503906 -13.351562 4.039062 -12.898438 C 3.574219 -12.449219 3.34375 -11.90625 3.34375 -11.28125 Z M 2.75 -4.335938 C 2.75 -3.8125 2.871094 -3.300781 3.121094 -2.808594 C 3.371094 -2.316406 3.742188 -1.9375 4.234375 -1.667969 C 4.726562 -1.398438 5.257812 -1.261719 5.824219 -1.261719 C 6.707031 -1.261719 7.433594 -1.546875 8.007812 -2.113281 C 8.582031 -2.679688 8.871094 -3.402344 8.871094 -4.277344 C 8.871094 -5.164062 8.574219 -5.898438 7.984375 -6.480469 C 7.390625 -7.0625 6.652344 -7.351562 5.761719 -7.351562 C 4.894531 -7.351562 4.175781 -7.066406 3.605469 -6.492188 C 3.035156 -5.917969 2.75 -5.199219 2.75 -4.335938 Z M 2.75 -4.335938 "/>
</symbol>
<symbol overflow="visible" id="glyph0-5">
<path style="stroke:none;" d="M 7.824219 0 L 5.976562 0 L 5.976562 -11.761719 C 5.53125 -11.335938 4.949219 -10.914062 4.230469 -10.488281 C 3.507812 -10.066406 2.859375 -9.75 2.285156 -9.535156 L 2.285156 -11.320312 C 3.320312 -11.804688 4.222656 -12.394531 4.992188 -13.085938 C 5.765625 -13.773438 6.3125 -14.445312 6.632812 -15.09375 L 7.824219 -15.09375 Z M 7.824219 0 "/>
</symbol>
<symbol overflow="visible" id="glyph0-6">
<path style="stroke:none;" d="M 0.871094 -7.414062 C 0.871094 -9.191406 1.054688 -10.621094 1.421875 -11.703125 C 1.785156 -12.789062 2.328125 -13.625 3.050781 -14.210938 C 3.773438 -14.800781 4.679688 -15.09375 5.773438 -15.09375 C 6.578125 -15.09375 7.289062 -14.929688 7.894531 -14.605469 C 8.503906 -14.28125 9.007812 -13.8125 9.402344 -13.203125 C 9.800781 -12.589844 10.109375 -11.84375 10.335938 -10.964844 C 10.5625 -10.085938 10.675781 -8.902344 10.675781 -7.414062 C 10.675781 -5.648438 10.492188 -4.226562 10.132812 -3.144531 C 9.769531 -2.058594 9.226562 -1.222656 8.503906 -0.628906 C 7.785156 -0.0390625 6.875 0.257812 5.773438 0.257812 C 4.324219 0.257812 3.1875 -0.261719 2.359375 -1.300781 C 1.367188 -2.554688 0.871094 -4.589844 0.871094 -7.414062 Z M 2.769531 -7.414062 C 2.769531 -4.945312 3.058594 -3.304688 3.636719 -2.488281 C 4.214844 -1.671875 4.925781 -1.261719 5.773438 -1.261719 C 6.621094 -1.261719 7.332031 -1.671875 7.910156 -2.492188 C 8.488281 -3.3125 8.777344 -4.953125 8.777344 -7.414062 C 8.777344 -9.886719 8.488281 -11.53125 7.910156 -12.34375 C 7.332031 -13.160156 6.613281 -13.566406 5.753906 -13.566406 C 4.90625 -13.566406 4.226562 -13.207031 3.722656 -12.488281 C 3.085938 -11.574219 2.769531 -9.882812 2.769531 -7.414062 Z M 2.769531 -7.414062 "/>
</symbol>
<symbol overflow="visible" id="glyph1-0">
<path style="stroke:none;" d="M 1.6875 0 L 1.6875 -21.59375 L 11.8125 -21.59375 L 11.8125 0 Z M 3.375 -1.6875 L 10.125 -1.6875 L 10.125 -19.90625 L 3.375 -19.90625 Z M 3.375 -1.6875 "/>
</symbol>
<symbol overflow="visible" id="glyph1-1">
<path style="stroke:none;" d="M 14.09375 -19.65625 L 13.671875 -17.707031 L 11.878906 -17.707031 C 11.542969 -17.707031 11.191406 -17.691406 10.824219 -17.660156 C 10.453125 -17.628906 10.089844 -17.574219 9.730469 -17.5 C 9.371094 -17.425781 9.023438 -17.320312 8.695312 -17.179688 C 8.367188 -17.039062 8.078125 -16.859375 7.832031 -16.644531 C 7.585938 -16.429688 7.386719 -16.164062 7.238281 -15.851562 C 7.089844 -15.539062 7.015625 -15.175781 7.015625 -14.753906 C 7.015625 -14.347656 7.140625 -14.023438 7.390625 -13.777344 C 7.640625 -13.53125 7.957031 -13.34375 8.339844 -13.210938 C 8.722656 -13.078125 9.144531 -12.992188 9.609375 -12.945312 C 10.078125 -12.902344 10.523438 -12.878906 10.957031 -12.878906 C 11.203125 -12.878906 11.433594 -12.882812 11.648438 -12.894531 C 11.863281 -12.902344 12.058594 -12.910156 12.234375 -12.921875 C 12.289062 -12.921875 12.335938 -12.921875 12.386719 -12.925781 C 12.433594 -12.929688 12.480469 -12.933594 12.523438 -12.933594 L 12.117188 -10.996094 C 11.183594 -10.996094 10.289062 -10.867188 9.425781 -10.605469 C 8.566406 -10.347656 7.769531 -9.925781 7.039062 -9.347656 C 6.6875 -9.066406 6.355469 -8.75 6.042969 -8.40625 C 5.730469 -8.058594 5.457031 -7.6875 5.21875 -7.289062 C 4.984375 -6.894531 4.796875 -6.480469 4.660156 -6.042969 C 4.523438 -5.609375 4.457031 -5.160156 4.457031 -4.695312 C 4.457031 -4.191406 4.550781 -3.789062 4.738281 -3.488281 C 4.929688 -3.183594 5.179688 -2.941406 5.492188 -2.761719 C 5.804688 -2.582031 6.160156 -2.445312 6.558594 -2.347656 C 6.957031 -2.25 7.367188 -2.164062 7.785156 -2.082031 C 8.203125 -2.003906 8.609375 -1.914062 9.011719 -1.820312 C 9.410156 -1.722656 9.765625 -1.578125 10.078125 -1.382812 C 10.390625 -1.191406 10.640625 -0.933594 10.832031 -0.613281 C 11.019531 -0.292969 11.113281 0.128906 11.113281 0.644531 C 11.113281 1.472656 10.921875 2.195312 10.535156 2.816406 C 10.148438 3.433594 9.648438 3.949219 9.042969 4.363281 C 8.4375 4.777344 7.761719 5.089844 7.015625 5.304688 C 6.265625 5.519531 5.53125 5.640625 4.8125 5.667969 L 5.90625 3.480469 C 6.214844 3.453125 6.535156 3.394531 6.867188 3.300781 C 7.203125 3.210938 7.507812 3.078125 7.785156 2.90625 C 8.0625 2.734375 8.289062 2.519531 8.46875 2.253906 C 8.648438 1.992188 8.742188 1.675781 8.742188 1.304688 C 8.742188 1.007812 8.644531 0.777344 8.449219 0.621094 C 8.257812 0.460938 8.003906 0.335938 7.6875 0.238281 C 7.371094 0.140625 7.007812 0.0625 6.605469 0 C 6.199219 -0.0625 5.785156 -0.140625 5.359375 -0.238281 C 4.933594 -0.335938 4.515625 -0.464844 4.113281 -0.632812 C 3.710938 -0.800781 3.347656 -1.03125 3.03125 -1.332031 C 2.714844 -1.628906 2.460938 -2.015625 2.265625 -2.484375 C 2.074219 -2.953125 1.976562 -3.542969 1.976562 -4.246094 C 1.976562 -5.097656 2.136719 -5.902344 2.453125 -6.65625 C 2.769531 -7.414062 3.191406 -8.101562 3.71875 -8.726562 C 4.246094 -9.351562 4.855469 -9.902344 5.542969 -10.382812 C 6.234375 -10.859375 6.953125 -11.253906 7.699219 -11.5625 C 7.304688 -11.625 6.933594 -11.734375 6.585938 -11.898438 C 6.238281 -12.0625 5.933594 -12.265625 5.675781 -12.519531 C 5.417969 -12.769531 5.214844 -13.066406 5.070312 -13.40625 C 4.925781 -13.75 4.851562 -14.136719 4.851562 -14.566406 C 4.851562 -15.15625 4.953125 -15.691406 5.15625 -16.167969 C 5.359375 -16.648438 5.628906 -17.078125 5.964844 -17.453125 C 6.304688 -17.832031 6.703125 -18.160156 7.160156 -18.4375 C 7.617188 -18.714844 8.097656 -18.941406 8.609375 -19.121094 C 9.117188 -19.300781 9.640625 -19.4375 10.179688 -19.523438 C 10.714844 -19.613281 11.234375 -19.65625 11.734375 -19.65625 Z M 14.09375 -19.65625 "/>
</symbol>
<symbol overflow="visible" id="glyph1-2">
<path style="stroke:none;" d="M 8.015625 5.667969 L 6.316406 5.667969 C 5.613281 4.773438 4.972656 3.824219 4.398438 2.828125 C 3.820312 1.832031 3.328125 0.796875 2.914062 -0.277344 C 2.5 -1.347656 2.183594 -2.449219 1.957031 -3.574219 C 1.734375 -4.699219 1.621094 -5.835938 1.621094 -6.988281 C 1.621094 -8.15625 1.734375 -9.300781 1.964844 -10.421875 C 2.191406 -11.542969 2.515625 -12.632812 2.925781 -13.699219 C 3.339844 -14.761719 3.835938 -15.792969 4.410156 -16.789062 C 4.984375 -17.785156 5.621094 -18.742188 6.316406 -19.65625 L 8.015625 -19.65625 C 7.390625 -18.636719 6.832031 -17.632812 6.339844 -16.644531 C 5.847656 -15.65625 5.4375 -14.648438 5.101562 -13.625 C 4.769531 -12.601562 4.511719 -11.546875 4.335938 -10.460938 C 4.160156 -9.375 4.074219 -8.226562 4.074219 -7.015625 C 4.074219 -5.890625 4.167969 -4.773438 4.355469 -3.664062 C 4.546875 -2.558594 4.8125 -1.46875 5.15625 -0.402344 C 5.5 0.664062 5.910156 1.707031 6.394531 2.722656 C 6.878906 3.738281 7.417969 4.71875 8.015625 5.667969 Z M 8.015625 5.667969 "/>
</symbol>
<symbol overflow="visible" id="glyph1-3">
<path style="stroke:none;" d="M 7.371094 -6.988281 C 7.371094 -5.828125 7.253906 -4.6875 7.027344 -3.566406 C 6.796875 -2.445312 6.476562 -1.351562 6.0625 -0.289062 C 5.652344 0.773438 5.15625 1.804688 4.582031 2.800781 C 4.007812 3.796875 3.371094 4.753906 2.675781 5.667969 L 0.976562 5.667969 C 1.589844 4.667969 2.144531 3.667969 2.636719 2.675781 C 3.128906 1.683594 3.542969 0.671875 3.875 -0.355469 C 4.210938 -1.382812 4.46875 -2.445312 4.648438 -3.53125 C 4.828125 -4.621094 4.917969 -5.765625 4.917969 -6.960938 C 4.917969 -8.085938 4.824219 -9.203125 4.632812 -10.308594 C 4.445312 -11.417969 4.179688 -12.503906 3.835938 -13.574219 C 3.492188 -14.640625 3.078125 -15.683594 2.589844 -16.703125 C 2.101562 -17.722656 1.5625 -18.707031 0.976562 -19.65625 L 2.675781 -19.65625 C 3.378906 -18.761719 4.019531 -17.8125 4.601562 -16.816406 C 5.179688 -15.820312 5.675781 -14.78125 6.085938 -13.703125 C 6.492188 -12.628906 6.808594 -11.523438 7.035156 -10.394531 C 7.257812 -9.265625 7.371094 -8.128906 7.371094 -6.988281 Z M 7.371094 -6.988281 "/>
</symbol>
<symbol overflow="visible" id="glyph2-0">
<path style="stroke:none;" d="M -0.25 0 L -0.25 -17.613281 L 20.710938 -17.613281 L 20.710938 0 Z M 18.285156 -2.425781 L 18.285156 -15.1875 L 2.175781 -15.1875 L 2.175781 -2.425781 Z M 18.285156 -2.425781 "/>
</symbol>
<symbol overflow="visible" id="glyph2-1">
<path style="stroke:none;" d="M 5.496094 -11.996094 C 5.578125 -11.996094 5.632812 -11.972656 5.664062 -11.925781 C 5.695312 -11.875 5.707031 -11.820312 5.707031 -11.757812 C 5.699219 -11.671875 5.691406 -11.605469 5.683594 -11.5625 L 4.363281 -6.460938 L 4.652344 -7.027344 C 5.285156 -8.265625 6.027344 -9.398438 6.875 -10.421875 C 7.722656 -11.445312 8.53125 -11.957031 9.292969 -11.957031 C 9.707031 -11.957031 10.027344 -11.820312 10.25 -11.546875 C 10.472656 -11.277344 10.585938 -10.964844 10.585938 -10.613281 C 10.585938 -10.21875 10.472656 -9.890625 10.25 -9.628906 C 10.027344 -9.371094 9.714844 -9.242188 9.320312 -9.242188 C 9.046875 -9.242188 8.84375 -9.292969 8.703125 -9.398438 C 8.5625 -9.503906 8.449219 -9.628906 8.371094 -9.769531 L 8.214844 -10.058594 C 8.179688 -10.113281 8.136719 -10.152344 8.089844 -10.183594 C 8.039062 -10.214844 7.980469 -10.230469 7.910156 -10.230469 C 7.566406 -10.230469 7.074219 -9.75 6.425781 -8.792969 C 5.78125 -7.835938 5.203125 -6.796875 4.695312 -5.683594 C 4.386719 -5.007812 4.042969 -4.109375 3.664062 -2.992188 C 3.425781 -2.289062 3.109375 -1.292969 2.714844 0 L 0.6875 0 L 2.875 -7.9375 C 2.996094 -8.394531 3.097656 -8.800781 3.171875 -9.164062 C 3.246094 -9.523438 3.28125 -9.816406 3.28125 -10.046875 C 3.28125 -10.308594 3.21875 -10.511719 3.085938 -10.652344 C 2.953125 -10.792969 2.726562 -10.863281 2.398438 -10.863281 C 2.292969 -10.863281 2.164062 -10.855469 2.003906 -10.835938 C 1.84375 -10.820312 1.65625 -10.796875 1.4375 -10.769531 L 1.4375 -11.207031 L 1.964844 -11.3125 C 2.648438 -11.453125 3.398438 -11.601562 4.210938 -11.757812 C 5.023438 -11.917969 5.453125 -11.996094 5.496094 -11.996094 Z M 5.496094 -11.996094 "/>
</symbol>
<symbol overflow="visible" id="glyph2-2">
<path style="stroke:none;" d="M 0.488281 0 L 2.769531 -8.148438 C 2.960938 -8.832031 3.074219 -9.25 3.105469 -9.394531 C 3.136719 -9.539062 3.152344 -9.695312 3.152344 -9.859375 C 3.152344 -10.117188 3.078125 -10.316406 2.933594 -10.460938 C 2.789062 -10.605469 2.503906 -10.679688 2.082031 -10.679688 C 1.976562 -10.679688 1.875 -10.671875 1.773438 -10.660156 C 1.671875 -10.644531 1.558594 -10.628906 1.4375 -10.613281 L 1.4375 -11.0625 C 2.007812 -11.148438 2.414062 -11.214844 2.65625 -11.257812 C 2.898438 -11.300781 3.160156 -11.355469 3.441406 -11.417969 L 5.800781 -11.929688 C 5.851562 -11.894531 5.890625 -11.855469 5.90625 -11.8125 L 4.152344 -6.144531 C 5.226562 -7.789062 6.121094 -9.007812 6.84375 -9.808594 C 8.109375 -11.222656 9.242188 -11.929688 10.242188 -11.929688 C 10.628906 -11.929688 10.964844 -11.855469 11.246094 -11.707031 C 11.78125 -11.417969 12.050781 -10.894531 12.050781 -10.136719 C 12.050781 -9.925781 12.027344 -9.707031 11.984375 -9.480469 C 11.941406 -9.25 11.882812 -9.003906 11.8125 -8.742188 L 10.085938 -2.425781 C 10.050781 -2.292969 10.011719 -2.132812 9.96875 -1.945312 C 9.921875 -1.757812 9.902344 -1.621094 9.902344 -1.542969 C 9.902344 -1.410156 9.929688 -1.292969 9.992188 -1.1875 C 10.054688 -1.082031 10.15625 -1.027344 10.296875 -1.027344 C 10.523438 -1.027344 10.789062 -1.164062 11.085938 -1.429688 C 11.386719 -1.699219 11.875 -2.273438 12.550781 -3.152344 L 12.933594 -2.808594 C 12.210938 -1.832031 11.640625 -1.148438 11.21875 -0.75 C 10.5 -0.0546875 9.808594 0.289062 9.148438 0.289062 C 8.851562 0.289062 8.5625 0.191406 8.285156 -0.0078125 C 8.007812 -0.203125 7.871094 -0.5625 7.871094 -1.082031 C 7.871094 -1.230469 7.882812 -1.390625 7.902344 -1.554688 C 7.925781 -1.722656 7.953125 -1.867188 7.988281 -1.992188 L 9.648438 -8.398438 C 9.738281 -8.75 9.796875 -9.039062 9.828125 -9.261719 C 9.859375 -9.484375 9.875 -9.644531 9.875 -9.742188 C 9.875 -9.953125 9.824219 -10.136719 9.722656 -10.289062 C 9.621094 -10.445312 9.445312 -10.519531 9.1875 -10.519531 C 8.53125 -10.519531 7.699219 -9.921875 6.695312 -8.726562 C 6.109375 -8.015625 5.511719 -7.167969 4.90625 -6.183594 C 4.4375 -5.417969 4.070312 -4.671875 3.804688 -3.949219 C 3.535156 -3.222656 3.109375 -1.90625 2.53125 0 Z M 0.488281 0 "/>
</symbol>
<symbol overflow="visible" id="glyph3-0">
<path style="stroke:none;" d="M 2.4375 0 L 2.4375 -12.1875 L 12.1875 -12.1875 L 12.1875 0 Z M 2.742188 -0.304688 L 11.882812 -0.304688 L 11.882812 -11.882812 L 2.742188 -11.882812 Z M 2.742188 -0.304688 "/>
</symbol>
<symbol overflow="visible" id="glyph3-1">
<path style="stroke:none;" d="M 0.808594 -6.882812 C 0.808594 -8.535156 0.980469 -9.863281 1.320312 -10.867188 C 1.660156 -11.875 2.164062 -12.652344 2.832031 -13.195312 C 3.503906 -13.742188 4.34375 -14.015625 5.359375 -14.015625 C 6.109375 -14.015625 6.765625 -13.863281 7.332031 -13.5625 C 7.898438 -13.261719 8.363281 -12.828125 8.730469 -12.257812 C 9.097656 -11.691406 9.386719 -11 9.597656 -10.183594 C 9.808594 -9.367188 9.910156 -8.269531 9.910156 -6.882812 C 9.910156 -5.246094 9.742188 -3.925781 9.40625 -2.917969 C 9.070312 -1.914062 8.566406 -1.132812 7.898438 -0.585938 C 7.226562 -0.0351562 6.382812 0.238281 5.359375 0.238281 C 4.015625 0.238281 2.957031 -0.246094 2.191406 -1.210938 C 1.269531 -2.371094 0.808594 -4.261719 0.808594 -6.882812 Z M 2.570312 -6.882812 C 2.570312 -4.59375 2.839844 -3.066406 3.375 -2.308594 C 3.910156 -1.550781 4.574219 -1.171875 5.359375 -1.171875 C 6.148438 -1.171875 6.808594 -1.550781 7.347656 -2.3125 C 7.882812 -3.074219 8.148438 -4.597656 8.148438 -6.882812 C 8.148438 -9.179688 7.882812 -10.707031 7.347656 -11.464844 C 6.808594 -12.21875 6.140625 -12.597656 5.339844 -12.597656 C 4.554688 -12.597656 3.925781 -12.265625 3.457031 -11.597656 C 2.867188 -10.746094 2.570312 -9.175781 2.570312 -6.882812 Z M 2.570312 -6.882812 "/>
</symbol>
<symbol overflow="visible" id="glyph3-2">
<path style="stroke:none;" d="M 7.265625 0 L 5.550781 0 L 5.550781 -10.921875 C 5.136719 -10.527344 4.597656 -10.132812 3.925781 -9.742188 C 3.257812 -9.347656 2.65625 -9.050781 2.125 -8.855469 L 2.125 -10.511719 C 3.082031 -10.960938 3.917969 -11.507812 4.636719 -12.148438 C 5.355469 -12.789062 5.863281 -13.414062 6.160156 -14.015625 L 7.265625 -14.015625 Z M 7.265625 0 "/>
</symbol>
<symbol overflow="visible" id="glyph3-3">
<path style="stroke:none;" d="M 9.816406 -1.648438 L 9.816406 0 L 0.589844 0 C 0.578125 -0.414062 0.644531 -0.808594 0.789062 -1.191406 C 1.023438 -1.820312 1.402344 -2.4375 1.917969 -3.046875 C 2.4375 -3.65625 3.183594 -4.359375 4.160156 -5.160156 C 5.679688 -6.40625 6.703125 -7.390625 7.234375 -8.117188 C 7.769531 -8.84375 8.035156 -9.53125 8.035156 -10.179688 C 8.035156 -10.859375 7.792969 -11.429688 7.308594 -11.898438 C 6.824219 -12.363281 6.1875 -12.597656 5.40625 -12.597656 C 4.582031 -12.597656 3.921875 -12.347656 3.429688 -11.855469 C 2.933594 -11.359375 2.683594 -10.671875 2.675781 -9.796875 L 0.914062 -9.976562 C 1.035156 -11.292969 1.488281 -12.292969 2.277344 -12.984375 C 3.0625 -13.671875 4.121094 -14.015625 5.445312 -14.015625 C 6.785156 -14.015625 7.84375 -13.644531 8.625 -12.902344 C 9.40625 -12.160156 9.796875 -11.238281 9.796875 -10.140625 C 9.796875 -9.582031 9.683594 -9.03125 9.453125 -8.492188 C 9.226562 -7.953125 8.847656 -7.386719 8.316406 -6.789062 C 7.785156 -6.191406 6.90625 -5.375 5.675781 -4.332031 C 4.648438 -3.46875 3.984375 -2.882812 3.695312 -2.574219 C 3.402344 -2.265625 3.160156 -1.957031 2.96875 -1.648438 Z M 9.816406 -1.648438 "/>
</symbol>
<symbol overflow="visible" id="glyph3-4">
<path style="stroke:none;" d="M 0.820312 -3.683594 L 2.53125 -3.914062 C 2.730469 -2.941406 3.0625 -2.242188 3.539062 -1.8125 C 4.011719 -1.386719 4.585938 -1.171875 5.265625 -1.171875 C 6.070312 -1.171875 6.753906 -1.449219 7.308594 -2.007812 C 7.863281 -2.566406 8.140625 -3.257812 8.140625 -4.085938 C 8.140625 -4.871094 7.882812 -5.519531 7.371094 -6.03125 C 6.855469 -6.542969 6.203125 -6.796875 5.40625 -6.796875 C 5.082031 -6.796875 4.679688 -6.734375 4.199219 -6.609375 L 4.390625 -8.113281 C 4.503906 -8.101562 4.59375 -8.09375 4.664062 -8.09375 C 5.394531 -8.09375 6.050781 -8.285156 6.636719 -8.664062 C 7.21875 -9.046875 7.511719 -9.632812 7.511719 -10.425781 C 7.511719 -11.054688 7.300781 -11.574219 6.875 -11.988281 C 6.449219 -12.398438 5.898438 -12.605469 5.226562 -12.605469 C 4.5625 -12.605469 4.003906 -12.398438 3.5625 -11.976562 C 3.117188 -11.558594 2.832031 -10.929688 2.703125 -10.09375 L 0.992188 -10.398438 C 1.199219 -11.546875 1.675781 -12.4375 2.417969 -13.066406 C 3.160156 -13.699219 4.085938 -14.015625 5.1875 -14.015625 C 5.949219 -14.015625 6.652344 -13.851562 7.292969 -13.523438 C 7.933594 -13.199219 8.425781 -12.753906 8.765625 -12.1875 C 9.105469 -11.621094 9.273438 -11.023438 9.273438 -10.386719 C 9.273438 -9.785156 9.113281 -9.234375 8.789062 -8.742188 C 8.464844 -8.246094 7.984375 -7.851562 7.351562 -7.558594 C 8.175781 -7.367188 8.816406 -6.972656 9.273438 -6.375 C 9.730469 -5.773438 9.960938 -5.023438 9.960938 -4.121094 C 9.960938 -2.902344 9.515625 -1.871094 8.625 -1.023438 C 7.738281 -0.175781 6.613281 0.246094 5.257812 0.246094 C 4.03125 0.246094 3.011719 -0.117188 2.203125 -0.847656 C 1.394531 -1.578125 0.933594 -2.523438 0.820312 -3.683594 Z M 0.820312 -3.683594 "/>
</symbol>
<symbol overflow="visible" id="glyph3-5">
<path style="stroke:none;" d="M 6.304688 0 L 6.304688 -3.34375 L 0.246094 -3.34375 L 0.246094 -4.914062 L 6.617188 -13.957031 L 8.015625 -13.957031 L 8.015625 -4.914062 L 9.902344 -4.914062 L 9.902344 -3.34375 L 8.015625 -3.34375 L 8.015625 0 Z M 6.304688 -4.914062 L 6.304688 -11.207031 L 1.933594 -4.914062 Z M 6.304688 -4.914062 "/>
</symbol>
<symbol overflow="visible" id="glyph3-6">
<path style="stroke:none;" d="M 0.808594 -3.65625 L 2.609375 -3.808594 C 2.742188 -2.933594 3.050781 -2.273438 3.539062 -1.832031 C 4.023438 -1.390625 4.609375 -1.171875 5.292969 -1.171875 C 6.117188 -1.171875 6.816406 -1.480469 7.390625 -2.105469 C 7.960938 -2.726562 8.246094 -3.550781 8.246094 -4.578125 C 8.246094 -5.558594 7.972656 -6.328125 7.421875 -6.894531 C 6.871094 -7.457031 6.152344 -7.742188 5.265625 -7.742188 C 4.714844 -7.742188 4.214844 -7.617188 3.769531 -7.363281 C 3.324219 -7.113281 2.976562 -6.789062 2.722656 -6.390625 L 1.113281 -6.597656 L 2.464844 -13.769531 L 9.40625 -13.769531 L 9.40625 -12.128906 L 3.835938 -12.128906 L 3.085938 -8.378906 C 3.921875 -8.960938 4.800781 -9.253906 5.722656 -9.253906 C 6.941406 -9.253906 7.96875 -8.832031 8.808594 -7.988281 C 9.644531 -7.144531 10.0625 -6.058594 10.0625 -4.730469 C 10.0625 -3.46875 9.695312 -2.378906 8.960938 -1.457031 C 8.066406 -0.328125 6.84375 0.238281 5.292969 0.238281 C 4.023438 0.238281 2.988281 -0.117188 2.183594 -0.828125 C 1.382812 -1.539062 0.921875 -2.480469 0.808594 -3.65625 Z M 0.808594 -3.65625 "/>
</symbol>
<symbol overflow="visible" id="glyph3-7">
<path style="stroke:none;" d="M 9.703125 -10.539062 L 8 -10.40625 C 7.847656 -11.078125 7.628906 -11.570312 7.351562 -11.875 C 6.886719 -12.363281 6.316406 -12.605469 5.636719 -12.605469 C 5.089844 -12.605469 4.613281 -12.453125 4.199219 -12.148438 C 3.660156 -11.753906 3.234375 -11.179688 2.921875 -10.425781 C 2.613281 -9.671875 2.449219 -8.59375 2.4375 -7.199219 C 2.851562 -7.828125 3.355469 -8.292969 3.953125 -8.597656 C 4.546875 -8.902344 5.171875 -9.054688 5.828125 -9.054688 C 6.96875 -9.054688 7.941406 -8.632812 8.746094 -7.792969 C 9.546875 -6.953125 9.949219 -5.867188 9.949219 -4.53125 C 9.949219 -3.65625 9.761719 -2.84375 9.382812 -2.089844 C 9.003906 -1.335938 8.488281 -0.761719 7.828125 -0.363281 C 7.167969 0.0390625 6.417969 0.238281 5.578125 0.238281 C 4.152344 0.238281 2.988281 -0.289062 2.085938 -1.335938 C 1.183594 -2.386719 0.734375 -4.121094 0.734375 -6.53125 C 0.734375 -9.230469 1.230469 -11.191406 2.226562 -12.414062 C 3.097656 -13.480469 4.269531 -14.015625 5.742188 -14.015625 C 6.839844 -14.015625 7.738281 -13.707031 8.441406 -13.09375 C 9.140625 -12.476562 9.5625 -11.625 9.703125 -10.539062 Z M 2.703125 -4.523438 C 2.703125 -3.933594 2.828125 -3.367188 3.082031 -2.828125 C 3.332031 -2.289062 3.679688 -1.878906 4.132812 -1.59375 C 4.582031 -1.3125 5.054688 -1.171875 5.550781 -1.171875 C 6.273438 -1.171875 6.898438 -1.464844 7.417969 -2.046875 C 7.9375 -2.632812 8.199219 -3.425781 8.199219 -4.425781 C 8.199219 -5.390625 7.941406 -6.152344 7.425781 -6.707031 C 6.914062 -7.261719 6.265625 -7.539062 5.484375 -7.539062 C 4.710938 -7.539062 4.054688 -7.261719 3.511719 -6.707031 C 2.972656 -6.152344 2.703125 -5.425781 2.703125 -4.523438 Z M 2.703125 -4.523438 "/>
</symbol>
</g>
<clipPath id="clip1">
  <path d="M 1489.199219 376 L 1519 376 L 1519 381 L 1489.199219 381 Z M 1489.199219 376 "/>
</clipPath>
<clipPath id="clip2">
  <path d="M 1489.199219 411 L 1519 411 L 1519 416 L 1489.199219 416 Z M 1489.199219 411 "/>
</clipPath>
<clipPath id="clip3">
  <path d="M 1489.199219 446 L 1519 446 L 1519 451 L 1489.199219 451 Z M 1489.199219 446 "/>
</clipPath>
<clipPath id="clip4">
  <path d="M 1489.199219 481 L 1519 481 L 1519 487 L 1489.199219 487 Z M 1489.199219 481 "/>
</clipPath>
<clipPath id="clip5">
  <path d="M 1489.199219 516 L 1519 516 L 1519 522 L 1489.199219 522 Z M 1489.199219 516 "/>
</clipPath>
<clipPath id="clip6">
  <path d="M 1489.199219 551 L 1519 551 L 1519 557 L 1489.199219 557 Z M 1489.199219 551 "/>
</clipPath>
<clipPath id="clip7">
  <path d="M 1489.199219 587 L 1519 587 L 1519 592 L 1489.199219 592 Z M 1489.199219 587 "/>
</clipPath>
</defs>
<g id="surface6">
<path style="fill:none;stroke-width:3;stroke-linecap:square;stroke-linejoin:miter;stroke:rgb(36.841382%,50.678264%,70.980392%);stroke-opacity:1;stroke-miterlimit:3.25;" d="M 128.671875 895.769531 L 129.523438 895.582031 L 130.378906 895.394531 L 132.082031 895.023438 L 155.925781 889.800781 L 185.46875 883.328125 L 213.054688 877.289062 L 240.097656 871.367188 L 269.433594 864.941406 L 296.816406 858.945312 L 326.484375 852.449219 L 355.617188 846.070312 L 382.789062 840.117188 L 412.253906 833.664062 L 439.757812 827.640625 L 466.726562 821.734375 L 495.984375 815.328125 L 523.28125 809.351562 L 552.875 802.871094 L 581.925781 796.507812 L 609.019531 790.574219 L 638.40625 784.140625 L 665.832031 778.132812 L 695.554688 771.625 L 724.730469 765.234375 L 751.953125 759.273438 L 781.464844 752.808594 L 809.023438 746.773438 L 836.035156 740.859375 L 865.34375 734.441406 L 892.691406 728.453125 L 922.332031 721.960938 L 951.433594 715.585938 L 978.574219 709.644531 L 1008.007812 703.199219 L 1035.484375 697.179688 L 1062.421875 691.28125 L 1091.648438 684.882812 L 1118.917969 678.910156 L 1148.480469 672.433594 L 1176.085938 666.390625 L 1203.148438 660.464844 L 1232.503906 654.035156 L 1259.902344 648.035156 L 1289.589844 641.53125 L 1318.738281 635.148438 L 1345.929688 629.195312 L 1375.414062 622.738281 L 1402.9375 616.710938 L 1429.921875 610.800781 L 1459.199219 604.390625 L 1486.519531 598.40625 L 1486.996094 598.300781 L 1487.472656 598.199219 L 1488.425781 597.988281 L 1490.332031 597.570312 L 1494.140625 596.738281 L 1501.765625 595.066406 L 1502.242188 594.960938 L 1502.71875 594.859375 L 1503.671875 594.648438 L 1505.578125 594.230469 L 1509.390625 593.398438 L 1510.34375 593.1875 L 1511.296875 592.980469 L 1513.203125 592.5625 L 1513.679688 592.457031 L 1514.15625 592.355469 L 1515.585938 592.039062 L 1516.0625 591.9375 L 1517.015625 591.726562 " transform="matrix(1,0,0,1,-99,-7.5)"/>
<path style="fill:none;stroke-width:3;stroke-linecap:square;stroke-linejoin:miter;stroke:rgb(88.072023%,61.104753%,14.204623%);stroke-opacity:1;stroke-miterlimit:3.25;" d="M 128.671875 895.769531 L 129.523438 895.503906 L 130.378906 895.238281 L 155.925781 887.328125 L 185.46875 878.179688 L 213.054688 869.632812 L 240.097656 861.257812 L 269.433594 852.171875 L 296.816406 843.695312 L 326.484375 834.503906 L 355.617188 825.484375 L 382.789062 817.066406 L 412.253906 807.941406 L 439.757812 799.421875 L 466.726562 791.070312 L 495.984375 782.011719 L 523.28125 773.554688 L 552.875 764.390625 L 581.925781 755.394531 L 609.019531 747 L 638.40625 737.902344 L 665.832031 729.40625 L 695.554688 720.203125 L 724.730469 711.164062 L 751.953125 702.734375 L 781.464844 693.59375 L 809.023438 685.058594 L 836.035156 676.695312 L 865.34375 667.617188 L 892.691406 659.148438 L 922.332031 649.96875 L 951.433594 640.953125 L 978.574219 632.546875 L 1008.007812 623.433594 L 1035.484375 614.921875 L 1062.421875 606.582031 L 1091.648438 597.527344 L 1118.917969 589.082031 L 1148.480469 579.925781 L 1176.085938 571.378906 L 1203.148438 562.996094 L 1232.503906 553.90625 L 1259.902344 545.417969 L 1289.589844 536.226562 L 1318.738281 527.195312 L 1345.929688 518.777344 L 1375.414062 509.644531 L 1402.9375 501.121094 L 1429.921875 492.761719 L 1459.199219 483.695312 L 1486.519531 475.234375 L 1486.996094 475.085938 L 1487.472656 474.941406 L 1488.425781 474.644531 L 1490.332031 474.054688 L 1494.140625 472.875 L 1501.765625 470.511719 L 1502.242188 470.363281 L 1502.71875 470.21875 L 1503.671875 469.921875 L 1509.390625 468.152344 L 1510.34375 467.855469 L 1511.296875 467.5625 L 1513.203125 466.972656 L 1515.109375 466.378906 L 1515.585938 466.234375 L 1517.015625 465.789062 " transform="matrix(1,0,0,1,-99,-7.5)"/>
<path style="fill:none;stroke-width:3;stroke-linecap:square;stroke-linejoin:miter;stroke:rgb(56.017395%,69.156939%,19.488823%);stroke-opacity:1;stroke-miterlimit:3.25;" d="M 128.671875 895.769531 L 129.097656 895.605469 L 129.523438 895.445312 L 130.378906 895.121094 L 132.082031 894.476562 L 142.300781 890.597656 L 155.925781 885.429688 L 185.46875 874.226562 L 213.054688 863.761719 L 240.097656 853.503906 L 269.433594 842.375 L 296.816406 831.988281 L 326.484375 820.734375 L 355.617188 809.6875 L 382.789062 799.378906 L 412.253906 788.203125 L 439.757812 777.769531 L 466.726562 767.542969 L 495.984375 756.445312 L 523.28125 746.089844 L 552.875 734.863281 L 581.925781 723.84375 L 609.019531 713.566406 L 638.40625 702.421875 L 665.832031 692.015625 L 695.554688 680.746094 L 724.730469 669.675781 L 751.953125 659.351562 L 781.464844 648.15625 L 809.023438 637.703125 L 836.035156 627.457031 L 865.34375 616.339844 L 892.691406 605.96875 L 922.332031 594.722656 L 951.433594 583.6875 L 978.574219 573.390625 L 1008.007812 562.226562 L 1035.484375 551.804688 L 1062.421875 541.585938 L 1091.648438 530.5 L 1118.917969 520.15625 L 1148.480469 508.945312 L 1176.085938 498.472656 L 1203.148438 488.207031 L 1232.503906 477.074219 L 1259.902344 466.679688 L 1289.589844 455.417969 L 1318.738281 444.363281 L 1345.929688 434.050781 L 1375.414062 422.867188 L 1402.9375 412.425781 L 1429.921875 402.191406 L 1459.199219 391.085938 L 1486.519531 380.722656 L 1486.996094 380.542969 L 1487.472656 380.359375 L 1488.425781 380 L 1490.332031 379.277344 L 1494.140625 377.832031 L 1501.765625 374.9375 L 1502.71875 374.578125 L 1503.671875 374.214844 L 1509.390625 372.046875 L 1509.867188 371.867188 L 1510.34375 371.683594 L 1511.296875 371.324219 L 1513.203125 370.601562 L 1513.679688 370.421875 L 1514.15625 370.238281 L 1515.585938 369.699219 L 1516.0625 369.515625 L 1517.015625 369.15625 " transform="matrix(1,0,0,1,-99,-7.5)"/>
<path style="fill:none;stroke-width:3;stroke-linecap:square;stroke-linejoin:miter;stroke:rgb(92.252995%,38.5626%,20.918593%);stroke-opacity:1;stroke-miterlimit:3.25;" d="M 128.671875 895.769531 L 129.523438 895.394531 L 130.378906 895.023438 L 155.925781 883.832031 L 185.46875 870.890625 L 213.054688 858.808594 L 240.097656 846.964844 L 269.433594 834.117188 L 296.816406 822.125 L 326.484375 809.128906 L 355.617188 796.371094 L 382.789062 784.46875 L 412.253906 771.5625 L 439.757812 759.515625 L 466.726562 747.703125 L 495.984375 734.890625 L 523.28125 722.933594 L 552.875 709.972656 L 581.925781 697.246094 L 609.019531 685.382812 L 638.40625 672.511719 L 665.832031 660.496094 L 695.554688 647.480469 L 724.730469 634.699219 L 751.953125 622.777344 L 781.464844 609.851562 L 809.023438 597.78125 L 836.035156 585.949219 L 865.34375 573.113281 L 892.691406 561.136719 L 922.332031 548.152344 L 951.433594 535.40625 L 978.574219 523.519531 L 1008.007812 510.628906 L 1035.484375 498.59375 L 1062.421875 486.796875 L 1091.648438 473.992188 L 1118.917969 462.050781 L 1148.480469 449.101562 L 1176.085938 437.011719 L 1203.148438 425.160156 L 1232.503906 412.300781 L 1259.902344 400.300781 L 1289.589844 387.296875 L 1318.738281 374.53125 L 1345.929688 362.621094 L 1375.414062 349.707031 L 1402.9375 337.652344 L 1429.921875 325.832031 L 1459.199219 313.011719 L 1486.519531 301.042969 L 1487.472656 300.628906 L 1490.332031 299.375 L 1494.140625 297.707031 L 1501.765625 294.367188 L 1502.242188 294.15625 L 1502.71875 293.949219 L 1505.578125 292.695312 L 1509.390625 291.027344 L 1509.867188 290.820312 L 1510.34375 290.609375 L 1511.296875 290.191406 L 1513.203125 289.359375 L 1513.679688 289.148438 L 1514.15625 288.941406 L 1515.109375 288.523438 L 1515.585938 288.3125 L 1516.539062 287.898438 L 1517.015625 287.6875 " transform="matrix(1,0,0,1,-99,-7.5)"/>
<path style="fill:none;stroke-width:3;stroke-linecap:square;stroke-linejoin:miter;stroke:rgb(52.848096%,47.061875%,70.135042%);stroke-opacity:1;stroke-miterlimit:3.25;" d="M 128.671875 895.769531 L 129.097656 895.558594 L 129.523438 895.351562 L 130.378906 894.933594 L 132.082031 894.101562 L 135.488281 892.429688 L 155.925781 882.421875 L 185.46875 867.957031 L 213.054688 854.449219 L 240.097656 841.203125 L 269.433594 826.839844 L 296.816406 813.429688 L 326.484375 798.902344 L 355.617188 784.636719 L 382.789062 771.332031 L 412.253906 756.902344 L 439.757812 743.433594 L 466.726562 730.226562 L 495.984375 715.902344 L 523.28125 702.53125 L 552.875 688.042969 L 581.925781 673.816406 L 609.019531 660.546875 L 638.40625 646.160156 L 665.832031 632.726562 L 695.554688 618.171875 L 724.730469 603.886719 L 751.953125 590.554688 L 781.464844 576.101562 L 809.023438 562.609375 L 836.035156 549.378906 L 865.34375 535.03125 L 892.691406 521.636719 L 922.332031 507.121094 L 951.433594 492.871094 L 978.574219 479.582031 L 1008.007812 465.167969 L 1035.484375 451.710938 L 1062.421875 438.523438 L 1091.648438 424.210938 L 1118.917969 410.855469 L 1148.480469 396.378906 L 1176.085938 382.863281 L 1203.148438 369.609375 L 1232.503906 355.234375 L 1259.902344 341.820312 L 1289.589844 327.28125 L 1318.738281 313.007812 L 1345.929688 299.691406 L 1375.414062 285.253906 L 1402.9375 271.773438 L 1429.921875 258.5625 L 1459.199219 244.226562 L 1486.519531 230.847656 L 1487.472656 230.378906 L 1488.425781 229.914062 L 1490.332031 228.980469 L 1494.140625 227.113281 L 1501.765625 223.378906 L 1502.242188 223.148438 L 1503.671875 222.445312 L 1505.578125 221.515625 L 1509.390625 219.648438 L 1510.34375 219.179688 L 1511.296875 218.714844 L 1513.203125 217.78125 L 1514.15625 217.3125 L 1515.109375 216.847656 L 1516.0625 216.378906 L 1516.539062 216.148438 L 1517.015625 215.914062 " transform="matrix(1,0,0,1,-99,-7.5)"/>
<path style="fill:none;stroke-width:3;stroke-linecap:square;stroke-linejoin:miter;stroke:rgb(77.207599%,43.155566%,10.238804%);stroke-opacity:1;stroke-miterlimit:3.25;" d="M 128.671875 895.769531 L 129.097656 895.539062 L 129.523438 895.3125 L 130.378906 894.855469 L 142.300781 888.457031 L 155.925781 881.148438 L 185.46875 865.300781 L 213.054688 850.503906 L 240.097656 835.996094 L 269.433594 820.257812 L 296.816406 805.574219 L 326.484375 789.65625 L 355.617188 774.03125 L 382.789062 759.453125 L 412.253906 743.648438 L 439.757812 728.894531 L 466.726562 714.429688 L 495.984375 698.734375 L 523.28125 684.089844 L 552.875 668.214844 L 581.925781 652.632812 L 609.019531 638.097656 L 638.40625 622.335938 L 665.832031 607.621094 L 695.554688 591.679688 L 724.730469 576.027344 L 751.953125 561.425781 L 781.464844 545.59375 L 809.023438 530.8125 L 836.035156 516.320312 L 865.34375 500.597656 L 892.691406 485.929688 L 922.332031 470.027344 L 951.433594 454.417969 L 978.574219 439.859375 L 1008.007812 424.070312 L 1035.484375 409.328125 L 1062.421875 394.882812 L 1091.648438 379.203125 L 1118.917969 364.574219 L 1148.480469 348.714844 L 1176.085938 333.910156 L 1203.148438 319.390625 L 1232.503906 303.644531 L 1259.902344 288.949219 L 1289.589844 273.019531 L 1318.738281 257.386719 L 1345.929688 242.800781 L 1375.414062 226.984375 L 1402.9375 212.21875 L 1429.921875 197.742188 L 1459.199219 182.039062 L 1486.519531 167.382812 L 1486.996094 167.128906 L 1487.472656 166.871094 L 1488.425781 166.363281 L 1490.332031 165.339844 L 1494.140625 163.292969 L 1501.765625 159.203125 L 1502.242188 158.949219 L 1502.71875 158.691406 L 1503.671875 158.183594 L 1509.390625 155.113281 L 1510.34375 154.605469 L 1513.203125 153.070312 L 1513.679688 152.8125 L 1514.15625 152.558594 L 1515.109375 152.046875 L 1515.585938 151.792969 L 1516.0625 151.535156 L 1516.539062 151.28125 L 1517.015625 151.023438 " transform="matrix(1,0,0,1,-99,-7.5)"/>
<path style="fill:none;stroke-width:3;stroke-linecap:square;stroke-linejoin:miter;stroke:rgb(36.389715%,61.849393%,78.234531%);stroke-opacity:1;stroke-miterlimit:3.25;" d="M 128.671875 895.769531 L 129.097656 895.519531 L 129.523438 895.273438 L 130.378906 894.78125 L 132.082031 893.792969 L 135.488281 891.820312 L 142.300781 887.871094 L 155.925781 879.976562 L 185.46875 862.859375 L 213.054688 846.878906 L 240.097656 831.207031 L 269.433594 814.210938 L 296.816406 798.347656 L 326.484375 781.152344 L 355.617188 764.277344 L 382.789062 748.53125 L 412.253906 731.460938 L 439.757812 715.523438 L 466.726562 699.898438 L 495.984375 682.945312 L 523.28125 667.128906 L 552.875 649.984375 L 581.925781 633.148438 L 609.019531 617.453125 L 638.40625 600.425781 L 665.832031 584.535156 L 695.554688 567.3125 L 724.730469 550.40625 L 751.953125 534.636719 L 781.464844 517.535156 L 809.023438 501.570312 L 836.035156 485.917969 L 865.34375 468.9375 L 892.691406 453.089844 L 922.332031 435.917969 L 951.433594 419.054688 L 978.574219 403.328125 L 1008.007812 386.273438 L 1035.484375 370.355469 L 1062.421875 354.75 L 1091.648438 337.8125 L 1118.917969 322.011719 L 1148.480469 304.882812 L 1176.085938 288.890625 L 1203.148438 273.210938 L 1232.503906 256.203125 L 1259.902344 240.328125 L 1289.589844 223.125 L 1318.738281 206.234375 L 1345.929688 190.480469 L 1375.414062 173.398438 L 1402.9375 157.449219 L 1429.921875 141.816406 L 1459.199219 124.851562 L 1486.519531 109.023438 L 1486.996094 108.746094 L 1487.472656 108.472656 L 1488.425781 107.917969 L 1490.332031 106.816406 L 1494.140625 104.605469 L 1501.765625 100.1875 L 1502.242188 99.914062 L 1502.71875 99.636719 L 1503.671875 99.085938 L 1509.390625 95.769531 L 1509.867188 95.496094 L 1510.34375 95.21875 L 1511.296875 94.667969 L 1513.203125 93.5625 L 1513.679688 93.285156 L 1514.15625 93.011719 L 1515.109375 92.457031 L 1515.585938 92.183594 L 1516.539062 91.628906 L 1517.015625 91.355469 " transform="matrix(1,0,0,1,-99,-7.5)"/>
<path style="fill:none;stroke-width:0.3;stroke-linecap:butt;stroke-linejoin:miter;stroke:rgb(0%,0%,0%);stroke-opacity:1;stroke-miterlimit:3.25;" d="M 128.671875 895.769531 L 128.671875 891.769531 " transform="matrix(1,0,0,1,-99,-7.5)"/>
<path style="fill:none;stroke-width:0.3;stroke-linecap:butt;stroke-linejoin:miter;stroke:rgb(0%,0%,0%);stroke-opacity:1;stroke-miterlimit:3.25;" d="M 198.089844 895.769531 L 198.089844 893.367188 " transform="matrix(1,0,0,1,-99,-7.5)"/>
<path style="fill:none;stroke-width:0.3;stroke-linecap:butt;stroke-linejoin:miter;stroke:rgb(0%,0%,0%);stroke-opacity:1;stroke-miterlimit:3.25;" d="M 267.507812 895.769531 L 267.507812 893.367188 " transform="matrix(1,0,0,1,-99,-7.5)"/>
<path style="fill:none;stroke-width:0.3;stroke-linecap:butt;stroke-linejoin:miter;stroke:rgb(0%,0%,0%);stroke-opacity:1;stroke-miterlimit:3.25;" d="M 336.925781 895.769531 L 336.925781 893.367188 " transform="matrix(1,0,0,1,-99,-7.5)"/>
<path style="fill:none;stroke-width:0.3;stroke-linecap:butt;stroke-linejoin:miter;stroke:rgb(0%,0%,0%);stroke-opacity:1;stroke-miterlimit:3.25;" d="M 406.34375 895.769531 L 406.34375 891.769531 " transform="matrix(1,0,0,1,-99,-7.5)"/>
<g style="fill:rgb(0%,0%,0%);fill-opacity:1;">
  <use xlink:href="#glyph0-1" x="301.50226" y="911.778469"/>
</g>
<path style="fill:none;stroke-width:0.3;stroke-linecap:butt;stroke-linejoin:miter;stroke:rgb(0%,0%,0%);stroke-opacity:1;stroke-miterlimit:3.25;" d="M 475.757812 895.769531 L 475.757812 893.367188 " transform="matrix(1,0,0,1,-99,-7.5)"/>
<path style="fill:none;stroke-width:0.3;stroke-linecap:butt;stroke-linejoin:miter;stroke:rgb(0%,0%,0%);stroke-opacity:1;stroke-miterlimit:3.25;" d="M 545.175781 895.769531 L 545.175781 893.367188 " transform="matrix(1,0,0,1,-99,-7.5)"/>
<path style="fill:none;stroke-width:0.3;stroke-linecap:butt;stroke-linejoin:miter;stroke:rgb(0%,0%,0%);stroke-opacity:1;stroke-miterlimit:3.25;" d="M 614.59375 895.769531 L 614.59375 893.367188 " transform="matrix(1,0,0,1,-99,-7.5)"/>
<path style="fill:none;stroke-width:0.3;stroke-linecap:butt;stroke-linejoin:miter;stroke:rgb(0%,0%,0%);stroke-opacity:1;stroke-miterlimit:3.25;" d="M 684.011719 895.769531 L 684.011719 891.769531 " transform="matrix(1,0,0,1,-99,-7.5)"/>
<g style="fill:rgb(0%,0%,0%);fill-opacity:1;">
  <use xlink:href="#glyph0-2" x="579.170359" y="911.778469"/>
</g>
<path style="fill:none;stroke-width:0.3;stroke-linecap:butt;stroke-linejoin:miter;stroke:rgb(0%,0%,0%);stroke-opacity:1;stroke-miterlimit:3.25;" d="M 753.425781 895.769531 L 753.425781 893.367188 " transform="matrix(1,0,0,1,-99,-7.5)"/>
<path style="fill:none;stroke-width:0.3;stroke-linecap:butt;stroke-linejoin:miter;stroke:rgb(0%,0%,0%);stroke-opacity:1;stroke-miterlimit:3.25;" d="M 822.84375 895.769531 L 822.84375 893.367188 " transform="matrix(1,0,0,1,-99,-7.5)"/>
<path style="fill:none;stroke-width:0.3;stroke-linecap:butt;stroke-linejoin:miter;stroke:rgb(0%,0%,0%);stroke-opacity:1;stroke-miterlimit:3.25;" d="M 892.261719 895.769531 L 892.261719 893.367188 " transform="matrix(1,0,0,1,-99,-7.5)"/>
<path style="fill:none;stroke-width:0.3;stroke-linecap:butt;stroke-linejoin:miter;stroke:rgb(0%,0%,0%);stroke-opacity:1;stroke-miterlimit:3.25;" d="M 961.679688 895.769531 L 961.679688 891.769531 " transform="matrix(1,0,0,1,-99,-7.5)"/>
<g style="fill:rgb(0%,0%,0%);fill-opacity:1;">
  <use xlink:href="#glyph0-3" x="856.838458" y="911.778469"/>
</g>
<path style="fill:none;stroke-width:0.3;stroke-linecap:butt;stroke-linejoin:miter;stroke:rgb(0%,0%,0%);stroke-opacity:1;stroke-miterlimit:3.25;" d="M 1031.09375 895.769531 L 1031.09375 893.367188 " transform="matrix(1,0,0,1,-99,-7.5)"/>
<path style="fill:none;stroke-width:0.3;stroke-linecap:butt;stroke-linejoin:miter;stroke:rgb(0%,0%,0%);stroke-opacity:1;stroke-miterlimit:3.25;" d="M 1100.511719 895.769531 L 1100.511719 893.367188 " transform="matrix(1,0,0,1,-99,-7.5)"/>
<path style="fill:none;stroke-width:0.3;stroke-linecap:butt;stroke-linejoin:miter;stroke:rgb(0%,0%,0%);stroke-opacity:1;stroke-miterlimit:3.25;" d="M 1169.929688 895.769531 L 1169.929688 893.367188 " transform="matrix(1,0,0,1,-99,-7.5)"/>
<path style="fill:none;stroke-width:0.3;stroke-linecap:butt;stroke-linejoin:miter;stroke:rgb(0%,0%,0%);stroke-opacity:1;stroke-miterlimit:3.25;" d="M 1239.347656 895.769531 L 1239.347656 891.769531 " transform="matrix(1,0,0,1,-99,-7.5)"/>
<g style="fill:rgb(0%,0%,0%);fill-opacity:1;">
  <use xlink:href="#glyph0-4" x="1134.506558" y="911.778469"/>
</g>
<path style="fill:none;stroke-width:0.3;stroke-linecap:butt;stroke-linejoin:miter;stroke:rgb(0%,0%,0%);stroke-opacity:1;stroke-miterlimit:3.25;" d="M 1308.761719 895.769531 L 1308.761719 893.367188 " transform="matrix(1,0,0,1,-99,-7.5)"/>
<path style="fill:none;stroke-width:0.3;stroke-linecap:butt;stroke-linejoin:miter;stroke:rgb(0%,0%,0%);stroke-opacity:1;stroke-miterlimit:3.25;" d="M 1378.179688 895.769531 L 1378.179688 893.367188 " transform="matrix(1,0,0,1,-99,-7.5)"/>
<path style="fill:none;stroke-width:0.3;stroke-linecap:butt;stroke-linejoin:miter;stroke:rgb(0%,0%,0%);stroke-opacity:1;stroke-miterlimit:3.25;" d="M 1447.597656 895.769531 L 1447.597656 893.367188 " transform="matrix(1,0,0,1,-99,-7.5)"/>
<path style="fill:none;stroke-width:0.3;stroke-linecap:butt;stroke-linejoin:miter;stroke:rgb(0%,0%,0%);stroke-opacity:1;stroke-miterlimit:3.25;" d="M 1517.015625 895.769531 L 1517.015625 891.769531 " transform="matrix(1,0,0,1,-99,-7.5)"/>
<g style="fill:rgb(0%,0%,0%);fill-opacity:1;">
  <use xlink:href="#glyph0-5" x="1406.335058" y="911.778469"/>
  <use xlink:href="#glyph0-6" x="1418.014257" y="911.778469"/>
</g>
<path style="fill:none;stroke-width:0.3;stroke-linecap:square;stroke-linejoin:miter;stroke:rgb(40%,40%,40%);stroke-opacity:1;stroke-miterlimit:3.25;" d="M 99.75 895.769531 L 1545.9375 895.769531 " transform="matrix(1,0,0,1,-99,-7.5)"/>
<g style="fill:rgb(0%,0%,0%);fill-opacity:1;">
  <use xlink:href="#glyph1-1" x="1458.937988" y="897.628078"/>
</g>
<path style="fill:none;stroke-width:0.3;stroke-linecap:butt;stroke-linejoin:miter;stroke:rgb(0%,0%,0%);stroke-opacity:1;stroke-miterlimit:3.25;" d="M 128.671875 895.769531 L 132.671875 895.769531 " transform="matrix(1,0,0,1,-99,-7.5)"/>
<path style="fill:none;stroke-width:0.3;stroke-linecap:butt;stroke-linejoin:miter;stroke:rgb(0%,0%,0%);stroke-opacity:1;stroke-miterlimit:3.25;" d="M 128.671875 841.878906 L 131.074219 841.878906 " transform="matrix(1,0,0,1,-99,-7.5)"/>
<path style="fill:none;stroke-width:0.3;stroke-linecap:butt;stroke-linejoin:miter;stroke:rgb(0%,0%,0%);stroke-opacity:1;stroke-miterlimit:3.25;" d="M 128.671875 787.988281 L 131.074219 787.988281 " transform="matrix(1,0,0,1,-99,-7.5)"/>
<path style="fill:none;stroke-width:0.3;stroke-linecap:butt;stroke-linejoin:miter;stroke:rgb(0%,0%,0%);stroke-opacity:1;stroke-miterlimit:3.25;" d="M 128.671875 734.097656 L 131.074219 734.097656 " transform="matrix(1,0,0,1,-99,-7.5)"/>
<path style="fill:none;stroke-width:0.3;stroke-linecap:butt;stroke-linejoin:miter;stroke:rgb(0%,0%,0%);stroke-opacity:1;stroke-miterlimit:3.25;" d="M 128.671875 680.210938 L 132.671875 680.210938 " transform="matrix(1,0,0,1,-99,-7.5)"/>
<g style="fill:rgb(0%,0%,0%);fill-opacity:1;">
  <use xlink:href="#glyph0-1" x="13.494561" y="679.98931"/>
</g>
<path style="fill:none;stroke-width:0.3;stroke-linecap:butt;stroke-linejoin:miter;stroke:rgb(0%,0%,0%);stroke-opacity:1;stroke-miterlimit:3.25;" d="M 128.671875 626.320312 L 131.074219 626.320312 " transform="matrix(1,0,0,1,-99,-7.5)"/>
<path style="fill:none;stroke-width:0.3;stroke-linecap:butt;stroke-linejoin:miter;stroke:rgb(0%,0%,0%);stroke-opacity:1;stroke-miterlimit:3.25;" d="M 128.671875 572.429688 L 131.074219 572.429688 " transform="matrix(1,0,0,1,-99,-7.5)"/>
<path style="fill:none;stroke-width:0.3;stroke-linecap:butt;stroke-linejoin:miter;stroke:rgb(0%,0%,0%);stroke-opacity:1;stroke-miterlimit:3.25;" d="M 128.671875 518.539062 L 131.074219 518.539062 " transform="matrix(1,0,0,1,-99,-7.5)"/>
<path style="fill:none;stroke-width:0.3;stroke-linecap:butt;stroke-linejoin:miter;stroke:rgb(0%,0%,0%);stroke-opacity:1;stroke-miterlimit:3.25;" d="M 128.671875 464.648438 L 132.671875 464.648438 " transform="matrix(1,0,0,1,-99,-7.5)"/>
<g style="fill:rgb(0%,0%,0%);fill-opacity:1;">
  <use xlink:href="#glyph0-2" x="13.494561" y="464.43062"/>
</g>
<path style="fill:none;stroke-width:0.3;stroke-linecap:butt;stroke-linejoin:miter;stroke:rgb(0%,0%,0%);stroke-opacity:1;stroke-miterlimit:3.25;" d="M 128.671875 410.761719 L 131.074219 410.761719 " transform="matrix(1,0,0,1,-99,-7.5)"/>
<path style="fill:none;stroke-width:0.3;stroke-linecap:butt;stroke-linejoin:miter;stroke:rgb(0%,0%,0%);stroke-opacity:1;stroke-miterlimit:3.25;" d="M 128.671875 356.871094 L 131.074219 356.871094 " transform="matrix(1,0,0,1,-99,-7.5)"/>
<path style="fill:none;stroke-width:0.3;stroke-linecap:butt;stroke-linejoin:miter;stroke:rgb(0%,0%,0%);stroke-opacity:1;stroke-miterlimit:3.25;" d="M 128.671875 302.980469 L 131.074219 302.980469 " transform="matrix(1,0,0,1,-99,-7.5)"/>
<path style="fill:none;stroke-width:0.3;stroke-linecap:butt;stroke-linejoin:miter;stroke:rgb(0%,0%,0%);stroke-opacity:1;stroke-miterlimit:3.25;" d="M 128.671875 249.089844 L 132.671875 249.089844 " transform="matrix(1,0,0,1,-99,-7.5)"/>
<g style="fill:rgb(0%,0%,0%);fill-opacity:1;">
  <use xlink:href="#glyph0-3" x="13.494561" y="248.87193"/>
</g>
<path style="fill:none;stroke-width:0.3;stroke-linecap:butt;stroke-linejoin:miter;stroke:rgb(0%,0%,0%);stroke-opacity:1;stroke-miterlimit:3.25;" d="M 128.671875 195.203125 L 131.074219 195.203125 " transform="matrix(1,0,0,1,-99,-7.5)"/>
<path style="fill:none;stroke-width:0.3;stroke-linecap:butt;stroke-linejoin:miter;stroke:rgb(0%,0%,0%);stroke-opacity:1;stroke-miterlimit:3.25;" d="M 128.671875 141.3125 L 131.074219 141.3125 " transform="matrix(1,0,0,1,-99,-7.5)"/>
<path style="fill:none;stroke-width:0.3;stroke-linecap:butt;stroke-linejoin:miter;stroke:rgb(0%,0%,0%);stroke-opacity:1;stroke-miterlimit:3.25;" d="M 128.671875 87.421875 L 131.074219 87.421875 " transform="matrix(1,0,0,1,-99,-7.5)"/>
<path style="fill:none;stroke-width:0.3;stroke-linecap:square;stroke-linejoin:miter;stroke:rgb(40%,40%,40%);stroke-opacity:1;stroke-miterlimit:3.25;" d="M 128.671875 940.457031 L 128.671875 46.664062 " transform="matrix(1,0,0,1,-99,-7.5)"/>
<g style="fill:rgb(0%,0%,0%);fill-opacity:1;">
  <use xlink:href="#glyph2-1" x="8.342705" y="24.442383"/>
</g>
<g style="fill:rgb(0%,0%,0%);fill-opacity:1;">
  <use xlink:href="#glyph1-2" x="18.929131" y="24.442383"/>
</g>
<g style="fill:rgb(0%,0%,0%);fill-opacity:1;">
  <use xlink:href="#glyph1-1" x="27.920342" y="24.442383"/>
</g>
<g style="fill:rgb(0%,0%,0%);fill-opacity:1;">
  <use xlink:href="#glyph1-3" x="42.013604" y="24.442383"/>
</g>
<g style="fill:rgb(0%,0%,0%);fill-opacity:1;">
  <use xlink:href="#glyph2-2" x="1507.878735" y="355.228038"/>
</g>
<g clip-path="url(#clip1)" clip-rule="nonzero">
<path style="fill:none;stroke-width:3;stroke-linecap:square;stroke-linejoin:miter;stroke:rgb(36.841382%,50.678264%,70.980392%);stroke-opacity:1;stroke-miterlimit:3.25;" d="M 1589.832031 386.152344 L 1615.832031 386.152344 " transform="matrix(1,0,0,1,-99,-7.5)"/>
</g>
<g style="fill:rgb(0%,0%,0%);fill-opacity:1;">
  <use xlink:href="#glyph3-1" x="1529.08125" y="385.153038"/>
</g>
<g clip-path="url(#clip2)" clip-rule="nonzero">
<path style="fill:none;stroke-width:3;stroke-linecap:square;stroke-linejoin:miter;stroke:rgb(88.072023%,61.104753%,14.204623%);stroke-opacity:1;stroke-miterlimit:3.25;" d="M 1589.832031 421.230469 L 1615.832031 421.230469 " transform="matrix(1,0,0,1,-99,-7.5)"/>
</g>
<g style="fill:rgb(0%,0%,0%);fill-opacity:1;">
  <use xlink:href="#glyph3-2" x="1529.08125" y="420.231797"/>
</g>
<g clip-path="url(#clip3)" clip-rule="nonzero">
<path style="fill:none;stroke-width:3;stroke-linecap:square;stroke-linejoin:miter;stroke:rgb(56.017395%,69.156939%,19.488823%);stroke-opacity:1;stroke-miterlimit:3.25;" d="M 1589.832031 456.3125 L 1615.832031 456.3125 " transform="matrix(1,0,0,1,-99,-7.5)"/>
</g>
<g style="fill:rgb(0%,0%,0%);fill-opacity:1;">
  <use xlink:href="#glyph3-3" x="1529.08125" y="455.310557"/>
</g>
<g clip-path="url(#clip4)" clip-rule="nonzero">
<path style="fill:none;stroke-width:3;stroke-linecap:square;stroke-linejoin:miter;stroke:rgb(92.252995%,38.5626%,20.918593%);stroke-opacity:1;stroke-miterlimit:3.25;" d="M 1589.832031 491.390625 L 1615.832031 491.390625 " transform="matrix(1,0,0,1,-99,-7.5)"/>
</g>
<g style="fill:rgb(0%,0%,0%);fill-opacity:1;">
  <use xlink:href="#glyph3-4" x="1529.08125" y="490.389317"/>
</g>
<g clip-path="url(#clip5)" clip-rule="nonzero">
<path style="fill:none;stroke-width:3;stroke-linecap:square;stroke-linejoin:miter;stroke:rgb(52.848096%,47.061875%,70.135042%);stroke-opacity:1;stroke-miterlimit:3.25;" d="M 1589.832031 526.46875 L 1615.832031 526.46875 " transform="matrix(1,0,0,1,-99,-7.5)"/>
</g>
<g style="fill:rgb(0%,0%,0%);fill-opacity:1;">
  <use xlink:href="#glyph3-5" x="1529.08125" y="525.468077"/>
</g>
<g clip-path="url(#clip6)" clip-rule="nonzero">
<path style="fill:none;stroke-width:3;stroke-linecap:square;stroke-linejoin:miter;stroke:rgb(77.207599%,43.155566%,10.238804%);stroke-opacity:1;stroke-miterlimit:3.25;" d="M 1589.832031 561.546875 L 1615.832031 561.546875 " transform="matrix(1,0,0,1,-99,-7.5)"/>
</g>
<g style="fill:rgb(0%,0%,0%);fill-opacity:1;">
  <use xlink:href="#glyph3-6" x="1529.08125" y="560.546836"/>
</g>
<g clip-path="url(#clip7)" clip-rule="nonzero">
<path style="fill:none;stroke-width:3;stroke-linecap:square;stroke-linejoin:miter;stroke:rgb(36.389715%,61.849393%,78.234531%);stroke-opacity:1;stroke-miterlimit:3.25;" d="M 1589.832031 596.625 L 1615.832031 596.625 " transform="matrix(1,0,0,1,-99,-7.5)"/>
</g>
<g style="fill:rgb(0%,0%,0%);fill-opacity:1;">
  <use xlink:href="#glyph3-7" x="1529.08125" y="595.625596"/>
</g>
</g>
</svg>
