<?xml version="1.0" encoding="UTF-8"?>
<svg xmlns="http://www.w3.org/2000/svg" xmlns:xlink="http://www.w3.org/1999/xlink" width="1556pt" height="923pt" viewBox="0 0 1556 923" version="1.1">
<defs>
<g>
<symbol overflow="visible" id="glyph0-0">
<path style="stroke:none;" d="M 2.625 0 L 2.625 -13.125 L 13.125 -13.125 L 13.125 0 Z M 2.953125 -0.328125 L 12.796875 -0.328125 L 12.796875 -12.796875 L 2.953125 -12.796875 Z M 2.953125 -0.328125 "/>
</symbol>
<symbol overflow="visible" id="glyph0-1">
<path style="stroke:none;" d="M 10.570312 -1.773438 L 10.570312 0 L 0.636719 0 C 0.621094 -0.445312 0.695312 -0.871094 0.851562 -1.28125 C 1.105469 -1.957031 1.507812 -2.625 2.066406 -3.28125 C 2.625 -3.9375 3.429688 -4.695312 4.480469 -5.558594 C 6.113281 -6.898438 7.21875 -7.957031 7.792969 -8.742188 C 8.367188 -9.523438 8.65625 -10.265625 8.65625 -10.960938 C 8.65625 -11.691406 8.394531 -12.308594 7.871094 -12.8125 C 7.347656 -13.316406 6.664062 -13.566406 5.824219 -13.566406 C 4.9375 -13.566406 4.226562 -13.300781 3.691406 -12.765625 C 3.15625 -12.234375 2.886719 -11.496094 2.882812 -10.550781 L 0.984375 -10.746094 C 1.113281 -12.160156 1.601562 -13.238281 2.449219 -13.980469 C 3.296875 -14.722656 4.4375 -15.09375 5.867188 -15.09375 C 7.308594 -15.09375 8.449219 -14.695312 9.289062 -13.894531 C 10.128906 -13.09375 10.550781 -12.101562 10.550781 -10.921875 C 10.550781 -10.320312 10.429688 -9.726562 10.183594 -9.148438 C 9.9375 -8.566406 9.527344 -7.953125 8.957031 -7.3125 C 8.386719 -6.667969 7.4375 -5.785156 6.109375 -4.664062 C 5.003906 -3.734375 4.292969 -3.105469 3.976562 -2.773438 C 3.664062 -2.441406 3.40625 -2.109375 3.199219 -1.773438 Z M 10.570312 -1.773438 "/>
</symbol>
<symbol overflow="visible" id="glyph0-2">
<path style="stroke:none;" d="M 6.789062 0 L 6.789062 -3.597656 L 0.265625 -3.597656 L 0.265625 -5.289062 L 7.125 -15.03125 L 8.632812 -15.03125 L 8.632812 -5.289062 L 10.664062 -5.289062 L 10.664062 -3.597656 L 8.632812 -3.597656 L 8.632812 0 Z M 6.789062 -5.289062 L 6.789062 -12.070312 L 2.082031 -5.289062 Z M 6.789062 -5.289062 "/>
</symbol>
<symbol overflow="visible" id="glyph0-3">
<path style="stroke:none;" d="M 10.449219 -11.351562 L 8.613281 -11.207031 C 8.449219 -11.933594 8.21875 -12.457031 7.914062 -12.785156 C 7.417969 -13.3125 6.800781 -13.578125 6.070312 -13.578125 C 5.484375 -13.578125 4.964844 -13.414062 4.523438 -13.085938 C 3.941406 -12.660156 3.484375 -12.042969 3.148438 -11.226562 C 2.8125 -10.414062 2.640625 -9.257812 2.625 -7.75 C 3.070312 -8.429688 3.613281 -8.929688 4.253906 -9.257812 C 4.898438 -9.585938 5.570312 -9.75 6.273438 -9.75 C 7.503906 -9.75 8.554688 -9.296875 9.417969 -8.394531 C 10.28125 -7.488281 10.714844 -6.316406 10.714844 -4.882812 C 10.714844 -3.9375 10.511719 -3.0625 10.105469 -2.25 C 9.699219 -1.441406 9.140625 -0.820312 8.429688 -0.390625 C 7.71875 0.0390625 6.910156 0.257812 6.007812 0.257812 C 4.46875 0.257812 3.214844 -0.308594 2.246094 -1.441406 C 1.273438 -2.570312 0.789062 -4.4375 0.789062 -7.035156 C 0.789062 -9.941406 1.328125 -12.050781 2.398438 -13.371094 C 3.335938 -14.519531 4.597656 -15.09375 6.183594 -15.09375 C 7.367188 -15.09375 8.335938 -14.761719 9.089844 -14.097656 C 9.84375 -13.4375 10.296875 -12.519531 10.449219 -11.351562 Z M 2.914062 -4.871094 C 2.914062 -4.234375 3.046875 -3.625 3.316406 -3.046875 C 3.585938 -2.464844 3.964844 -2.023438 4.449219 -1.71875 C 4.933594 -1.414062 5.445312 -1.261719 5.976562 -1.261719 C 6.757812 -1.261719 7.425781 -1.574219 7.988281 -2.203125 C 8.546875 -2.832031 8.828125 -3.6875 8.828125 -4.769531 C 8.828125 -5.808594 8.550781 -6.625 8 -7.222656 C 7.445312 -7.820312 6.746094 -8.121094 5.90625 -8.121094 C 5.070312 -8.121094 4.363281 -7.820312 3.785156 -7.222656 C 3.203125 -6.625 2.914062 -5.839844 2.914062 -4.871094 Z M 2.914062 -4.871094 "/>
</symbol>
<symbol overflow="visible" id="glyph0-4">
<path style="stroke:none;" d="M 3.710938 -8.152344 C 2.945312 -8.433594 2.378906 -8.832031 2.007812 -9.351562 C 1.640625 -9.871094 1.457031 -10.492188 1.457031 -11.21875 C 1.457031 -12.3125 1.847656 -13.230469 2.636719 -13.976562 C 3.421875 -14.722656 4.46875 -15.09375 5.773438 -15.09375 C 7.085938 -15.09375 8.140625 -14.710938 8.941406 -13.949219 C 9.742188 -13.1875 10.140625 -12.261719 10.140625 -11.167969 C 10.140625 -10.46875 9.957031 -9.863281 9.59375 -9.347656 C 9.226562 -8.832031 8.671875 -8.433594 7.925781 -8.152344 C 8.847656 -7.851562 9.550781 -7.367188 10.035156 -6.695312 C 10.515625 -6.027344 10.757812 -5.226562 10.757812 -4.296875 C 10.757812 -3.011719 10.300781 -1.929688 9.390625 -1.054688 C 8.484375 -0.179688 7.289062 0.257812 5.804688 0.257812 C 4.320312 0.257812 3.125 -0.183594 2.214844 -1.0625 C 1.304688 -1.941406 0.851562 -3.035156 0.851562 -4.347656 C 0.851562 -5.324219 1.097656 -6.144531 1.59375 -6.804688 C 2.089844 -7.464844 2.796875 -7.914062 3.710938 -8.152344 Z M 3.34375 -11.28125 C 3.34375 -10.570312 3.570312 -9.988281 4.03125 -9.535156 C 4.488281 -9.085938 5.082031 -8.859375 5.8125 -8.859375 C 6.523438 -8.859375 7.109375 -9.082031 7.5625 -9.53125 C 8.015625 -9.980469 8.242188 -10.527344 8.242188 -11.175781 C 8.242188 -11.851562 8.011719 -12.421875 7.542969 -12.882812 C 7.074219 -13.34375 6.492188 -13.578125 5.792969 -13.578125 C 5.089844 -13.578125 4.503906 -13.351562 4.039062 -12.898438 C 3.574219 -12.449219 3.34375 -11.90625 3.34375 -11.28125 Z M 2.75 -4.335938 C 2.75 -3.8125 2.871094 -3.300781 3.121094 -2.808594 C 3.371094 -2.316406 3.742188 -1.9375 4.234375 -1.667969 C 4.726562 -1.398438 5.257812 -1.261719 5.824219 -1.261719 C 6.707031 -1.261719 7.433594 -1.546875 8.007812 -2.113281 C 8.582031 -2.679688 8.871094 -3.402344 8.871094 -4.277344 C 8.871094 -5.164062 8.574219 -5.898438 7.984375 -6.480469 C 7.390625 -7.0625 6.652344 -7.351562 5.761719 -7.351562 C 4.894531 -7.351562 4.175781 -7.066406 3.605469 -6.492188 C 3.035156 -5.917969 2.75 -5.199219 2.75 -4.335938 Z M 2.75 -4.335938 "/>
</symbol>
<symbol overflow="visible" id="glyph0-5">
<path style="stroke:none;" d="M 7.824219 0 L 5.976562 0 L 5.976562 -11.761719 C 5.53125 -11.335938 4.949219 -10.914062 4.230469 -10.488281 C 3.507812 -10.066406 2.859375 -9.75 2.285156 -9.535156 L 2.285156 -11.320312 C 3.320312 -11.804688 4.222656 -12.394531 4.992188 -13.085938 C 5.765625 -13.773438 6.3125 -14.445312 6.632812 -15.09375 L 7.824219 -15.09375 Z M 7.824219 0 "/>
</symbol>
<symbol overflow="visible" id="glyph0-6">
<path style="stroke:none;" d="M 0.871094 -7.414062 C 0.871094 -9.191406 1.054688 -10.621094 1.421875 -11.703125 C 1.785156 -12.789062 2.328125 -13.625 3.050781 -14.210938 C 3.773438 -14.800781 4.679688 -15.09375 5.773438 -15.09375 C 6.578125 -15.09375 7.289062 -14.929688 7.894531 -14.605469 C 8.503906 -14.28125 9.007812 -13.8125 9.402344 -13.203125 C 9.800781 -12.589844 10.109375 -11.84375 10.335938 -10.964844 C 10.5625 -10.085938 10.675781 -8.902344 10.675781 -7.414062 C 10.675781 -5.648438 10.492188 -4.226562 10.132812 -3.144531 C 9.769531 -2.058594 9.226562 -1.222656 8.503906 -0.628906 C 7.785156 -0.0390625 6.875 0.257812 5.773438 0.257812 C 4.324219 0.257812 3.1875 -0.261719 2.359375 -1.300781 C 1.367188 -2.554688 0.871094 -4.589844 0.871094 -7.414062 Z M 2.769531 -7.414062 C 2.769531 -4.945312 3.058594 -3.304688 3.636719 -2.488281 C 4.214844 -1.671875 4.925781 -1.261719 5.773438 -1.261719 C 6.621094 -1.261719 7.332031 -1.671875 7.910156 -2.492188 C 8.488281 -3.3125 8.777344 -4.953125 8.777344 -7.414062 C 8.777344 -9.886719 8.488281 -11.53125 7.910156 -12.34375 C 7.332031 -13.160156 6.613281 -13.566406 5.753906 -13.566406 C 4.90625 -13.566406 4.226562 -13.207031 3.722656 -12.488281 C 3.085938 -11.574219 2.769531 -9.882812 2.769531 -7.414062 Z M 2.769531 -7.414062 "/>
</symbol>
<symbol overflow="visible" id="glyph0-7">
<path style="stroke:none;" d="M 1.90625 0 L 1.90625 -2.101562 L 4.007812 -2.101562 L 4.007812 0 Z M 1.90625 0 "/>
</symbol>
<symbol overflow="visible" id="glyph0-8">
<path style="stroke:none;" d="M 0.871094 -3.9375 L 2.808594 -4.101562 C 2.953125 -3.15625 3.285156 -2.449219 3.808594 -1.972656 C 4.332031 -1.5 4.960938 -1.261719 5.703125 -1.261719 C 6.589844 -1.261719 7.34375 -1.597656 7.957031 -2.265625 C 8.570312 -2.9375 8.878906 -3.824219 8.878906 -4.933594 C 8.878906 -5.984375 8.585938 -6.816406 7.992188 -7.421875 C 7.402344 -8.03125 6.628906 -8.335938 5.671875 -8.335938 C 5.078125 -8.335938 4.539062 -8.203125 4.0625 -7.929688 C 3.582031 -7.660156 3.207031 -7.3125 2.933594 -6.878906 L 1.199219 -7.105469 L 2.65625 -14.828125 L 10.132812 -14.828125 L 10.132812 -13.0625 L 4.132812 -13.0625 L 3.320312 -9.023438 C 4.222656 -9.652344 5.171875 -9.96875 6.164062 -9.96875 C 7.476562 -9.96875 8.582031 -9.511719 9.484375 -8.601562 C 10.386719 -7.695312 10.839844 -6.523438 10.839844 -5.097656 C 10.839844 -3.734375 10.441406 -2.558594 9.648438 -1.570312 C 8.683594 -0.351562 7.367188 0.257812 5.703125 0.257812 C 4.335938 0.257812 3.21875 -0.125 2.351562 -0.890625 C 1.488281 -1.65625 0.996094 -2.671875 0.871094 -3.9375 Z M 0.871094 -3.9375 "/>
</symbol>
<symbol overflow="visible" id="glyph1-0">
<path style="stroke:none;" d="M 1.6875 0 L 1.6875 -21.59375 L 11.8125 -21.59375 L 11.8125 0 Z M 3.375 -1.6875 L 10.125 -1.6875 L 10.125 -19.90625 L 3.375 -19.90625 Z M 3.375 -1.6875 "/>
</symbol>
<symbol overflow="visible" id="glyph1-1">
<path style="stroke:none;" d="M 14.09375 -19.65625 L 13.671875 -17.707031 L 11.878906 -17.707031 C 11.542969 -17.707031 11.191406 -17.691406 10.824219 -17.660156 C 10.453125 -17.628906 10.089844 -17.574219 9.730469 -17.5 C 9.371094 -17.425781 9.023438 -17.320312 8.695312 -17.179688 C 8.367188 -17.039062 8.078125 -16.859375 7.832031 -16.644531 C 7.585938 -16.429688 7.386719 -16.164062 7.238281 -15.851562 C 7.089844 -15.539062 7.015625 -15.175781 7.015625 -14.753906 C 7.015625 -14.347656 7.140625 -14.023438 7.390625 -13.777344 C 7.640625 -13.53125 7.957031 -13.34375 8.339844 -13.210938 C 8.722656 -13.078125 9.144531 -12.992188 9.609375 -12.945312 C 10.078125 -12.902344 10.523438 -12.878906 10.957031 -12.878906 C 11.203125 -12.878906 11.433594 -12.882812 11.648438 -12.894531 C 11.863281 -12.902344 12.058594 -12.910156 12.234375 -12.921875 C 12.289062 -12.921875 12.335938 -12.921875 12.386719 -12.925781 C 12.433594 -12.929688 12.480469 -12.933594 12.523438 -12.933594 L 12.117188 -10.996094 C 11.183594 -10.996094 10.289062 -10.867188 9.425781 -10.605469 C 8.566406 -10.347656 7.769531 -9.925781 7.039062 -9.347656 C 6.6875 -9.066406 6.355469 -8.75 6.042969 -8.40625 C 5.730469 -8.058594 5.457031 -7.6875 5.21875 -7.289062 C 4.984375 -6.894531 4.796875 -6.480469 4.660156 -6.042969 C 4.523438 -5.609375 4.457031 -5.160156 4.457031 -4.695312 C 4.457031 -4.191406 4.550781 -3.789062 4.738281 -3.488281 C 4.929688 -3.183594 5.179688 -2.941406 5.492188 -2.761719 C 5.804688 -2.582031 6.160156 -2.445312 6.558594 -2.347656 C 6.957031 -2.25 7.367188 -2.164062 7.785156 -2.082031 C 8.203125 -2.003906 8.609375 -1.914062 9.011719 -1.820312 C 9.410156 -1.722656 9.765625 -1.578125 10.078125 -1.382812 C 10.390625 -1.191406 10.640625 -0.933594 10.832031 -0.613281 C 11.019531 -0.292969 11.113281 0.128906 11.113281 0.644531 C 11.113281 1.472656 10.921875 2.195312 10.535156 2.816406 C 10.148438 3.433594 9.648438 3.949219 9.042969 4.363281 C 8.4375 4.777344 7.761719 5.089844 7.015625 5.304688 C 6.265625 5.519531 5.53125 5.640625 4.8125 5.667969 L 5.90625 3.480469 C 6.214844 3.453125 6.535156 3.394531 6.867188 3.300781 C 7.203125 3.210938 7.507812 3.078125 7.785156 2.90625 C 8.0625 2.734375 8.289062 2.519531 8.46875 2.253906 C 8.648438 1.992188 8.742188 1.675781 8.742188 1.304688 C 8.742188 1.007812 8.644531 0.777344 8.449219 0.621094 C 8.257812 0.460938 8.003906 0.335938 7.6875 0.238281 C 7.371094 0.140625 7.007812 0.0625 6.605469 0 C 6.199219 -0.0625 5.785156 -0.140625 5.359375 -0.238281 C 4.933594 -0.335938 4.515625 -0.464844 4.113281 -0.632812 C 3.710938 -0.800781 3.347656 -1.03125 3.03125 -1.332031 C 2.714844 -1.628906 2.460938 -2.015625 2.265625 -2.484375 C 2.074219 -2.953125 1.976562 -3.542969 1.976562 -4.246094 C 1.976562 -5.097656 2.136719 -5.902344 2.453125 -6.65625 C 2.769531 -7.414062 3.191406 -8.101562 3.71875 -8.726562 C 4.246094 -9.351562 4.855469 -9.902344 5.542969 -10.382812 C 6.234375 -10.859375 6.953125 -11.253906 7.699219 -11.5625 C 7.304688 -11.625 6.933594 -11.734375 6.585938 -11.898438 C 6.238281 -12.0625 5.933594 -12.265625 5.675781 -12.519531 C 5.417969 -12.769531 5.214844 -13.066406 5.070312 -13.40625 C 4.925781 -13.75 4.851562 -14.136719 4.851562 -14.566406 C 4.851562 -15.15625 4.953125 -15.691406 5.15625 -16.167969 C 5.359375 -16.648438 5.628906 -17.078125 5.964844 -17.453125 C 6.304688 -17.832031 6.703125 -18.160156 7.160156 -18.4375 C 7.617188 -18.714844 8.097656 -18.941406 8.609375 -19.121094 C 9.117188 -19.300781 9.640625 -19.4375 10.179688 -19.523438 C 10.714844 -19.613281 11.234375 -19.65625 11.734375 -19.65625 Z M 14.09375 -19.65625 "/>
</symbol>
<symbol overflow="visible" id="glyph1-2">
<path style="stroke:none;" d="M 16.386719 -14.066406 C 16.386719 -13.320312 16.335938 -12.582031 16.230469 -11.851562 C 16.125 -11.121094 15.996094 -10.394531 15.847656 -9.664062 C 15.6875 -8.933594 15.496094 -8.183594 15.265625 -7.410156 C 15.039062 -6.636719 14.761719 -5.878906 14.4375 -5.136719 C 14.109375 -4.394531 13.726562 -3.691406 13.289062 -3.03125 C 12.851562 -2.371094 12.34375 -1.792969 11.773438 -1.292969 C 11.203125 -0.792969 10.558594 -0.394531 9.839844 -0.105469 C 9.125 0.183594 8.324219 0.328125 7.4375 0.328125 C 6.546875 0.328125 5.804688 0.1875 5.207031 -0.09375 C 4.609375 -0.375 4.125 -0.765625 3.757812 -1.265625 C 3.386719 -1.765625 3.125 -2.359375 2.964844 -3.039062 C 2.808594 -3.71875 2.730469 -4.460938 2.730469 -5.261719 C 2.730469 -6.007812 2.78125 -6.746094 2.886719 -7.476562 C 2.992188 -8.203125 3.121094 -8.933594 3.269531 -9.664062 C 3.417969 -10.382812 3.609375 -11.132812 3.84375 -11.910156 C 4.078125 -12.6875 4.355469 -13.445312 4.6875 -14.1875 C 5.015625 -14.925781 5.398438 -15.625 5.832031 -16.289062 C 6.269531 -16.953125 6.773438 -17.535156 7.351562 -18.035156 C 7.925781 -18.535156 8.570312 -18.929688 9.289062 -19.222656 C 10.003906 -19.511719 10.800781 -19.65625 11.679688 -19.65625 C 12.558594 -19.65625 13.300781 -19.515625 13.902344 -19.234375 C 14.503906 -18.953125 14.988281 -18.5625 15.359375 -18.0625 C 15.726562 -17.5625 15.992188 -16.96875 16.148438 -16.289062 C 16.308594 -15.609375 16.386719 -14.867188 16.386719 -14.066406 Z M 14.015625 -13.960938 C 14.015625 -14.425781 13.976562 -14.882812 13.902344 -15.332031 C 13.828125 -15.78125 13.6875 -16.179688 13.480469 -16.53125 C 13.273438 -16.882812 12.992188 -17.167969 12.636719 -17.382812 C 12.28125 -17.597656 11.824219 -17.707031 11.273438 -17.707031 C 10.710938 -17.707031 10.203125 -17.59375 9.75 -17.371094 C 9.296875 -17.144531 8.886719 -16.84375 8.523438 -16.464844 C 8.160156 -16.085938 7.835938 -15.65625 7.5625 -15.167969 C 7.285156 -14.679688 7.039062 -14.175781 6.828125 -13.652344 C 6.617188 -13.128906 6.4375 -12.605469 6.289062 -12.082031 C 6.140625 -11.558594 6.011719 -11.078125 5.90625 -10.640625 L 13.632812 -10.640625 C 13.746094 -11.195312 13.839844 -11.746094 13.910156 -12.292969 C 13.980469 -12.84375 14.015625 -13.398438 14.015625 -13.960938 Z M 13.234375 -8.6875 L 5.523438 -8.6875 C 5.417969 -8.132812 5.332031 -7.582031 5.261719 -7.035156 C 5.191406 -6.484375 5.15625 -5.933594 5.15625 -5.378906 C 5.15625 -4.921875 5.191406 -4.46875 5.265625 -4.019531 C 5.339844 -3.570312 5.476562 -3.171875 5.675781 -2.816406 C 5.875 -2.460938 6.144531 -2.171875 6.492188 -1.953125 C 6.839844 -1.730469 7.289062 -1.621094 7.84375 -1.621094 C 8.40625 -1.621094 8.917969 -1.734375 9.378906 -1.957031 C 9.839844 -2.179688 10.253906 -2.480469 10.621094 -2.855469 C 10.984375 -3.226562 11.304688 -3.660156 11.582031 -4.144531 C 11.859375 -4.632812 12.101562 -5.140625 12.3125 -5.664062 C 12.523438 -6.1875 12.703125 -6.707031 12.855469 -7.230469 C 13.003906 -7.753906 13.132812 -8.238281 13.234375 -8.6875 Z M 13.234375 -8.6875 "/>
</symbol>
<symbol overflow="visible" id="glyph1-3">
<path style="stroke:none;" d="M 8.015625 5.667969 L 6.316406 5.667969 C 5.613281 4.773438 4.972656 3.824219 4.398438 2.828125 C 3.820312 1.832031 3.328125 0.796875 2.914062 -0.277344 C 2.5 -1.347656 2.183594 -2.449219 1.957031 -3.574219 C 1.734375 -4.699219 1.621094 -5.835938 1.621094 -6.988281 C 1.621094 -8.15625 1.734375 -9.300781 1.964844 -10.421875 C 2.191406 -11.542969 2.515625 -12.632812 2.925781 -13.699219 C 3.339844 -14.761719 3.835938 -15.792969 4.410156 -16.789062 C 4.984375 -17.785156 5.621094 -18.742188 6.316406 -19.65625 L 8.015625 -19.65625 C 7.390625 -18.636719 6.832031 -17.632812 6.339844 -16.644531 C 5.847656 -15.65625 5.4375 -14.648438 5.101562 -13.625 C 4.769531 -12.601562 4.511719 -11.546875 4.335938 -10.460938 C 4.160156 -9.375 4.074219 -8.226562 4.074219 -7.015625 C 4.074219 -5.890625 4.167969 -4.773438 4.355469 -3.664062 C 4.546875 -2.558594 4.8125 -1.46875 5.15625 -0.402344 C 5.5 0.664062 5.910156 1.707031 6.394531 2.722656 C 6.878906 3.738281 7.417969 4.71875 8.015625 5.667969 Z M 8.015625 5.667969 "/>
</symbol>
<symbol overflow="visible" id="glyph1-4">
<path style="stroke:none;" d="M 7.371094 -6.988281 C 7.371094 -5.828125 7.253906 -4.6875 7.027344 -3.566406 C 6.796875 -2.445312 6.476562 -1.351562 6.0625 -0.289062 C 5.652344 0.773438 5.15625 1.804688 4.582031 2.800781 C 4.007812 3.796875 3.371094 4.753906 2.675781 5.667969 L 0.976562 5.667969 C 1.589844 4.667969 2.144531 3.667969 2.636719 2.675781 C 3.128906 1.683594 3.542969 0.671875 3.875 -0.355469 C 4.210938 -1.382812 4.46875 -2.445312 4.648438 -3.53125 C 4.828125 -4.621094 4.917969 -5.765625 4.917969 -6.960938 C 4.917969 -8.085938 4.824219 -9.203125 4.632812 -10.308594 C 4.445312 -11.417969 4.179688 -12.503906 3.835938 -13.574219 C 3.492188 -14.640625 3.078125 -15.683594 2.589844 -16.703125 C 2.101562 -17.722656 1.5625 -18.707031 0.976562 -19.65625 L 2.675781 -19.65625 C 3.378906 -18.761719 4.019531 -17.8125 4.601562 -16.816406 C 5.179688 -15.820312 5.675781 -14.78125 6.085938 -13.703125 C 6.492188 -12.628906 6.808594 -11.523438 7.035156 -10.394531 C 7.257812 -9.265625 7.371094 -8.128906 7.371094 -6.988281 Z M 7.371094 -6.988281 "/>
</symbol>
<symbol overflow="visible" id="glyph2-0">
<path style="stroke:none;" d="M 1.3125 0 L 1.3125 -16.796875 L 9.1875 -16.796875 L 9.1875 0 Z M 2.625 -1.3125 L 7.875 -1.3125 L 7.875 -15.484375 L 2.625 -15.484375 Z M 2.625 -1.3125 "/>
</symbol>
<symbol overflow="visible" id="glyph2-1">
<path style="stroke:none;" d="M 11.105469 -4.605469 L 1.160156 -4.605469 L 1.160156 -6.328125 L 11.105469 -6.328125 Z M 11.105469 -4.605469 "/>
</symbol>
<symbol overflow="visible" id="glyph3-0">
<path style="stroke:none;" d="M -0.25 0 L -0.25 -17.613281 L 20.710938 -17.613281 L 20.710938 0 Z M 18.285156 -2.425781 L 18.285156 -15.1875 L 2.175781 -15.1875 L 2.175781 -2.425781 Z M 18.285156 -2.425781 "/>
</symbol>
<symbol overflow="visible" id="glyph3-1">
<path style="stroke:none;" d="M 0.488281 0 L 2.769531 -8.148438 C 2.960938 -8.832031 3.074219 -9.25 3.105469 -9.394531 C 3.136719 -9.539062 3.152344 -9.695312 3.152344 -9.859375 C 3.152344 -10.117188 3.078125 -10.316406 2.933594 -10.460938 C 2.789062 -10.605469 2.503906 -10.679688 2.082031 -10.679688 C 1.976562 -10.679688 1.875 -10.671875 1.773438 -10.660156 C 1.671875 -10.644531 1.558594 -10.628906 1.4375 -10.613281 L 1.4375 -11.0625 C 2.007812 -11.148438 2.414062 -11.214844 2.65625 -11.257812 C 2.898438 -11.300781 3.160156 -11.355469 3.441406 -11.417969 L 5.800781 -11.929688 C 5.851562 -11.894531 5.890625 -11.855469 5.90625 -11.8125 L 4.152344 -6.144531 C 5.226562 -7.789062 6.121094 -9.007812 6.84375 -9.808594 C 8.109375 -11.222656 9.242188 -11.929688 10.242188 -11.929688 C 10.628906 -11.929688 10.964844 -11.855469 11.246094 -11.707031 C 11.78125 -11.417969 12.050781 -10.894531 12.050781 -10.136719 C 12.050781 -9.925781 12.027344 -9.707031 11.984375 -9.480469 C 11.941406 -9.25 11.882812 -9.003906 11.8125 -8.742188 L 10.085938 -2.425781 C 10.050781 -2.292969 10.011719 -2.132812 9.96875 -1.945312 C 9.921875 -1.757812 9.902344 -1.621094 9.902344 -1.542969 C 9.902344 -1.410156 9.929688 -1.292969 9.992188 -1.1875 C 10.054688 -1.082031 10.15625 -1.027344 10.296875 -1.027344 C 10.523438 -1.027344 10.789062 -1.164062 11.085938 -1.429688 C 11.386719 -1.699219 11.875 -2.273438 12.550781 -3.152344 L 12.933594 -2.808594 C 12.210938 -1.832031 11.640625 -1.148438 11.21875 -0.75 C 10.5 -0.0546875 9.808594 0.289062 9.148438 0.289062 C 8.851562 0.289062 8.5625 0.191406 8.285156 -0.0078125 C 8.007812 -0.203125 7.871094 -0.5625 7.871094 -1.082031 C 7.871094 -1.230469 7.882812 -1.390625 7.902344 -1.554688 C 7.925781 -1.722656 7.953125 -1.867188 7.988281 -1.992188 L 9.648438 -8.398438 C 9.738281 -8.75 9.796875 -9.039062 9.828125 -9.261719 C 9.859375 -9.484375 9.875 -9.644531 9.875 -9.742188 C 9.875 -9.953125 9.824219 -10.136719 9.722656 -10.289062 C 9.621094 -10.445312 9.445312 -10.519531 9.1875 -10.519531 C 8.53125 -10.519531 7.699219 -9.921875 6.695312 -8.726562 C 6.109375 -8.015625 5.511719 -7.167969 4.90625 -6.183594 C 4.4375 -5.417969 4.070312 -4.671875 3.804688 -3.949219 C 3.535156 -3.222656 3.109375 -1.90625 2.53125 0 Z M 0.488281 0 "/>
</symbol>
<symbol overflow="visible" id="glyph4-0">
<path style="stroke:none;" d="M 2.4375 0 L 2.4375 -12.1875 L 12.1875 -12.1875 L 12.1875 0 Z M 2.742188 -0.304688 L 11.882812 -0.304688 L 11.882812 -11.882812 L 2.742188 -11.882812 Z M 2.742188 -0.304688 "/>
</symbol>
<symbol overflow="visible" id="glyph4-1">
<path style="stroke:none;" d="M 0.808594 -6.882812 C 0.808594 -8.535156 0.980469 -9.863281 1.320312 -10.867188 C 1.660156 -11.875 2.164062 -12.652344 2.832031 -13.195312 C 3.503906 -13.742188 4.34375 -14.015625 5.359375 -14.015625 C 6.109375 -14.015625 6.765625 -13.863281 7.332031 -13.5625 C 7.898438 -13.261719 8.363281 -12.828125 8.730469 -12.257812 C 9.097656 -11.691406 9.386719 -11 9.597656 -10.183594 C 9.808594 -9.367188 9.910156 -8.269531 9.910156 -6.882812 C 9.910156 -5.246094 9.742188 -3.925781 9.40625 -2.917969 C 9.070312 -1.914062 8.566406 -1.132812 7.898438 -0.585938 C 7.226562 -0.0351562 6.382812 0.238281 5.359375 0.238281 C 4.015625 0.238281 2.957031 -0.246094 2.191406 -1.210938 C 1.269531 -2.371094 0.808594 -4.261719 0.808594 -6.882812 Z M 2.570312 -6.882812 C 2.570312 -4.59375 2.839844 -3.066406 3.375 -2.308594 C 3.910156 -1.550781 4.574219 -1.171875 5.359375 -1.171875 C 6.148438 -1.171875 6.808594 -1.550781 7.347656 -2.3125 C 7.882812 -3.074219 8.148438 -4.597656 8.148438 -6.882812 C 8.148438 -9.179688 7.882812 -10.707031 7.347656 -11.464844 C 6.808594 -12.21875 6.140625 -12.597656 5.339844 -12.597656 C 4.554688 -12.597656 3.925781 -12.265625 3.457031 -11.597656 C 2.867188 -10.746094 2.570312 -9.175781 2.570312 -6.882812 Z M 2.570312 -6.882812 "/>
</symbol>
<symbol overflow="visible" id="glyph4-2">
<path style="stroke:none;" d="M 7.265625 0 L 5.550781 0 L 5.550781 -10.921875 C 5.136719 -10.527344 4.597656 -10.132812 3.925781 -9.742188 C 3.257812 -9.347656 2.65625 -9.050781 2.125 -8.855469 L 2.125 -10.511719 C 3.082031 -10.960938 3.917969 -11.507812 4.636719 -12.148438 C 5.355469 -12.789062 5.863281 -13.414062 6.160156 -14.015625 L 7.265625 -14.015625 Z M 7.265625 0 "/>
</symbol>
<symbol overflow="visible" id="glyph4-3">
<path style="stroke:none;" d="M 9.816406 -1.648438 L 9.816406 0 L 0.589844 0 C 0.578125 -0.414062 0.644531 -0.808594 0.789062 -1.191406 C 1.023438 -1.820312 1.402344 -2.4375 1.917969 -3.046875 C 2.4375 -3.65625 3.183594 -4.359375 4.160156 -5.160156 C 5.679688 -6.40625 6.703125 -7.390625 7.234375 -8.117188 C 7.769531 -8.84375 8.035156 -9.53125 8.035156 -10.179688 C 8.035156 -10.859375 7.792969 -11.429688 7.308594 -11.898438 C 6.824219 -12.363281 6.1875 -12.597656 5.40625 -12.597656 C 4.582031 -12.597656 3.921875 -12.347656 3.429688 -11.855469 C 2.933594 -11.359375 2.683594 -10.671875 2.675781 -9.796875 L 0.914062 -9.976562 C 1.035156 -11.292969 1.488281 -12.292969 2.277344 -12.984375 C 3.0625 -13.671875 4.121094 -14.015625 5.445312 -14.015625 C 6.785156 -14.015625 7.84375 -13.644531 8.625 -12.902344 C 9.40625 -12.160156 9.796875 -11.238281 9.796875 -10.140625 C 9.796875 -9.582031 9.683594 -9.03125 9.453125 -8.492188 C 9.226562 -7.953125 8.847656 -7.386719 8.316406 -6.789062 C 7.785156 -6.191406 6.90625 -5.375 5.675781 -4.332031 C 4.648438 -3.46875 3.984375 -2.882812 3.695312 -2.574219 C 3.402344 -2.265625 3.160156 -1.957031 2.96875 -1.648438 Z M 9.816406 -1.648438 "/>
</symbol>
<symbol overflow="visible" id="glyph4-4">
<path style="stroke:none;" d="M 0.820312 -3.683594 L 2.53125 -3.914062 C 2.730469 -2.941406 3.0625 -2.242188 3.539062 -1.8125 C 4.011719 -1.386719 4.585938 -1.171875 5.265625 -1.171875 C 6.070312 -1.171875 6.753906 -1.449219 7.308594 -2.007812 C 7.863281 -2.566406 8.140625 -3.257812 8.140625 -4.085938 C 8.140625 -4.871094 7.882812 -5.519531 7.371094 -6.03125 C 6.855469 -6.542969 6.203125 -6.796875 5.40625 -6.796875 C 5.082031 -6.796875 4.679688 -6.734375 4.199219 -6.609375 L 4.390625 -8.113281 C 4.503906 -8.101562 4.59375 -8.09375 4.664062 -8.09375 C 5.394531 -8.09375 6.050781 -8.285156 6.636719 -8.664062 C 7.21875 -9.046875 7.511719 -9.632812 7.511719 -10.425781 C 7.511719 -11.054688 7.300781 -11.574219 6.875 -11.988281 C 6.449219 -12.398438 5.898438 -12.605469 5.226562 -12.605469 C 4.5625 -12.605469 4.003906 -12.398438 3.5625 -11.976562 C 3.117188 -11.558594 2.832031 -10.929688 2.703125 -10.09375 L 0.992188 -10.398438 C 1.199219 -11.546875 1.675781 -12.4375 2.417969 -13.066406 C 3.160156 -13.699219 4.085938 -14.015625 5.1875 -14.015625 C 5.949219 -14.015625 6.652344 -13.851562 7.292969 -13.523438 C 7.933594 -13.199219 8.425781 -12.753906 8.765625 -12.1875 C 9.105469 -11.621094 9.273438 -11.023438 9.273438 -10.386719 C 9.273438 -9.785156 9.113281 -9.234375 8.789062 -8.742188 C 8.464844 -8.246094 7.984375 -7.851562 7.351562 -7.558594 C 8.175781 -7.367188 8.816406 -6.972656 9.273438 -6.375 C 9.730469 -5.773438 9.960938 -5.023438 9.960938 -4.121094 C 9.960938 -2.902344 9.515625 -1.871094 8.625 -1.023438 C 7.738281 -0.175781 6.613281 0.246094 5.257812 0.246094 C 4.03125 0.246094 3.011719 -0.117188 2.203125 -0.847656 C 1.394531 -1.578125 0.933594 -2.523438 0.820312 -3.683594 Z M 0.820312 -3.683594 "/>
</symbol>
<symbol overflow="visible" id="glyph4-5">
<path style="stroke:none;" d="M 6.304688 0 L 6.304688 -3.34375 L 0.246094 -3.34375 L 0.246094 -4.914062 L 6.617188 -13.957031 L 8.015625 -13.957031 L 8.015625 -4.914062 L 9.902344 -4.914062 L 9.902344 -3.34375 L 8.015625 -3.34375 L 8.015625 0 Z M 6.304688 -4.914062 L 6.304688 -11.207031 L 1.933594 -4.914062 Z M 6.304688 -4.914062 "/>
</symbol>
<symbol overflow="visible" id="glyph4-6">
<path style="stroke:none;" d="M 0.808594 -3.65625 L 2.609375 -3.808594 C 2.742188 -2.933594 3.050781 -2.273438 3.539062 -1.832031 C 4.023438 -1.390625 4.609375 -1.171875 5.292969 -1.171875 C 6.117188 -1.171875 6.816406 -1.480469 7.390625 -2.105469 C 7.960938 -2.726562 8.246094 -3.550781 8.246094 -4.578125 C 8.246094 -5.558594 7.972656 -6.328125 7.421875 -6.894531 C 6.871094 -7.457031 6.152344 -7.742188 5.265625 -7.742188 C 4.714844 -7.742188 4.214844 -7.617188 3.769531 -7.363281 C 3.324219 -7.113281 2.976562 -6.789062 2.722656 -6.390625 L 1.113281 -6.597656 L 2.464844 -13.769531 L 9.40625 -13.769531 L 9.40625 -12.128906 L 3.835938 -12.128906 L 3.085938 -8.378906 C 3.921875 -8.960938 4.800781 -9.253906 5.722656 -9.253906 C 6.941406 -9.253906 7.96875 -8.832031 8.808594 -7.988281 C 9.644531 -7.144531 10.0625 -6.058594 10.0625 -4.730469 C 10.0625 -3.46875 9.695312 -2.378906 8.960938 -1.457031 C 8.066406 -0.328125 6.84375 0.238281 5.292969 0.238281 C 4.023438 0.238281 2.988281 -0.117188 2.183594 -0.828125 C 1.382812 -1.539062 0.921875 -2.480469 0.808594 -3.65625 Z M 0.808594 -3.65625 "/>
</symbol>
<symbol overflow="visible" id="glyph4-7">
<path style="stroke:none;" d="M 9.703125 -10.539062 L 8 -10.40625 C 7.847656 -11.078125 7.628906 -11.570312 7.351562 -11.875 C 6.886719 -12.363281 6.316406 -12.605469 5.636719 -12.605469 C 5.089844 -12.605469 4.613281 -12.453125 4.199219 -12.148438 C 3.660156 -11.753906 3.234375 -11.179688 2.921875 -10.425781 C 2.613281 -9.671875 2.449219 -8.59375 2.4375 -7.199219 C 2.851562 -7.828125 3.355469 -8.292969 3.953125 -8.597656 C 4.546875 -8.902344 5.171875 -9.054688 5.828125 -9.054688 C 6.96875 -9.054688 7.941406 -8.632812 8.746094 -7.792969 C 9.546875 -6.953125 9.949219 -5.867188 9.949219 -4.53125 C 9.949219 -3.65625 9.761719 -2.84375 9.382812 -2.089844 C 9.003906 -1.335938 8.488281 -0.761719 7.828125 -0.363281 C 7.167969 0.0390625 6.417969 0.238281 5.578125 0.238281 C 4.152344 0.238281 2.988281 -0.289062 2.085938 -1.335938 C 1.183594 -2.386719 0.734375 -4.121094 0.734375 -6.53125 C 0.734375 -9.230469 1.230469 -11.191406 2.226562 -12.414062 C 3.097656 -13.480469 4.269531 -14.015625 5.742188 -14.015625 C 6.839844 -14.015625 7.738281 -13.707031 8.441406 -13.09375 C 9.140625 -12.476562 9.5625 -11.625 9.703125 -10.539062 Z M 2.703125 -4.523438 C 2.703125 -3.933594 2.828125 -3.367188 3.082031 -2.828125 C 3.332031 -2.289062 3.679688 -1.878906 4.132812 -1.59375 C 4.582031 -1.3125 5.054688 -1.171875 5.550781 -1.171875 C 6.273438 -1.171875 6.898438 -1.464844 7.417969 -2.046875 C 7.9375 -2.632812 8.199219 -3.425781 8.199219 -4.425781 C 8.199219 -5.390625 7.941406 -6.152344 7.425781 -6.707031 C 6.914062 -7.261719 6.265625 -7.539062 5.484375 -7.539062 C 4.710938 -7.539062 4.054688 -7.261719 3.511719 -6.707031 C 2.972656 -6.152344 2.703125 -5.425781 2.703125 -4.523438 Z M 2.703125 -4.523438 "/>
</symbol>
</g>
<clipPath id="clip1">
  <path d="M 46.800781 39.121094 L 549 39.121094 L 549 909.839844 L 46.800781 909.839844 Z M 46.800781 39.121094 "/>
</clipPath>
<clipPath id="clip2">
  <path d="M 46.800781 39.121094 L 1455.601562 39.121094 L 1455.601562 583 L 46.800781 583 Z M 46.800781 39.121094 "/>
</clipPath>
<clipPath id="clip3">
  <path d="M 46.800781 39.121094 L 1450 39.121094 L 1450 909.839844 L 46.800781 909.839844 Z M 46.800781 39.121094 "/>
</clipPath>
<clipPath id="clip4">
  <path d="M 46.800781 39.121094 L 1455.601562 39.121094 L 1455.601562 528 L 46.800781 528 Z M 46.800781 39.121094 "/>
</clipPath>
<clipPath id="clip5">
  <path d="M 46.800781 39.121094 L 1455.601562 39.121094 L 1455.601562 463 L 46.800781 463 Z M 46.800781 39.121094 "/>
</clipPath>
<clipPath id="clip6">
  <path d="M 46.800781 39.121094 L 1455.601562 39.121094 L 1455.601562 414 L 46.800781 414 Z M 46.800781 39.121094 "/>
</clipPath>
<clipPath id="clip7">
  <path d="M 46.800781 39.121094 L 1455.601562 39.121094 L 1455.601562 377 L 46.800781 377 Z M 46.800781 39.121094 "/>
</clipPath>
<clipPath id="clip8">
  <path d="M 1497.839844 370 L 1528 370 L 1528 375 L 1497.839844 375 Z M 1497.839844 370 "/>
</clipPath>
<clipPath id="clip9">
  <path d="M 1497.839844 405 L 1528 405 L 1528 410 L 1497.839844 410 Z M 1497.839844 405 "/>
</clipPath>
<clipPath id="clip10">
  <path d="M 1497.839844 440 L 1528 440 L 1528 445 L 1497.839844 445 Z M 1497.839844 440 "/>
</clipPath>
<clipPath id="clip11">
  <path d="M 1497.839844 475 L 1528 475 L 1528 480 L 1497.839844 480 Z M 1497.839844 475 "/>
</clipPath>
<clipPath id="clip12">
  <path d="M 1497.839844 510 L 1528 510 L 1528 515 L 1497.839844 515 Z M 1497.839844 510 "/>
</clipPath>
<clipPath id="clip13">
  <path d="M 1497.839844 545 L 1528 545 L 1528 551 L 1497.839844 551 Z M 1497.839844 545 "/>
</clipPath>
<clipPath id="clip14">
  <path d="M 1497.839844 580 L 1528 580 L 1528 586 L 1497.839844 586 Z M 1497.839844 580 "/>
</clipPath>
</defs>
<g id="surface1">
<g clip-path="url(#clip1)" clip-rule="nonzero">
<path style="fill:none;stroke-width:3;stroke-linecap:square;stroke-linejoin:miter;stroke:rgb(36.841382%,50.678264%,70.980392%);stroke-opacity:1;stroke-miterlimit:3.25;" d="M 145.929688 46.664062 L 146.359375 46.664062 L 146.792969 46.667969 L 147.222656 46.671875 L 148.089844 46.679688 L 148.519531 46.6875 L 148.953125 46.699219 L 149.382812 46.707031 L 150.25 46.730469 L 150.679688 46.746094 L 151.113281 46.761719 L 151.542969 46.78125 L 151.976562 46.796875 L 152.839844 46.839844 L 153.273438 46.859375 L 153.703125 46.886719 L 154.566406 46.9375 L 155 46.964844 L 155.433594 46.996094 L 156.296875 47.058594 L 156.726562 47.089844 L 157.160156 47.125 L 158.023438 47.199219 L 159.753906 47.363281 L 160.183594 47.40625 L 160.617188 47.453125 L 161.480469 47.546875 L 163.207031 47.757812 L 163.640625 47.8125 L 164.070312 47.867188 L 164.9375 47.984375 L 166.664062 48.234375 L 167.097656 48.300781 L 167.527344 48.371094 L 168.390625 48.507812 L 170.121094 48.804688 L 173.574219 49.460938 L 174.042969 49.554688 L 174.511719 49.652344 L 175.449219 49.851562 L 177.324219 50.269531 L 181.070312 51.179688 L 181.539062 51.300781 L 182.003906 51.421875 L 182.941406 51.671875 L 184.816406 52.195312 L 188.5625 53.308594 L 189.5 53.605469 L 190.433594 53.90625 L 192.308594 54.53125 L 196.054688 55.851562 L 203.546875 58.804688 L 203.984375 58.988281 L 205.296875 59.550781 L 207.046875 60.324219 L 210.546875 61.929688 L 217.542969 65.417969 L 217.980469 65.644531 L 218.417969 65.878906 L 219.292969 66.34375 L 221.039062 67.292969 L 224.539062 69.261719 L 231.535156 73.460938 L 232.394531 74 L 233.25 74.546875 L 234.964844 75.652344 L 238.394531 77.925781 L 245.253906 82.738281 L 246.113281 83.363281 L 246.96875 83.996094 L 248.683594 85.273438 L 252.113281 87.890625 L 258.972656 93.390625 L 259.902344 94.164062 L 260.832031 94.941406 L 262.695312 96.515625 L 266.414062 99.746094 L 273.855469 106.503906 L 288.734375 121.234375 L 289.171875 121.6875 L 290.472656 123.058594 L 292.207031 124.90625 L 295.679688 128.664062 L 302.625 136.445312 L 316.511719 153.066406 L 346.617188 193.933594 L 376.167969 240.5 L 403.738281 289.695312 L 433.628906 349.320312 L 461.535156 410.882812 L 488.894531 476.761719 L 518.578125 554.433594 L 546.273438 632.714844 L 576.296875 723.910156 L 605.769531 819.847656 L 633.257812 915.046875 L 633.835938 917.179688 " transform="matrix(1,0,0,1,-99,-7.5)"/>
</g>
<g clip-path="url(#clip2)" clip-rule="nonzero">
<path style="fill:none;stroke-width:3;stroke-linecap:square;stroke-linejoin:miter;stroke:rgb(88.072023%,61.104753%,14.204623%);stroke-opacity:1;stroke-miterlimit:3.25;" d="M 145.929688 46.664062 L 146.359375 46.664062 L 146.792969 46.667969 L 147.222656 46.671875 L 148.089844 46.679688 L 148.519531 46.6875 L 148.953125 46.699219 L 149.382812 46.707031 L 150.25 46.730469 L 150.679688 46.746094 L 151.113281 46.761719 L 151.542969 46.78125 L 151.976562 46.796875 L 152.839844 46.839844 L 153.273438 46.859375 L 153.703125 46.886719 L 154.566406 46.9375 L 155 46.964844 L 155.433594 46.996094 L 156.296875 47.058594 L 156.726562 47.089844 L 157.160156 47.125 L 158.023438 47.199219 L 159.753906 47.363281 L 160.183594 47.40625 L 160.617188 47.453125 L 161.480469 47.546875 L 163.207031 47.753906 L 163.640625 47.808594 L 164.070312 47.867188 L 164.9375 47.984375 L 166.664062 48.234375 L 167.097656 48.300781 L 167.527344 48.367188 L 168.390625 48.507812 L 170.121094 48.800781 L 173.574219 49.453125 L 174.042969 49.546875 L 174.511719 49.644531 L 175.449219 49.84375 L 177.324219 50.257812 L 181.070312 51.164062 L 181.539062 51.285156 L 182.003906 51.40625 L 182.941406 51.65625 L 184.816406 52.171875 L 188.5625 53.28125 L 189.03125 53.425781 L 189.5 53.574219 L 190.433594 53.871094 L 192.308594 54.488281 L 196.054688 55.792969 L 203.546875 58.703125 L 203.984375 58.886719 L 204.421875 59.066406 L 205.296875 59.4375 L 207.046875 60.195312 L 210.546875 61.769531 L 217.542969 65.175781 L 217.980469 65.398438 L 219.292969 66.078125 L 221.039062 67.003906 L 224.539062 68.910156 L 231.535156 72.96875 L 231.964844 73.230469 L 232.394531 73.488281 L 233.25 74.015625 L 234.964844 75.078125 L 238.394531 77.261719 L 245.253906 81.851562 L 258.972656 91.910156 L 259.4375 92.269531 L 260.832031 93.359375 L 262.695312 94.832031 L 266.414062 97.835938 L 273.855469 104.082031 L 288.734375 117.496094 L 316.511719 145.53125 L 346.617188 179.6875 L 376.167969 216.191406 L 403.738281 252.085938 L 433.628906 292.105469 L 461.535156 329.652344 L 488.894531 365.855469 L 518.578125 403.636719 L 546.273438 436.769531 L 576.296875 469.664062 L 605.769531 498.292969 L 607.488281 499.839844 L 609.207031 501.371094 L 612.640625 504.390625 L 619.511719 510.257812 L 633.257812 521.285156 L 633.722656 521.644531 L 634.1875 522 L 635.121094 522.707031 L 636.984375 524.109375 L 640.710938 526.863281 L 648.164062 532.152344 L 649.09375 532.792969 L 650.027344 533.425781 L 651.890625 534.683594 L 655.617188 537.144531 L 663.070312 541.84375 L 663.503906 542.109375 L 663.9375 542.371094 L 664.808594 542.898438 L 666.546875 543.933594 L 670.027344 545.960938 L 676.980469 549.8125 L 677.417969 550.046875 L 677.851562 550.277344 L 678.722656 550.734375 L 680.460938 551.640625 L 683.9375 553.402344 L 690.894531 556.730469 L 691.367188 556.945312 L 691.835938 557.160156 L 692.78125 557.585938 L 694.664062 558.421875 L 698.433594 560.035156 L 705.972656 563.035156 L 706.441406 563.210938 L 706.914062 563.386719 L 707.855469 563.734375 L 709.742188 564.417969 L 713.507812 565.722656 L 721.046875 568.101562 L 721.511719 568.238281 L 721.972656 568.375 L 722.898438 568.640625 L 724.746094 569.160156 L 728.449219 570.144531 L 728.910156 570.261719 L 729.375 570.378906 L 730.296875 570.609375 L 732.148438 571.054688 L 735.847656 571.890625 L 736.3125 571.992188 L 736.773438 572.089844 L 737.699219 572.285156 L 739.550781 572.660156 L 743.25 573.351562 L 743.710938 573.433594 L 744.175781 573.515625 L 745.101562 573.671875 L 746.949219 573.976562 L 750.652344 574.527344 L 751.082031 574.589844 L 751.511719 574.648438 L 752.375 574.761719 L 754.101562 574.980469 L 754.535156 575.03125 L 754.964844 575.082031 L 755.828125 575.183594 L 757.554688 575.371094 L 757.984375 575.417969 L 758.417969 575.460938 L 759.28125 575.542969 L 761.007812 575.703125 L 761.4375 575.738281 L 761.871094 575.777344 L 762.734375 575.84375 L 764.457031 575.972656 L 764.890625 576.003906 L 765.320312 576.03125 L 766.183594 576.085938 L 766.617188 576.113281 L 767.046875 576.136719 L 767.910156 576.1875 L 768.34375 576.207031 L 768.773438 576.230469 L 769.636719 576.269531 L 770.070312 576.289062 L 770.5 576.304688 L 771.363281 576.339844 L 771.792969 576.355469 L 772.226562 576.367188 L 772.65625 576.382812 L 773.089844 576.394531 L 773.519531 576.40625 L 773.953125 576.417969 L 774.382812 576.425781 L 774.816406 576.433594 L 775.246094 576.441406 L 775.679688 576.449219 L 776.109375 576.457031 L 776.542969 576.460938 L 777.402344 576.46875 L 777.835938 576.472656 L 779.671875 576.472656 L 780.140625 576.46875 L 780.605469 576.464844 L 781.542969 576.457031 L 782.011719 576.449219 L 782.476562 576.441406 L 782.945312 576.433594 L 783.414062 576.421875 L 783.882812 576.414062 L 784.347656 576.402344 L 784.816406 576.390625 L 786.222656 576.34375 L 786.6875 576.328125 L 787.625 576.292969 L 788.09375 576.269531 L 788.558594 576.25 L 789.496094 576.207031 L 789.964844 576.183594 L 790.429688 576.15625 L 791.367188 576.105469 L 793.238281 575.988281 L 793.707031 575.953125 L 794.175781 575.921875 L 795.109375 575.855469 L 796.980469 575.703125 L 797.917969 575.625 L 798.851562 575.539062 L 800.722656 575.359375 L 801.191406 575.3125 L 801.660156 575.261719 L 802.59375 575.164062 L 804.46875 574.953125 L 808.210938 574.484375 L 808.644531 574.425781 L 809.082031 574.367188 L 809.957031 574.246094 L 811.703125 573.996094 L 815.199219 573.453125 L 815.636719 573.382812 L 816.070312 573.308594 L 816.945312 573.164062 L 818.691406 572.859375 L 822.1875 572.21875 L 822.625 572.136719 L 823.0625 572.050781 L 823.933594 571.878906 L 825.683594 571.53125 L 829.175781 570.792969 L 836.164062 569.175781 L 837.023438 568.964844 L 837.878906 568.75 L 839.589844 568.316406 L 843.015625 567.414062 L 849.871094 565.492188 L 850.296875 565.363281 L 850.726562 565.238281 L 851.582031 564.984375 L 853.296875 564.46875 L 856.722656 563.40625 L 863.574219 561.171875 L 864.039062 561.015625 L 864.5 560.855469 L 865.429688 560.539062 L 867.289062 559.898438 L 871.007812 558.585938 L 878.4375 555.839844 L 893.304688 549.914062 L 921.050781 537.550781 L 951.125 522.789062 L 980.648438 507.585938 L 1008.183594 493.351562 L 1038.046875 478.449219 L 1065.921875 465.535156 L 1093.25 454.210938 L 1093.710938 454.035156 L 1094.175781 453.855469 L 1095.101562 453.5 L 1096.953125 452.796875 L 1100.660156 451.414062 L 1108.074219 448.742188 L 1108.539062 448.578125 L 1109 448.414062 L 1109.929688 448.09375 L 1111.78125 447.453125 L 1115.488281 446.199219 L 1122.902344 443.796875 L 1123.332031 443.660156 L 1123.765625 443.523438 L 1124.628906 443.253906 L 1126.359375 442.722656 L 1129.816406 441.679688 L 1136.734375 439.691406 L 1137.167969 439.570312 L 1137.597656 439.449219 L 1138.464844 439.214844 L 1140.191406 438.742188 L 1143.652344 437.828125 L 1150.566406 436.097656 L 1151.035156 435.988281 L 1151.503906 435.875 L 1152.441406 435.652344 L 1154.316406 435.21875 L 1158.066406 434.375 L 1165.5625 432.808594 L 1166.03125 432.71875 L 1166.5 432.625 L 1167.4375 432.441406 L 1169.3125 432.085938 L 1173.0625 431.40625 L 1180.558594 430.164062 L 1180.996094 430.09375 L 1182.308594 429.894531 L 1184.058594 429.636719 L 1187.558594 429.148438 L 1187.996094 429.089844 L 1188.4375 429.035156 L 1189.3125 428.917969 L 1191.0625 428.699219 L 1194.5625 428.28125 L 1195 428.230469 L 1195.4375 428.183594 L 1196.3125 428.085938 L 1198.0625 427.898438 L 1201.5625 427.554688 L 1202 427.515625 L 1202.4375 427.472656 L 1203.3125 427.394531 L 1205.0625 427.246094 L 1208.566406 426.972656 L 1208.992188 426.941406 L 1209.421875 426.910156 L 1210.28125 426.851562 L 1211.996094 426.738281 L 1212.855469 426.683594 L 1213.710938 426.632812 L 1215.859375 426.515625 L 1216.285156 426.492188 L 1217.144531 426.453125 L 1217.574219 426.429688 L 1218.003906 426.410156 L 1218.859375 426.371094 L 1219.289062 426.355469 L 1219.71875 426.335938 L 1220.578125 426.300781 L 1222.292969 426.242188 L 1222.722656 426.226562 L 1223.152344 426.214844 L 1224.007812 426.1875 L 1224.867188 426.164062 L 1225.726562 426.144531 L 1226.152344 426.132812 L 1226.582031 426.125 L 1227.011719 426.113281 L 1227.871094 426.097656 L 1228.300781 426.09375 L 1229.15625 426.078125 L 1229.585938 426.074219 L 1230.015625 426.066406 L 1230.445312 426.0625 L 1230.871094 426.058594 L 1231.730469 426.050781 L 1232.160156 426.050781 L 1232.589844 426.046875 L 1235.59375 426.046875 L 1236.019531 426.050781 L 1236.488281 426.054688 L 1238.347656 426.070312 L 1238.8125 426.078125 L 1239.277344 426.082031 L 1239.742188 426.089844 L 1240.210938 426.097656 L 1240.675781 426.105469 L 1241.140625 426.117188 L 1241.605469 426.125 L 1242.070312 426.136719 L 1242.535156 426.144531 L 1243.464844 426.167969 L 1243.933594 426.183594 L 1244.398438 426.195312 L 1245.328125 426.222656 L 1247.1875 426.285156 L 1247.65625 426.304688 L 1248.121094 426.320312 L 1249.050781 426.359375 L 1250.914062 426.441406 L 1251.378906 426.464844 L 1251.84375 426.484375 L 1252.773438 426.53125 L 1254.636719 426.632812 L 1256.496094 426.742188 L 1258.359375 426.863281 L 1259.289062 426.925781 L 1260.21875 426.992188 L 1262.082031 427.128906 L 1265.804688 427.433594 L 1266.238281 427.46875 L 1267.539062 427.585938 L 1269.277344 427.746094 L 1272.753906 428.09375 L 1273.1875 428.140625 L 1273.621094 428.183594 L 1274.488281 428.277344 L 1276.226562 428.46875 L 1279.699219 428.875 L 1280.136719 428.929688 L 1280.570312 428.984375 L 1281.4375 429.089844 L 1283.175781 429.3125 L 1286.648438 429.777344 L 1293.597656 430.796875 L 1294.070312 430.867188 L 1294.539062 430.941406 L 1295.480469 431.089844 L 1297.363281 431.394531 L 1301.128906 432.023438 L 1308.660156 433.378906 L 1309.128906 433.464844 L 1309.601562 433.554688 L 1310.542969 433.734375 L 1312.425781 434.097656 L 1316.191406 434.851562 L 1323.71875 436.441406 L 1324.183594 436.542969 L 1324.644531 436.644531 L 1325.570312 436.847656 L 1327.417969 437.261719 L 1331.113281 438.105469 L 1338.507812 439.871094 L 1353.292969 443.675781 L 1380.878906 451.597656 L 1410.789062 461.070312 L 1438.714844 470.351562 L 1466.09375 479.503906 L 1495.792969 489.101562 L 1523.511719 497.414062 L 1523.992188 497.550781 L 1525.445312 497.960938 L 1527.378906 498.507812 L 1531.246094 499.582031 L 1538.980469 501.671875 L 1539.464844 501.800781 L 1539.945312 501.925781 L 1540.914062 502.179688 L 1542.847656 502.6875 L 1546.714844 503.679688 L 1547.199219 503.800781 L 1547.683594 503.925781 L 1548.648438 504.167969 L 1550.582031 504.652344 L 1551.066406 504.769531 L 1551.550781 504.890625 L 1552.515625 505.128906 L 1553.484375 505.363281 L 1553.964844 505.484375 L 1554.449219 505.601562 " transform="matrix(1,0,0,1,-99,-7.5)"/>
</g>
<g clip-path="url(#clip3)" clip-rule="nonzero">
<path style="fill:none;stroke-width:3;stroke-linecap:square;stroke-linejoin:miter;stroke:rgb(56.017395%,69.156939%,19.488823%);stroke-opacity:1;stroke-miterlimit:3.25;" d="M 145.929688 46.664062 L 146.359375 46.664062 L 146.792969 46.667969 L 147.222656 46.671875 L 148.089844 46.679688 L 148.519531 46.6875 L 148.953125 46.699219 L 149.382812 46.707031 L 150.25 46.730469 L 150.679688 46.746094 L 151.113281 46.761719 L 151.542969 46.78125 L 151.976562 46.796875 L 152.839844 46.839844 L 153.273438 46.859375 L 153.703125 46.886719 L 154.566406 46.9375 L 155 46.964844 L 155.433594 46.996094 L 156.296875 47.058594 L 156.726562 47.089844 L 157.160156 47.125 L 158.023438 47.199219 L 159.753906 47.363281 L 160.183594 47.40625 L 160.617188 47.453125 L 161.480469 47.546875 L 163.207031 47.753906 L 163.640625 47.808594 L 164.070312 47.867188 L 164.9375 47.984375 L 166.664062 48.234375 L 167.097656 48.296875 L 167.527344 48.367188 L 168.390625 48.503906 L 170.121094 48.796875 L 173.574219 49.449219 L 174.042969 49.542969 L 175.449219 49.835938 L 177.324219 50.25 L 181.070312 51.152344 L 181.539062 51.269531 L 182.003906 51.390625 L 182.941406 51.640625 L 184.816406 52.152344 L 188.5625 53.25 L 189.5 53.539062 L 190.433594 53.835938 L 192.308594 54.445312 L 196.054688 55.738281 L 203.546875 58.605469 L 203.984375 58.78125 L 204.421875 58.960938 L 205.296875 59.328125 L 207.046875 60.070312 L 210.546875 61.617188 L 217.542969 64.941406 L 218.417969 65.378906 L 219.292969 65.824219 L 221.039062 66.722656 L 224.539062 68.574219 L 231.535156 72.503906 L 232.394531 73.003906 L 233.25 73.507812 L 234.964844 74.53125 L 238.394531 76.628906 L 245.253906 81.019531 L 258.972656 90.542969 L 259.902344 91.222656 L 260.832031 91.90625 L 262.695312 93.285156 L 266.414062 96.09375 L 273.855469 101.902344 L 288.734375 114.203125 L 316.511719 139.246094 L 346.617188 168.582031 L 376.167969 198.628906 L 403.738281 226.972656 L 433.628906 257.335938 L 461.535156 284.792969 L 488.894531 310.511719 L 518.578125 336.78125 L 546.273438 359.597656 L 576.296875 382.40625 L 605.769531 402.847656 L 633.257812 420.230469 L 663.070312 437.34375 L 690.894531 451.8125 L 721.046875 466 L 750.652344 478.578125 L 778.265625 489.25 L 808.210938 499.828125 L 836.164062 508.902344 L 863.574219 517.175781 L 893.304688 525.585938 L 921.050781 533.019531 L 951.125 540.757812 L 980.648438 548.148438 L 1008.183594 554.976562 L 1038.046875 562.417969 L 1065.921875 569.511719 L 1093.25 576.710938 L 1122.902344 584.929688 L 1150.566406 593.105469 L 1180.558594 602.683594 L 1208.566406 612.476562 L 1236.019531 623.054688 L 1265.804688 635.871094 L 1293.597656 649.378906 L 1323.71875 666.078125 L 1353.292969 685.058594 L 1380.878906 705.625 L 1410.789062 731.835938 L 1411.664062 732.671875 L 1412.535156 733.511719 L 1414.28125 735.203125 L 1417.773438 738.644531 L 1424.753906 745.753906 L 1438.714844 760.925781 L 1439.144531 761.414062 L 1439.570312 761.902344 L 1440.425781 762.878906 L 1442.136719 764.855469 L 1445.558594 768.871094 L 1452.40625 777.175781 L 1466.09375 794.964844 L 1466.558594 795.597656 L 1467.019531 796.234375 L 1467.949219 797.507812 L 1469.804688 800.082031 L 1473.519531 805.332031 L 1480.945312 816.246094 L 1495.792969 839.882812 L 1496.660156 841.34375 L 1497.527344 842.8125 L 1499.257812 845.777344 L 1502.722656 851.824219 L 1509.652344 864.398438 L 1510.519531 866.015625 L 1511.386719 867.644531 L 1513.117188 870.9375 L 1516.582031 877.652344 L 1523.511719 891.644531 L 1523.992188 892.648438 L 1524.476562 893.65625 L 1525.445312 895.6875 L 1527.378906 899.792969 L 1531.246094 908.195312 L 1535.1875 917.179688 " transform="matrix(1,0,0,1,-99,-7.5)"/>
</g>
<g clip-path="url(#clip4)" clip-rule="nonzero">
<path style="fill:none;stroke-width:3;stroke-linecap:square;stroke-linejoin:miter;stroke:rgb(92.252995%,38.5626%,20.918593%);stroke-opacity:1;stroke-miterlimit:3.25;" d="M 145.929688 46.664062 L 146.359375 46.664062 L 146.792969 46.667969 L 147.222656 46.671875 L 148.089844 46.679688 L 148.519531 46.6875 L 148.953125 46.699219 L 149.382812 46.707031 L 150.25 46.730469 L 150.679688 46.746094 L 151.113281 46.761719 L 151.542969 46.78125 L 151.976562 46.796875 L 152.839844 46.839844 L 153.273438 46.859375 L 153.703125 46.886719 L 154.566406 46.9375 L 155.433594 46.992188 L 156.296875 47.058594 L 156.726562 47.089844 L 157.160156 47.125 L 158.023438 47.199219 L 159.753906 47.363281 L 160.183594 47.40625 L 160.617188 47.453125 L 161.480469 47.546875 L 163.207031 47.753906 L 163.640625 47.808594 L 164.070312 47.863281 L 164.9375 47.980469 L 166.664062 48.230469 L 167.097656 48.296875 L 167.527344 48.363281 L 168.390625 48.503906 L 170.121094 48.792969 L 173.574219 49.441406 L 174.042969 49.539062 L 174.511719 49.632812 L 175.449219 49.828125 L 177.324219 50.242188 L 181.070312 51.136719 L 181.539062 51.257812 L 182.003906 51.375 L 182.941406 51.621094 L 184.816406 52.132812 L 188.5625 53.21875 L 189.5 53.507812 L 190.433594 53.800781 L 192.308594 54.402344 L 196.054688 55.679688 L 203.546875 58.507812 L 204.421875 58.859375 L 205.296875 59.21875 L 207.046875 59.949219 L 210.546875 61.464844 L 217.542969 64.714844 L 219.292969 65.574219 L 221.039062 66.449219 L 224.539062 68.25 L 231.535156 72.054688 L 232.394531 72.539062 L 233.25 73.027344 L 234.964844 74.011719 L 238.394531 76.03125 L 245.253906 80.234375 L 258.972656 89.277344 L 288.734375 111.28125 L 316.511719 133.894531 L 346.617188 159.597656 L 376.167969 185.121094 L 403.738281 208.550781 L 433.628906 233.050781 L 461.535156 254.761719 L 488.894531 274.792969 L 518.578125 295.039062 L 546.273438 312.515625 L 576.296875 329.957031 L 605.769531 345.636719 L 633.257812 359.050781 L 663.070312 372.386719 L 690.894531 383.789062 L 721.046875 395.101562 L 750.652344 405.261719 L 778.265625 413.972656 L 808.210938 422.667969 L 836.164062 430.144531 L 863.574219 436.941406 L 893.304688 443.765625 L 921.050781 449.675781 L 951.125 455.628906 L 980.648438 461.0625 L 1008.183594 465.792969 L 1038.046875 470.597656 L 1065.921875 474.800781 L 1093.25 478.679688 L 1122.902344 482.644531 L 1150.566406 486.128906 L 1180.558594 489.699219 L 1208.566406 492.851562 L 1236.019531 495.785156 L 1265.804688 498.800781 L 1293.597656 501.476562 L 1323.71875 504.230469 L 1353.292969 506.796875 L 1380.878906 509.078125 L 1410.789062 511.433594 L 1438.714844 513.53125 L 1466.09375 515.492188 L 1495.792969 517.523438 L 1523.511719 519.328125 L 1523.992188 519.359375 L 1525.445312 519.453125 L 1527.378906 519.574219 L 1531.246094 519.820312 L 1538.980469 520.300781 L 1539.464844 520.332031 L 1539.945312 520.363281 L 1540.914062 520.421875 L 1542.847656 520.539062 L 1546.714844 520.777344 L 1547.199219 520.808594 L 1547.683594 520.835938 L 1548.648438 520.898438 L 1550.582031 521.015625 L 1551.066406 521.042969 L 1551.550781 521.074219 L 1552.515625 521.132812 L 1553 521.160156 L 1553.484375 521.191406 L 1553.964844 521.21875 L 1554.449219 521.25 " transform="matrix(1,0,0,1,-99,-7.5)"/>
</g>
<g clip-path="url(#clip5)" clip-rule="nonzero">
<path style="fill:none;stroke-width:3;stroke-linecap:square;stroke-linejoin:miter;stroke:rgb(52.848096%,47.061875%,70.135042%);stroke-opacity:1;stroke-miterlimit:3.25;" d="M 145.929688 46.664062 L 146.359375 46.664062 L 146.792969 46.667969 L 147.222656 46.671875 L 148.089844 46.679688 L 148.519531 46.6875 L 148.953125 46.699219 L 149.382812 46.707031 L 150.25 46.730469 L 150.679688 46.746094 L 151.113281 46.761719 L 151.542969 46.78125 L 151.976562 46.796875 L 152.839844 46.839844 L 153.273438 46.859375 L 153.703125 46.886719 L 154.566406 46.9375 L 155.433594 46.992188 L 156.296875 47.058594 L 156.726562 47.089844 L 157.160156 47.125 L 158.023438 47.199219 L 159.753906 47.363281 L 160.183594 47.40625 L 160.617188 47.453125 L 161.480469 47.546875 L 163.207031 47.753906 L 163.640625 47.808594 L 164.070312 47.863281 L 164.9375 47.980469 L 166.664062 48.230469 L 167.097656 48.296875 L 167.527344 48.363281 L 168.390625 48.5 L 170.121094 48.792969 L 173.574219 49.4375 L 174.042969 49.53125 L 175.449219 49.824219 L 177.324219 50.234375 L 181.070312 51.125 L 181.539062 51.242188 L 182.003906 51.363281 L 182.941406 51.605469 L 184.816406 52.109375 L 188.5625 53.191406 L 189.03125 53.332031 L 189.5 53.476562 L 190.433594 53.765625 L 192.308594 54.363281 L 196.054688 55.625 L 203.546875 58.410156 L 203.984375 58.585938 L 204.421875 58.757812 L 205.296875 59.109375 L 207.046875 59.828125 L 210.546875 61.316406 L 217.542969 64.496094 L 231.535156 71.625 L 232.394531 72.09375 L 233.25 72.566406 L 234.964844 73.515625 L 238.394531 75.460938 L 245.253906 79.496094 L 258.972656 88.097656 L 288.734375 108.65625 L 316.511719 129.269531 L 346.617188 152.125 L 376.167969 174.300781 L 403.738281 194.265625 L 433.628906 214.796875 L 461.535156 232.757812 L 488.894531 249.171875 L 518.578125 265.652344 L 546.273438 279.820312 L 576.296875 293.941406 L 605.769531 306.636719 L 633.257812 317.523438 L 663.070312 328.382812 L 690.894531 337.707031 L 721.046875 347.011719 L 750.652344 355.414062 L 778.265625 362.660156 L 808.210938 369.9375 L 836.164062 376.238281 L 863.574219 381.996094 L 893.304688 387.8125 L 921.050781 392.875 L 951.125 398 L 980.648438 402.695312 L 1008.183594 406.808594 L 1038.046875 410.992188 L 1065.921875 414.667969 L 1093.25 418.070312 L 1122.902344 421.554688 L 1150.566406 424.628906 L 1180.558594 427.777344 L 1208.566406 430.5625 L 1236.019531 433.15625 L 1265.804688 435.832031 L 1293.597656 438.203125 L 1323.71875 440.648438 L 1353.292969 442.933594 L 1380.878906 444.96875 L 1410.789062 447.074219 L 1438.714844 448.953125 L 1466.09375 450.71875 L 1495.792969 452.550781 L 1523.511719 454.191406 L 1523.992188 454.21875 L 1524.476562 454.25 L 1525.445312 454.304688 L 1527.378906 454.417969 L 1531.246094 454.640625 L 1538.980469 455.078125 L 1539.464844 455.105469 L 1539.945312 455.136719 L 1540.914062 455.191406 L 1542.847656 455.296875 L 1546.714844 455.515625 L 1547.683594 455.570312 L 1548.648438 455.625 L 1550.582031 455.734375 L 1551.066406 455.761719 L 1551.550781 455.785156 L 1552.515625 455.839844 L 1553.484375 455.894531 L 1553.964844 455.921875 L 1554.449219 455.949219 " transform="matrix(1,0,0,1,-99,-7.5)"/>
</g>
<g clip-path="url(#clip6)" clip-rule="nonzero">
<path style="fill:none;stroke-width:3;stroke-linecap:square;stroke-linejoin:miter;stroke:rgb(77.207599%,43.155566%,10.238804%);stroke-opacity:1;stroke-miterlimit:3.25;" d="M 145.929688 46.664062 L 146.359375 46.664062 L 146.792969 46.667969 L 147.222656 46.671875 L 148.089844 46.679688 L 148.519531 46.6875 L 148.953125 46.699219 L 149.382812 46.707031 L 150.25 46.730469 L 150.679688 46.746094 L 151.113281 46.761719 L 151.542969 46.78125 L 151.976562 46.796875 L 152.839844 46.839844 L 153.273438 46.859375 L 153.703125 46.886719 L 154.566406 46.9375 L 155.433594 46.992188 L 156.296875 47.054688 L 156.726562 47.089844 L 157.160156 47.125 L 158.023438 47.199219 L 159.753906 47.359375 L 160.183594 47.40625 L 160.617188 47.449219 L 161.480469 47.546875 L 163.207031 47.75 L 163.640625 47.804688 L 164.070312 47.863281 L 164.9375 47.980469 L 166.664062 48.226562 L 167.097656 48.292969 L 167.527344 48.359375 L 168.390625 48.496094 L 170.121094 48.789062 L 173.574219 49.433594 L 174.511719 49.621094 L 175.449219 49.816406 L 177.324219 50.222656 L 181.070312 51.109375 L 181.539062 51.226562 L 182.003906 51.347656 L 182.941406 51.589844 L 184.816406 52.089844 L 188.5625 53.160156 L 189.03125 53.300781 L 189.5 53.445312 L 190.433594 53.730469 L 192.308594 54.324219 L 196.054688 55.570312 L 203.546875 58.320312 L 203.984375 58.488281 L 204.421875 58.660156 L 205.296875 59.007812 L 207.046875 59.710938 L 210.546875 61.171875 L 217.542969 64.285156 L 231.535156 71.214844 L 232.394531 71.667969 L 233.25 72.125 L 234.964844 73.042969 L 238.394531 74.917969 L 245.253906 78.792969 L 258.972656 87 L 288.734375 106.289062 L 316.511719 125.214844 L 346.617188 145.78125 L 376.167969 165.375 L 403.738281 182.753906 L 433.628906 200.417969 L 461.535156 215.726562 L 488.894531 229.625 L 518.578125 243.515625 L 546.273438 255.425781 L 576.296875 267.273438 L 605.769531 277.929688 L 633.257812 287.078125 L 663.070312 296.214844 L 690.894531 304.078125 L 721.046875 311.949219 L 750.652344 319.078125 L 778.265625 325.25 L 808.210938 331.46875 L 836.164062 336.875 L 863.574219 341.828125 L 893.304688 346.855469 L 921.050781 351.246094 L 951.125 355.710938 L 980.648438 359.816406 L 1008.183594 363.421875 L 1038.046875 367.109375 L 1065.921875 370.355469 L 1093.25 373.371094 L 1122.902344 376.46875 L 1150.566406 379.210938 L 1180.558594 382.027344 L 1208.566406 384.527344 L 1236.019531 386.863281 L 1265.804688 389.273438 L 1293.597656 391.417969 L 1323.71875 393.636719 L 1353.292969 395.714844 L 1380.878906 397.566406 L 1410.789062 399.488281 L 1438.714844 401.207031 L 1466.09375 402.824219 L 1495.792969 404.511719 L 1523.511719 406.019531 L 1523.992188 406.046875 L 1524.476562 406.070312 L 1525.445312 406.125 L 1538.980469 406.835938 L 1539.464844 406.863281 L 1539.945312 406.886719 L 1540.914062 406.9375 L 1542.847656 407.039062 L 1546.714844 407.238281 L 1547.199219 407.265625 L 1547.683594 407.289062 L 1548.648438 407.339844 L 1550.582031 407.441406 L 1551.550781 407.488281 L 1552.515625 407.539062 L 1553 407.5625 L 1553.484375 407.589844 L 1553.964844 407.613281 L 1554.449219 407.636719 " transform="matrix(1,0,0,1,-99,-7.5)"/>
</g>
<g clip-path="url(#clip7)" clip-rule="nonzero">
<path style="fill:none;stroke-width:3;stroke-linecap:square;stroke-linejoin:miter;stroke:rgb(36.389715%,61.849393%,78.234531%);stroke-opacity:1;stroke-miterlimit:3.25;" d="M 145.929688 46.664062 L 146.359375 46.664062 L 146.792969 46.667969 L 147.222656 46.671875 L 148.089844 46.679688 L 148.519531 46.6875 L 148.953125 46.699219 L 149.382812 46.707031 L 150.25 46.730469 L 150.679688 46.746094 L 151.113281 46.761719 L 151.542969 46.78125 L 151.976562 46.796875 L 152.839844 46.839844 L 153.273438 46.859375 L 153.703125 46.886719 L 154.566406 46.9375 L 155.433594 46.992188 L 156.296875 47.054688 L 156.726562 47.089844 L 157.160156 47.125 L 158.023438 47.199219 L 159.753906 47.359375 L 160.183594 47.40625 L 160.617188 47.449219 L 161.480469 47.546875 L 163.207031 47.75 L 163.640625 47.804688 L 164.070312 47.863281 L 164.9375 47.976562 L 166.664062 48.226562 L 167.097656 48.292969 L 167.527344 48.359375 L 168.390625 48.496094 L 170.121094 48.785156 L 173.574219 49.425781 L 174.511719 49.613281 L 175.449219 49.808594 L 177.324219 50.214844 L 181.070312 51.097656 L 181.539062 51.214844 L 182.003906 51.332031 L 182.941406 51.570312 L 184.816406 52.070312 L 188.5625 53.132812 L 189.5 53.414062 L 190.433594 53.699219 L 192.308594 54.28125 L 196.054688 55.515625 L 203.546875 58.226562 L 204.421875 58.5625 L 205.296875 58.90625 L 207.046875 59.597656 L 210.546875 61.03125 L 217.542969 64.078125 L 231.535156 70.820312 L 231.964844 71.039062 L 232.394531 71.261719 L 233.25 71.699219 L 234.964844 72.589844 L 238.394531 74.398438 L 245.253906 78.128906 L 258.972656 85.972656 L 288.734375 104.132812 L 316.511719 121.625 L 346.617188 140.308594 L 376.167969 157.847656 L 403.738281 173.226562 L 433.628906 188.714844 L 461.535156 202.042969 L 488.894531 214.089844 L 518.578125 226.082031 L 546.273438 236.34375 L 576.296875 246.546875 L 605.769531 255.71875 L 633.257812 263.59375 L 663.070312 271.46875 L 690.894531 278.257812 L 721.046875 285.0625 L 750.652344 291.238281 L 778.265625 296.601562 L 808.210938 302.015625 L 836.164062 306.730469 L 863.574219 311.066406 L 893.304688 315.472656 L 921.050781 319.335938 L 951.125 323.273438 L 980.648438 326.902344 L 1008.183594 330.097656 L 1038.046875 333.375 L 1065.921875 336.269531 L 1093.25 338.964844 L 1122.902344 341.738281 L 1150.566406 344.199219 L 1180.558594 346.738281 L 1208.566406 348.992188 L 1236.019531 351.105469 L 1265.804688 353.292969 L 1293.597656 355.242188 L 1323.71875 357.261719 L 1353.292969 359.160156 L 1380.878906 360.855469 L 1410.789062 362.617188 L 1438.714844 364.199219 L 1466.09375 365.691406 L 1495.792969 367.246094 L 1523.511719 368.640625 L 1523.992188 368.664062 L 1524.476562 368.691406 L 1525.445312 368.738281 L 1527.378906 368.832031 L 1531.246094 369.023438 L 1538.980469 369.398438 L 1539.464844 369.421875 L 1539.945312 369.445312 L 1540.914062 369.492188 L 1546.714844 369.773438 L 1547.683594 369.820312 L 1548.648438 369.863281 L 1550.582031 369.957031 L 1551.550781 370.003906 L 1552.515625 370.050781 L 1553.484375 370.097656 L 1553.964844 370.117188 L 1554.449219 370.140625 " transform="matrix(1,0,0,1,-99,-7.5)"/>
</g>
<path style="fill:none;stroke-width:0.3;stroke-linecap:butt;stroke-linejoin:miter;stroke:rgb(0%,0%,0%);stroke-opacity:1;stroke-miterlimit:3.25;" d="M 145.929688 481.921875 L 145.929688 477.921875 " transform="matrix(1,0,0,1,-99,-7.5)"/>
<path style="fill:none;stroke-width:0.3;stroke-linecap:butt;stroke-linejoin:miter;stroke:rgb(0%,0%,0%);stroke-opacity:1;stroke-miterlimit:3.25;" d="M 216.355469 481.921875 L 216.355469 479.519531 " transform="matrix(1,0,0,1,-99,-7.5)"/>
<path style="fill:none;stroke-width:0.3;stroke-linecap:butt;stroke-linejoin:miter;stroke:rgb(0%,0%,0%);stroke-opacity:1;stroke-miterlimit:3.25;" d="M 286.78125 481.921875 L 286.78125 479.519531 " transform="matrix(1,0,0,1,-99,-7.5)"/>
<path style="fill:none;stroke-width:0.3;stroke-linecap:butt;stroke-linejoin:miter;stroke:rgb(0%,0%,0%);stroke-opacity:1;stroke-miterlimit:3.25;" d="M 357.207031 481.921875 L 357.207031 479.519531 " transform="matrix(1,0,0,1,-99,-7.5)"/>
<path style="fill:none;stroke-width:0.3;stroke-linecap:butt;stroke-linejoin:miter;stroke:rgb(0%,0%,0%);stroke-opacity:1;stroke-miterlimit:3.25;" d="M 427.632812 481.921875 L 427.632812 477.921875 " transform="matrix(1,0,0,1,-99,-7.5)"/>
<g style="fill:rgb(0%,0%,0%);fill-opacity:1;">
  <use xlink:href="#glyph0-1" x="322.79305" y="497.93183"/>
</g>
<path style="fill:none;stroke-width:0.3;stroke-linecap:butt;stroke-linejoin:miter;stroke:rgb(0%,0%,0%);stroke-opacity:1;stroke-miterlimit:3.25;" d="M 498.058594 481.921875 L 498.058594 479.519531 " transform="matrix(1,0,0,1,-99,-7.5)"/>
<path style="fill:none;stroke-width:0.3;stroke-linecap:butt;stroke-linejoin:miter;stroke:rgb(0%,0%,0%);stroke-opacity:1;stroke-miterlimit:3.25;" d="M 568.484375 481.921875 L 568.484375 479.519531 " transform="matrix(1,0,0,1,-99,-7.5)"/>
<path style="fill:none;stroke-width:0.3;stroke-linecap:butt;stroke-linejoin:miter;stroke:rgb(0%,0%,0%);stroke-opacity:1;stroke-miterlimit:3.25;" d="M 638.910156 481.921875 L 638.910156 479.519531 " transform="matrix(1,0,0,1,-99,-7.5)"/>
<path style="fill:none;stroke-width:0.3;stroke-linecap:butt;stroke-linejoin:miter;stroke:rgb(0%,0%,0%);stroke-opacity:1;stroke-miterlimit:3.25;" d="M 709.335938 481.921875 L 709.335938 477.921875 " transform="matrix(1,0,0,1,-99,-7.5)"/>
<g style="fill:rgb(0%,0%,0%);fill-opacity:1;">
  <use xlink:href="#glyph0-2" x="604.497314" y="497.93183"/>
</g>
<path style="fill:none;stroke-width:0.3;stroke-linecap:butt;stroke-linejoin:miter;stroke:rgb(0%,0%,0%);stroke-opacity:1;stroke-miterlimit:3.25;" d="M 779.761719 481.921875 L 779.761719 479.519531 " transform="matrix(1,0,0,1,-99,-7.5)"/>
<path style="fill:none;stroke-width:0.3;stroke-linecap:butt;stroke-linejoin:miter;stroke:rgb(0%,0%,0%);stroke-opacity:1;stroke-miterlimit:3.25;" d="M 850.1875 481.921875 L 850.1875 479.519531 " transform="matrix(1,0,0,1,-99,-7.5)"/>
<path style="fill:none;stroke-width:0.3;stroke-linecap:butt;stroke-linejoin:miter;stroke:rgb(0%,0%,0%);stroke-opacity:1;stroke-miterlimit:3.25;" d="M 920.613281 481.921875 L 920.613281 479.519531 " transform="matrix(1,0,0,1,-99,-7.5)"/>
<path style="fill:none;stroke-width:0.3;stroke-linecap:butt;stroke-linejoin:miter;stroke:rgb(0%,0%,0%);stroke-opacity:1;stroke-miterlimit:3.25;" d="M 991.042969 481.921875 L 991.042969 477.921875 " transform="matrix(1,0,0,1,-99,-7.5)"/>
<g style="fill:rgb(0%,0%,0%);fill-opacity:1;">
  <use xlink:href="#glyph0-3" x="886.201579" y="497.93183"/>
</g>
<path style="fill:none;stroke-width:0.3;stroke-linecap:butt;stroke-linejoin:miter;stroke:rgb(0%,0%,0%);stroke-opacity:1;stroke-miterlimit:3.25;" d="M 1061.46875 481.921875 L 1061.46875 479.519531 " transform="matrix(1,0,0,1,-99,-7.5)"/>
<path style="fill:none;stroke-width:0.3;stroke-linecap:butt;stroke-linejoin:miter;stroke:rgb(0%,0%,0%);stroke-opacity:1;stroke-miterlimit:3.25;" d="M 1131.894531 481.921875 L 1131.894531 479.519531 " transform="matrix(1,0,0,1,-99,-7.5)"/>
<path style="fill:none;stroke-width:0.3;stroke-linecap:butt;stroke-linejoin:miter;stroke:rgb(0%,0%,0%);stroke-opacity:1;stroke-miterlimit:3.25;" d="M 1202.320312 481.921875 L 1202.320312 479.519531 " transform="matrix(1,0,0,1,-99,-7.5)"/>
<path style="fill:none;stroke-width:0.3;stroke-linecap:butt;stroke-linejoin:miter;stroke:rgb(0%,0%,0%);stroke-opacity:1;stroke-miterlimit:3.25;" d="M 1272.746094 481.921875 L 1272.746094 477.921875 " transform="matrix(1,0,0,1,-99,-7.5)"/>
<g style="fill:rgb(0%,0%,0%);fill-opacity:1;">
  <use xlink:href="#glyph0-4" x="1167.905843" y="497.93183"/>
</g>
<path style="fill:none;stroke-width:0.3;stroke-linecap:butt;stroke-linejoin:miter;stroke:rgb(0%,0%,0%);stroke-opacity:1;stroke-miterlimit:3.25;" d="M 1343.171875 481.921875 L 1343.171875 479.519531 " transform="matrix(1,0,0,1,-99,-7.5)"/>
<path style="fill:none;stroke-width:0.3;stroke-linecap:butt;stroke-linejoin:miter;stroke:rgb(0%,0%,0%);stroke-opacity:1;stroke-miterlimit:3.25;" d="M 1413.597656 481.921875 L 1413.597656 479.519531 " transform="matrix(1,0,0,1,-99,-7.5)"/>
<path style="fill:none;stroke-width:0.3;stroke-linecap:butt;stroke-linejoin:miter;stroke:rgb(0%,0%,0%);stroke-opacity:1;stroke-miterlimit:3.25;" d="M 1484.023438 481.921875 L 1484.023438 479.519531 " transform="matrix(1,0,0,1,-99,-7.5)"/>
<path style="fill:none;stroke-width:0.3;stroke-linecap:butt;stroke-linejoin:miter;stroke:rgb(0%,0%,0%);stroke-opacity:1;stroke-miterlimit:3.25;" d="M 1554.449219 481.921875 L 1554.449219 477.921875 " transform="matrix(1,0,0,1,-99,-7.5)"/>
<g style="fill:rgb(0%,0%,0%);fill-opacity:1;">
  <use xlink:href="#glyph0-5" x="1443.770508" y="497.93183"/>
  <use xlink:href="#glyph0-6" x="1455.449707" y="497.93183"/>
</g>
<path style="fill:none;stroke-width:0.3;stroke-linecap:square;stroke-linejoin:miter;stroke:rgb(40%,40%,40%);stroke-opacity:1;stroke-miterlimit:3.25;" d="M 145.929688 481.921875 L 1554.449219 481.921875 " transform="matrix(1,0,0,1,-99,-7.5)"/>
<g style="fill:rgb(0%,0%,0%);fill-opacity:1;">
  <use xlink:href="#glyph1-1" x="1467.449707" y="483.781439"/>
</g>
<path style="fill:none;stroke-width:0.3;stroke-linecap:butt;stroke-linejoin:miter;stroke:rgb(0%,0%,0%);stroke-opacity:1;stroke-miterlimit:3.25;" d="M 145.929688 917.179688 L 149.929688 917.179688 " transform="matrix(1,0,0,1,-99,-7.5)"/>
<g style="fill:rgb(0%,0%,0%);fill-opacity:1;">
  <use xlink:href="#glyph2-1" x="0.000000000000014211" y="916.958387"/>
</g>
<g style="fill:rgb(0%,0%,0%);fill-opacity:1;">
  <use xlink:href="#glyph0-5" x="13.235514" y="916.958387"/>
  <use xlink:href="#glyph0-7" x="24.914714" y="916.958387"/>
  <use xlink:href="#glyph0-6" x="30.749186" y="916.958387"/>
</g>
<path style="fill:none;stroke-width:0.3;stroke-linecap:butt;stroke-linejoin:miter;stroke:rgb(0%,0%,0%);stroke-opacity:1;stroke-miterlimit:3.25;" d="M 145.929688 873.652344 L 148.328125 873.652344 " transform="matrix(1,0,0,1,-99,-7.5)"/>
<path style="fill:none;stroke-width:0.3;stroke-linecap:butt;stroke-linejoin:miter;stroke:rgb(0%,0%,0%);stroke-opacity:1;stroke-miterlimit:3.25;" d="M 145.929688 830.125 L 148.328125 830.125 " transform="matrix(1,0,0,1,-99,-7.5)"/>
<path style="fill:none;stroke-width:0.3;stroke-linecap:butt;stroke-linejoin:miter;stroke:rgb(0%,0%,0%);stroke-opacity:1;stroke-miterlimit:3.25;" d="M 145.929688 786.601562 L 148.328125 786.601562 " transform="matrix(1,0,0,1,-99,-7.5)"/>
<path style="fill:none;stroke-width:0.3;stroke-linecap:butt;stroke-linejoin:miter;stroke:rgb(0%,0%,0%);stroke-opacity:1;stroke-miterlimit:3.25;" d="M 145.929688 743.074219 L 148.328125 743.074219 " transform="matrix(1,0,0,1,-99,-7.5)"/>
<path style="fill:none;stroke-width:0.3;stroke-linecap:butt;stroke-linejoin:miter;stroke:rgb(0%,0%,0%);stroke-opacity:1;stroke-miterlimit:3.25;" d="M 145.929688 699.550781 L 149.929688 699.550781 " transform="matrix(1,0,0,1,-99,-7.5)"/>
<g style="fill:rgb(0%,0%,0%);fill-opacity:1;">
  <use xlink:href="#glyph2-1" x="0.000000000000014211" y="699.329874"/>
</g>
<g style="fill:rgb(0%,0%,0%);fill-opacity:1;">
  <use xlink:href="#glyph0-6" x="13.235514" y="699.329874"/>
  <use xlink:href="#glyph0-7" x="24.914714" y="699.329874"/>
  <use xlink:href="#glyph0-8" x="30.749186" y="699.329874"/>
</g>
<path style="fill:none;stroke-width:0.3;stroke-linecap:butt;stroke-linejoin:miter;stroke:rgb(0%,0%,0%);stroke-opacity:1;stroke-miterlimit:3.25;" d="M 145.929688 656.023438 L 148.328125 656.023438 " transform="matrix(1,0,0,1,-99,-7.5)"/>
<path style="fill:none;stroke-width:0.3;stroke-linecap:butt;stroke-linejoin:miter;stroke:rgb(0%,0%,0%);stroke-opacity:1;stroke-miterlimit:3.25;" d="M 145.929688 612.5 L 148.328125 612.5 " transform="matrix(1,0,0,1,-99,-7.5)"/>
<path style="fill:none;stroke-width:0.3;stroke-linecap:butt;stroke-linejoin:miter;stroke:rgb(0%,0%,0%);stroke-opacity:1;stroke-miterlimit:3.25;" d="M 145.929688 568.972656 L 148.328125 568.972656 " transform="matrix(1,0,0,1,-99,-7.5)"/>
<path style="fill:none;stroke-width:0.3;stroke-linecap:butt;stroke-linejoin:miter;stroke:rgb(0%,0%,0%);stroke-opacity:1;stroke-miterlimit:3.25;" d="M 145.929688 525.445312 L 148.328125 525.445312 " transform="matrix(1,0,0,1,-99,-7.5)"/>
<path style="fill:none;stroke-width:0.3;stroke-linecap:butt;stroke-linejoin:miter;stroke:rgb(0%,0%,0%);stroke-opacity:1;stroke-miterlimit:3.25;" d="M 145.929688 481.921875 L 149.929688 481.921875 " transform="matrix(1,0,0,1,-99,-7.5)"/>
<g style="fill:rgb(0%,0%,0%);fill-opacity:1;">
  <use xlink:href="#glyph0-6" x="13.235514" y="481.701361"/>
  <use xlink:href="#glyph0-7" x="24.914714" y="481.701361"/>
  <use xlink:href="#glyph0-6" x="30.749186" y="481.701361"/>
</g>
<path style="fill:none;stroke-width:0.3;stroke-linecap:butt;stroke-linejoin:miter;stroke:rgb(0%,0%,0%);stroke-opacity:1;stroke-miterlimit:3.25;" d="M 145.929688 438.394531 L 148.328125 438.394531 " transform="matrix(1,0,0,1,-99,-7.5)"/>
<path style="fill:none;stroke-width:0.3;stroke-linecap:butt;stroke-linejoin:miter;stroke:rgb(0%,0%,0%);stroke-opacity:1;stroke-miterlimit:3.25;" d="M 145.929688 394.871094 L 148.328125 394.871094 " transform="matrix(1,0,0,1,-99,-7.5)"/>
<path style="fill:none;stroke-width:0.3;stroke-linecap:butt;stroke-linejoin:miter;stroke:rgb(0%,0%,0%);stroke-opacity:1;stroke-miterlimit:3.25;" d="M 145.929688 351.34375 L 148.328125 351.34375 " transform="matrix(1,0,0,1,-99,-7.5)"/>
<path style="fill:none;stroke-width:0.3;stroke-linecap:butt;stroke-linejoin:miter;stroke:rgb(0%,0%,0%);stroke-opacity:1;stroke-miterlimit:3.25;" d="M 145.929688 307.816406 L 148.328125 307.816406 " transform="matrix(1,0,0,1,-99,-7.5)"/>
<path style="fill:none;stroke-width:0.3;stroke-linecap:butt;stroke-linejoin:miter;stroke:rgb(0%,0%,0%);stroke-opacity:1;stroke-miterlimit:3.25;" d="M 145.929688 264.292969 L 149.929688 264.292969 " transform="matrix(1,0,0,1,-99,-7.5)"/>
<g style="fill:rgb(0%,0%,0%);fill-opacity:1;">
  <use xlink:href="#glyph0-6" x="13.235514" y="264.072849"/>
  <use xlink:href="#glyph0-7" x="24.914714" y="264.072849"/>
  <use xlink:href="#glyph0-8" x="30.749186" y="264.072849"/>
</g>
<path style="fill:none;stroke-width:0.3;stroke-linecap:butt;stroke-linejoin:miter;stroke:rgb(0%,0%,0%);stroke-opacity:1;stroke-miterlimit:3.25;" d="M 145.929688 220.765625 L 148.328125 220.765625 " transform="matrix(1,0,0,1,-99,-7.5)"/>
<path style="fill:none;stroke-width:0.3;stroke-linecap:butt;stroke-linejoin:miter;stroke:rgb(0%,0%,0%);stroke-opacity:1;stroke-miterlimit:3.25;" d="M 145.929688 177.242188 L 148.328125 177.242188 " transform="matrix(1,0,0,1,-99,-7.5)"/>
<path style="fill:none;stroke-width:0.3;stroke-linecap:butt;stroke-linejoin:miter;stroke:rgb(0%,0%,0%);stroke-opacity:1;stroke-miterlimit:3.25;" d="M 145.929688 133.714844 L 148.328125 133.714844 " transform="matrix(1,0,0,1,-99,-7.5)"/>
<path style="fill:none;stroke-width:0.3;stroke-linecap:butt;stroke-linejoin:miter;stroke:rgb(0%,0%,0%);stroke-opacity:1;stroke-miterlimit:3.25;" d="M 145.929688 90.191406 L 148.328125 90.191406 " transform="matrix(1,0,0,1,-99,-7.5)"/>
<path style="fill:none;stroke-width:0.3;stroke-linecap:butt;stroke-linejoin:miter;stroke:rgb(0%,0%,0%);stroke-opacity:1;stroke-miterlimit:3.25;" d="M 145.929688 46.664062 L 149.929688 46.664062 " transform="matrix(1,0,0,1,-99,-7.5)"/>
<g style="fill:rgb(0%,0%,0%);fill-opacity:1;">
  <use xlink:href="#glyph0-5" x="13.235514" y="46.444336"/>
  <use xlink:href="#glyph0-7" x="24.914714" y="46.444336"/>
  <use xlink:href="#glyph0-6" x="30.749186" y="46.444336"/>
</g>
<path style="fill:none;stroke-width:0.3;stroke-linecap:square;stroke-linejoin:miter;stroke:rgb(40%,40%,40%);stroke-opacity:1;stroke-miterlimit:3.25;" d="M 145.929688 917.179688 L 145.929688 46.664062 " transform="matrix(1,0,0,1,-99,-7.5)"/>
<g style="fill:rgb(0%,0%,0%);fill-opacity:1;">
  <use xlink:href="#glyph1-2" x="22.69694" y="24.442383"/>
</g>
<g style="fill:rgb(0%,0%,0%);fill-opacity:1;">
  <use xlink:href="#glyph1-3" x="39.084147" y="24.442383"/>
</g>
<g style="fill:rgb(0%,0%,0%);fill-opacity:1;">
  <use xlink:href="#glyph1-1" x="48.075358" y="24.442383"/>
</g>
<g style="fill:rgb(0%,0%,0%);fill-opacity:1;">
  <use xlink:href="#glyph1-4" x="62.16862" y="24.442383"/>
</g>
<g style="fill:rgb(0%,0%,0%);fill-opacity:1;">
  <use xlink:href="#glyph3-1" x="1516.390454" y="349.078632"/>
</g>
<g clip-path="url(#clip8)" clip-rule="nonzero">
<path style="fill:none;stroke-width:3;stroke-linecap:square;stroke-linejoin:miter;stroke:rgb(36.841382%,50.678264%,70.980392%);stroke-opacity:1;stroke-miterlimit:3.25;" d="M 1598.34375 380.003906 L 1624.34375 380.003906 " transform="matrix(1,0,0,1,-99,-7.5)"/>
</g>
<g style="fill:rgb(0%,0%,0%);fill-opacity:1;">
  <use xlink:href="#glyph4-1" x="1537.592969" y="379.003632"/>
</g>
<g clip-path="url(#clip9)" clip-rule="nonzero">
<path style="fill:none;stroke-width:3;stroke-linecap:square;stroke-linejoin:miter;stroke:rgb(88.072023%,61.104753%,14.204623%);stroke-opacity:1;stroke-miterlimit:3.25;" d="M 1598.34375 415.082031 L 1624.34375 415.082031 " transform="matrix(1,0,0,1,-99,-7.5)"/>
</g>
<g style="fill:rgb(0%,0%,0%);fill-opacity:1;">
  <use xlink:href="#glyph4-2" x="1537.592969" y="414.082392"/>
</g>
<g clip-path="url(#clip10)" clip-rule="nonzero">
<path style="fill:none;stroke-width:3;stroke-linecap:square;stroke-linejoin:miter;stroke:rgb(56.017395%,69.156939%,19.488823%);stroke-opacity:1;stroke-miterlimit:3.25;" d="M 1598.34375 450.160156 L 1624.34375 450.160156 " transform="matrix(1,0,0,1,-99,-7.5)"/>
</g>
<g style="fill:rgb(0%,0%,0%);fill-opacity:1;">
  <use xlink:href="#glyph4-3" x="1537.592969" y="449.161151"/>
</g>
<g clip-path="url(#clip11)" clip-rule="nonzero">
<path style="fill:none;stroke-width:3;stroke-linecap:square;stroke-linejoin:miter;stroke:rgb(92.252995%,38.5626%,20.918593%);stroke-opacity:1;stroke-miterlimit:3.25;" d="M 1598.34375 485.238281 L 1624.34375 485.238281 " transform="matrix(1,0,0,1,-99,-7.5)"/>
</g>
<g style="fill:rgb(0%,0%,0%);fill-opacity:1;">
  <use xlink:href="#glyph4-4" x="1537.592969" y="484.239911"/>
</g>
<g clip-path="url(#clip12)" clip-rule="nonzero">
<path style="fill:none;stroke-width:3;stroke-linecap:square;stroke-linejoin:miter;stroke:rgb(52.848096%,47.061875%,70.135042%);stroke-opacity:1;stroke-miterlimit:3.25;" d="M 1598.34375 520.320312 L 1624.34375 520.320312 " transform="matrix(1,0,0,1,-99,-7.5)"/>
</g>
<g style="fill:rgb(0%,0%,0%);fill-opacity:1;">
  <use xlink:href="#glyph4-5" x="1537.592969" y="519.318671"/>
</g>
<g clip-path="url(#clip13)" clip-rule="nonzero">
<path style="fill:none;stroke-width:3;stroke-linecap:square;stroke-linejoin:miter;stroke:rgb(77.207599%,43.155566%,10.238804%);stroke-opacity:1;stroke-miterlimit:3.25;" d="M 1598.34375 555.398438 L 1624.34375 555.398438 " transform="matrix(1,0,0,1,-99,-7.5)"/>
</g>
<g style="fill:rgb(0%,0%,0%);fill-opacity:1;">
  <use xlink:href="#glyph4-6" x="1537.592969" y="554.397431"/>
</g>
<g clip-path="url(#clip14)" clip-rule="nonzero">
<path style="fill:none;stroke-width:3;stroke-linecap:square;stroke-linejoin:miter;stroke:rgb(36.389715%,61.849393%,78.234531%);stroke-opacity:1;stroke-miterlimit:3.25;" d="M 1598.34375 590.476562 L 1624.34375 590.476562 " transform="matrix(1,0,0,1,-99,-7.5)"/>
</g>
<g style="fill:rgb(0%,0%,0%);fill-opacity:1;">
  <use xlink:href="#glyph4-7" x="1537.592969" y="589.47619"/>
</g>
</g>
</svg>
